<?xml version="1.0" standalone="no"?>
<!DOCTYPE svg PUBLIC "-//W3C//DTD SVG 1.1//EN" "http://www.w3.org/Graphics/SVG/1.1/DTD/svg11.dtd" >
<svg>
<metadata>
Created by FontForge 20090914 at Sun Aug 18 12:18:05 2013
 By www-data
Copyright (c) 2011 by Michael Chereda. All rights reserved.
</metadata>
<defs>
<font id="Casper" horiz-adv-x="538" >
  <font-face 
    font-family="Casper"
    font-weight="400"
    font-stretch="normal"
    units-per-em="1000"
    panose-1="2 0 5 6 0 0 0 2 0 4"
    ascent="800"
    descent="-200"
    x-height="515"
    cap-height="695"
    bbox="-77 -206.005 1888 886.006"
    underline-thickness="50"
    underline-position="-50"
    unicode-range="U+0002-U+FB09"
  />
<missing-glyph horiz-adv-x="250" 
 />
    <glyph glyph-name=".notdef" horiz-adv-x="250" 
 />
    <glyph glyph-name="uni0000" horiz-adv-x="456" 
 />
    <glyph glyph-name="uni0000" horiz-adv-x="456" 
 />
    <glyph glyph-name="uni0002" horiz-adv-x="0" 
 />
    <glyph glyph-name="space" unicode=" " horiz-adv-x="300" 
 />
    <glyph glyph-name="space" unicode="&#xa0;" horiz-adv-x="300" 
 />
    <glyph glyph-name="exclam" unicode="!" horiz-adv-x="187" 
d="M149 695l-25 -539h-56l-26 539h107zM96 85c13.333 0 24.833 -4.83301 34.5 -14.5s14.5 -21.167 14.5 -34.5s-4.83301 -24.666 -14.5 -33.999s-21.167 -14 -34.5 -14c-14 0 -25.833 4.66699 -35.5 14s-14.5 20.666 -14.5 33.999s4.83301 24.833 14.5 34.5
s21.5 14.5 35.5 14.5z" />
    <glyph glyph-name="quotedbl" unicode="&#x22;" horiz-adv-x="357" 
d="M153 695l-24 -248h-56l-26 248h106zM309 695l-25 -248h-55l-26 248h106z" />
    <glyph glyph-name="numbersign" unicode="#" horiz-adv-x="554" 
d="M234 498h148l40 197h71l-41 -197h81v-70h-95l-35 -170h130v-70h-144l-41 -200h-70l40 200h-147l-41 -200h-70l41 200h-80v70h94l34 170h-128v70h142l41 197h71zM332 258l35 170h-147l-35 -170h147z" />
    <glyph glyph-name="dollar" unicode="$" horiz-adv-x="468" 
d="M350 258c-16.667 16.667 -35.667 29.998 -57 39.998s-43.666 19.167 -66.999 27.5s-47 17.5 -71 27.5s-46.333 23.333 -67 40c-18 14.667 -31.333 32.5 -40 53.5s-13 43.167 -13 66.5c0 18 2.5 35.667 7.5 53s12.167 33 21.5 47c19.333 29.333 41.333 49.5 66 60.5
s49 17.5 73 19.5v64h63v-64c32 -3.33301 61.833 -11.833 89.5 -25.5s52.167 -34.5 73.5 -62.5l-53 -54c-19.333 25.333 -40 43.333 -62 54s-47.333 16 -76 16c-23.333 0 -44.666 -3.66699 -63.999 -11s-36.333 -22 -51 -44c-3.33301 -6 -6.33301 -13.333 -9 -22
s-4 -18 -4 -28s1.66699 -20.167 5 -30.5s9.66602 -19.166 18.999 -26.499c19.333 -17.333 40.333 -31 63 -41s45.667 -19.333 69 -28s46.333 -18.167 69 -28.5s44 -24.833 64 -43.5c17.333 -16 30.166 -35.167 38.499 -57.5s12.5 -45.166 12.5 -68.499
c0 -19.333 -2.66699 -38.166 -8 -56.499s-13.666 -35.166 -24.999 -50.499c-21.333 -29.333 -44.333 -50.833 -69 -64.5s-52 -21.834 -82 -24.501v-87h-63v89c-40.667 5.33301 -77.167 20 -109.5 44s-58.5 57.333 -78.5 100l63 38c17.333 -37.333 39.666 -65 66.999 -83
s58.333 -27 93 -27c26 0 49.5 5.33301 70.5 16s38.833 27.667 53.5 51c9.33301 15.333 14 32.333 14 51c0 13.333 -2.16699 26.166 -6.5 38.499s-10.833 22.833 -19.5 31.5z" />
    <glyph glyph-name="uni0025" unicode="%" horiz-adv-x="780" 
d="M237 -12h-71l373 719h70zM683 174c0 10.667 -1 22.833 -3 36.5s-5.83301 26.5 -11.5 38.5s-13 22.167 -22 30.5s-20.5 12.5 -34.5 12.5c-14.667 0 -26.667 -4.16699 -36 -12.5s-16.666 -18.5 -21.999 -30.5s-9 -24.833 -11 -38.5s-3 -26.167 -3 -37.5s1 -24 3 -38
s5.66699 -27.333 11 -40s12.666 -23.167 21.999 -31.5s21.333 -12.5 36 -12.5c14 0 25.5 4.5 34.5 13.5s16.333 19.833 22 32.5s9.5 26 11.5 40s3 26.333 3 37zM611 -12.001c-26 0 -47.501 5.49902 -64.501 16.499s-30.833 25.333 -41.5 43s-18.167 37.5 -22.5 59.5
s-6.5 44 -6.5 66c0 21.333 2.16699 42.833 6.5 64.5s11.666 41.334 21.999 59.001s24 32 41 43s38.5 16.5 64.5 16.5s47.667 -5.5 65 -16.5s31.333 -25.167 42 -42.5s18.334 -36.833 23.001 -58.5s7 -43.167 7 -64.5s-2.33301 -43 -7 -65s-12.167 -42 -22.5 -60
s-24.166 -32.667 -41.499 -44s-39 -17 -65 -17zM240.999 524.998c0 10.667 -1.16699 22.8291 -3.5 36.4961s-6.16602 26.5 -11.499 38.5s-12.666 22.167 -21.999 30.5s-21 12.5 -35 12.5c-14.667 0 -26.667 -4 -36 -12s-16.666 -18 -21.999 -30s-9 -24.833 -11 -38.5
s-3 -26.167 -3 -37.5s1 -24.166 3 -38.499s5.66699 -27.666 11 -39.999s12.666 -22.666 21.999 -30.999s21.333 -12.5 36 -12.5c14 0 25.667 4.33301 35 13s16.666 19.334 21.999 32.001s9.16602 26 11.499 40s3.5 26.333 3.5 37zM167.999 339.993
c-26 0 -47.499 5.50098 -64.499 16.501s-30.833 25.167 -41.5 42.5s-18.167 37.166 -22.5 59.499s-6.5 44.5 -6.5 66.5c0 21.333 2.16699 42.833 6.5 64.5s11.666 41.167 21.999 58.5s24.166 31.5 41.499 42.5s39 16.5 65 16.5c25.333 0 46.666 -5.5 63.999 -16.5
s31.333 -25.167 42 -42.5s18.334 -36.833 23.001 -58.5s7 -43.167 7 -64.5c0 -20.667 -2.16699 -42 -6.5 -64s-11.666 -42 -21.999 -60s-24 -32.667 -41 -44s-37.833 -17 -62.5 -17h-4z" />
    <glyph glyph-name="ampersand" unicode="&#x26;" horiz-adv-x="628" 
d="M41 204c0 36 6.83105 68.002 20.498 96.002s36.5 52 68.5 72c-19.333 19.333 -34.333 41.166 -45 65.499s-16 50.5 -16 78.5c0 62.667 19 110.167 57 142.5s88.333 48.5 151 48.5c38.667 0 70.5 -5.83301 95.5 -17.5s46.5 -28.834 64.5 -51.501l-67 -52
c-9.33301 13.333 -22.666 23.166 -39.999 29.499s-35.333 9.5 -54 9.5c-37.333 0 -67.166 -8.66699 -89.499 -26s-33.5 -45 -33.5 -83c0 -12.667 2.16699 -25.5 6.5 -38.5s10.666 -24.667 18.999 -35s18.333 -18.666 30 -24.999s24.834 -9.5 39.501 -9.5h171
c0 17.333 -1 34.833 -3 52.5s-5 34.167 -9 49.5l81 39c8 -22.667 12.833 -46 14.5 -70s2.5 -47.667 2.5 -71h87v-78h-87v-206c0 -20 7.16699 -35.167 21.5 -45.5s31.5 -15.5 51.5 -15.5h27v-64l-27 -7c-10 -2.66699 -21 -4 -33 -4c-20 0 -38.5 4.5 -55.5 13.5
s-31.167 21.167 -42.5 36.5c-21.333 -18.667 -44.833 -31.667 -70.5 -39s-55.167 -11 -88.5 -11c-26 0 -52.167 2.66699 -78.5 8s-50.5 14.166 -72.5 26.499s-41.167 28.333 -57.5 48s-27.5 43.834 -33.5 72.501c-2 9.33301 -3.33301 18.833 -4 28.5s-1 19.167 -1 28.5v4z
M418.998 330.002l-134.997 -0.000976562c-22 0 -43 -1.83301 -63 -5.5s-37.333 -10.5 -52 -20.5s-26.334 -23.333 -35.001 -40s-13 -38 -13 -64c0 -22.667 4.66699 -42.167 14 -58.5s21.666 -29.666 36.999 -39.999s33.166 -18 53.499 -23s41.166 -7.5 62.499 -7.5
c30.667 0 55.834 3.5 75.501 10.5s38.167 20.833 55.5 41.5v207z" />
    <glyph glyph-name="quotesingle" unicode="'" horiz-adv-x="170" 
d="M136 695l-24 -248h-56l-26 248h106z" />
    <glyph glyph-name="parenleft" unicode="(" horiz-adv-x="264" 
d="M245 708c-28.667 -42 -52.667 -82.6709 -72 -122.004s-34.666 -77.666 -45.999 -114.999s-19.5 -74.166 -24.5 -110.499s-7.5 -72.5 -7.5 -108.5s2.5 -72.333 7.5 -109s13.167 -73.667 24.5 -111s26.666 -75.833 45.999 -115.5s43.333 -80.5 72 -122.5h-74
c-50 74.667 -88.667 150.334 -116 227.001s-41 153.667 -41 231c0 76.667 13.667 152.834 41 228.501s66 151.5 116 227.5h74z" />
    <glyph glyph-name="parenright" unicode=")" horiz-adv-x="264" 
d="M93 707c50 -76 88.667 -151.666 116 -226.999s41 -151.333 41 -228c0 -77.333 -13.667 -154.333 -41 -231s-66 -152.334 -116 -227.001h-74c28.667 42 52.667 82.833 72 122.5s34.666 78.167 45.999 115.5s19.5 74.333 24.5 111s7.5 73 7.5 109s-2.5 72 -7.5 108
s-13.167 72.833 -24.5 110.5s-26.666 76 -45.999 115s-43.333 79.5 -72 121.5h74z" />
    <glyph glyph-name="asterisk" unicode="*" horiz-adv-x="346" 
d="M208 695l-8 -114l106 45l24 -65l-114 -33l74 -94l-57 -39l-60 99l-60 -99l-57 39l74 94l-114 33l24 65l105 -45l-7 114h70z" />
    <glyph glyph-name="plus" unicode="+" horiz-adv-x="471" 
d="M9 354h187v187c7.33301 2 14.166 3.66699 20.499 5s12.5 2 18.5 2s12.167 -0.666992 18.5 -2s13.5 -3 21.5 -5v-187h187c4.66699 -16 7 -29 7 -39c0 -6 -0.666992 -12.167 -2 -18.5s-3 -13.5 -5 -21.5h-187v-187c-8 -2 -15.167 -3.66699 -21.5 -5s-12.5 -2 -18.5 -2
s-12.167 0.666992 -18.5 2s-13.166 3 -20.499 5v187h-187c-4.66699 14.667 -7 28 -7 40c0 11.333 2.33301 24.333 7 39z" />
    <glyph glyph-name="comma" unicode="," horiz-adv-x="179" 
d="M128 72c8.66699 -7.33301 15.499 -17.998 20.499 -31.998s7.5 -29.667 7.5 -47c0 -30 -9 -57.5 -27 -82.5s-40.333 -43.167 -67 -54.5l-21 33c16 5.33301 29.167 15.166 39.5 29.499s15.5 29.833 15.5 46.5c0 8 -1.33301 15.667 -4 23
c-13.333 0 -24.666 4.66699 -33.999 14s-14 20.666 -14 33.999s4.66699 24.833 14 34.5s21.333 14.5 36 14.5c12.667 0 24 -4.33301 34 -13z" />
    <glyph glyph-name="hyphen" unicode="-" horiz-adv-x="396" 
d="M65 235c-2.66699 8.66699 -4.66699 16 -6 22s-2 11.667 -2 17c0 6 0.666992 12.167 2 18.5s3.33301 13.833 6 22.5h265c2.66699 -8.66699 4.66699 -16 6 -22s2 -12 2 -18s-0.666992 -12.167 -2 -18.5s-3.33301 -13.5 -6 -21.5h-265z" />
    <glyph glyph-name="period" unicode="." horiz-adv-x="183" 
d="M91 93c15.333 0 28.166 -5 38.499 -15s15.5 -22.667 15.5 -38c0 -14.667 -5.16699 -27 -15.5 -37s-23.166 -15 -38.499 -15c-14.667 0 -27.167 5 -37.5 15s-15.5 22.333 -15.5 37c0 15.333 5.16699 28 15.5 38s22.833 15 37.5 15z" />
    <glyph glyph-name="slash" unicode="/" horiz-adv-x="274" 
d="M72 -12h-71l202 719h70z" />
    <glyph glyph-name="zero" unicode="0" horiz-adv-x="542" 
d="M405 212c3.33301 18.667 5.83398 40.6689 7.50098 66.002s2.5 48 2.5 68c0 22 -0.666992 44.667 -2 68s-4 43.666 -8 60.999c-4 16.667 -9.33301 33 -16 49s-15.334 30.333 -26.001 43s-23.5 23 -38.5 31s-32.167 12 -51.5 12c-20 0 -37.667 -4 -53 -12
s-28.666 -18.333 -39.999 -31s-20.666 -27.334 -27.999 -44.001s-12.666 -33.334 -15.999 -50.001s-5.5 -36.5 -6.5 -59.5s-1.5 -45.5 -1.5 -67.5c0 -20 0.5 -42.833 1.5 -68.5s3.16699 -47.5 6.5 -65.5c2.66699 -16 7.66699 -32.333 15 -49s16.833 -31.667 28.5 -45
s25.167 -24.166 40.5 -32.499s32.666 -12.5 51.999 -12.5c18 0 34.667 4.16699 50 12.5s28.666 19.333 39.999 33s20.666 28.667 27.999 45s12.333 32.5 15 48.5zM272.001 695.002c30.667 0 58.168 -5.5 82.501 -16.5s45.666 -25.833 63.999 -44.5s33.5 -40.167 45.5 -64.5
s20.667 -49.833 26 -76.5c4 -21.333 6.83301 -45 8.5 -71s2.5 -51.333 2.5 -76c0 -11.333 -0.166992 -23.333 -0.5 -36s-0.833008 -25.667 -1.5 -39s-1.83398 -26.5 -3.50098 -39.5s-3.5 -24.833 -5.5 -35.5c-5.33301 -26.667 -14.166 -52.5 -26.499 -77.5
s-27.833 -47.167 -46.5 -66.5s-40.334 -34.833 -65.001 -46.5s-52 -17.5 -82 -17.5c-29.333 0 -56.333 6 -81 18s-46.5 27.833 -65.5 47.5s-34.667 42 -47 67s-20.833 50.5 -25.5 76.5c-4 21.333 -6.66699 46 -8 74s-2 53 -2 75c0 24 0.666992 48.667 2 74s4 48.333 8 69
c5.33301 28 14 54.333 26 79s27.333 46.5 46 65.5s40.334 34 65.001 45s52.667 16.5 84 16.5z" />
    <glyph glyph-name="one" unicode="1" horiz-adv-x="407" 
d="M26 77h146v493l-105 -97l-51 58l158 151h85v-605h139v-77h-372v77z" />
    <glyph glyph-name="two" unicode="2" horiz-adv-x="524" 
d="M56 573c19.333 40 45.666 70.333 78.999 91s75 31 125 31c24 0 47.833 -2.66699 71.5 -8s45.834 -15 66.501 -29c24.667 -17.333 42.667 -38.833 54 -64.5s17 -52.834 17 -81.501c0 -30.667 -5.66699 -60.667 -17 -90s-27.333 -54.333 -48 -75l-267 -263h342v-84h-438v56
c0 30.667 11 57 33 79l271 272c11.333 11.333 20.833 26.833 28.5 46.5s11.5 39.167 11.5 58.5c0 15.333 -2.66699 29.833 -8 43.5s-14.333 24.834 -27 33.501c-13.333 9.33301 -28.166 15.166 -44.499 17.499s-32.5 3.5 -48.5 3.5c-28 0 -52.833 -6.16699 -74.5 -18.5
s-38.834 -31.166 -51.501 -56.499z" />
    <glyph glyph-name="three" unicode="3" horiz-adv-x="494" 
d="M46 682l376.002 -0.000976562v-60c0 -25.333 -8.33301 -48.333 -25 -69l-122 -149c34 -5.33301 65.333 -16 94 -32s50.667 -40 66 -72c6 -12.667 10.5 -28.167 13.5 -46.5s4.5 -37.166 4.5 -56.499c0 -18.667 -1.33301 -36.5 -4 -53.5s-7.33398 -32.167 -14.001 -45.5
c-20.667 -41.333 -48.167 -70 -82.5 -86s-71.833 -24 -112.5 -24c-48.667 0 -91 11 -127 33c-36.667 23.333 -65.334 58 -86.001 104l77 34c14 -30.667 31.667 -52.667 53 -66c20.667 -13.333 48.334 -20 83.001 -20c22.667 0 45.167 4.33301 67.5 13s38.833 23.667 49.5 45
c4 8 7 18.167 9 30.5s3 25.166 3 38.499c0 12.667 -1 24.834 -3 36.501s-4.66699 21.167 -8 28.5c-6.66699 13.333 -15.834 24 -27.501 32s-24.5 14 -38.5 18s-28.667 6.66699 -44 8s-29.333 2 -42 2h-42v77l158 197h-276v83z" />
    <glyph glyph-name="four" unicode="4" horiz-adv-x="516" 
d="M320 0v175h-298v84l295 423h87v-427h92l-25 -80h-67v-175h-84zM320 255v284l-198 -284h198z" />
    <glyph glyph-name="five" unicode="5" horiz-adv-x="492" 
d="M113 159c13.333 -31.333 30.835 -53.4971 52.502 -66.4971s49.167 -19.5 82.5 -19.5c15.333 0 31 2.66699 47 8s29.667 13.333 41 24c8 7.33301 14.333 16 19 26s8.16699 20.833 10.5 32.5s3.83301 23.334 4.5 35.001s1 22.5 1 32.5s-0.333008 21 -1 33
s-2.16699 23.667 -4.5 35s-5.83301 22.166 -10.5 32.499s-11 19.166 -19 26.499c-11.333 10 -25 17.667 -41 23s-31.667 8 -47 8c-23.333 0 -44.833 -4.33301 -64.5 -13s-36.834 -22.667 -51.501 -42h-77l25 348h356v-83h-278l-10 -146c30 14 63.333 21 100 21
c26 0 51.5 -4.33301 76.5 -13s47.167 -21.667 66.5 -39c14 -12 25.167 -25.5 33.5 -40.5s14.666 -30.667 18.999 -47s7.33301 -33.333 9 -51s2.5 -35.167 2.5 -52.5c0 -34.667 -4 -68.834 -12 -102.501s-25.333 -62.834 -52 -87.501
c-19.333 -17.333 -41.5 -30.5 -66.5 -39.5s-50.5 -13.5 -76.5 -13.5c-50 0 -92.667 11.167 -128 33.5s-63.333 56.833 -84 103.5z" />
    <glyph glyph-name="six" unicode="6" horiz-adv-x="505" 
d="M264 -12c-56 0 -104.668 17.666 -146.001 52.999c-19.333 16 -34 35.667 -44 59s-17.5 48 -22.5 74s-7.83301 52.5 -8.5 79.5s-1 52.5 -1 76.5v27c0 45.333 3.5 88.5 10.5 129.5s23.833 81.5 50.5 121.5c20 30 46.5 52 79.5 66s66.833 21 101.5 21
c26 0 52.167 -4 78.5 -12s49.5 -20.667 69.5 -38l-55 -66c-12.667 11.333 -27.167 19.333 -43.5 24s-32.833 7 -49.5 7c-20 0 -40.5 -3.83301 -61.5 -11.5s-37.5 -20.5 -49.5 -38.5c-14 -20.667 -24 -42.334 -30 -65.001s-10 -46.667 -12 -72
c18.667 13.333 39.167 23.5 61.5 30.5s45.166 10.5 68.499 10.5c25.333 0 50.833 -3.5 76.5 -10.5s48.167 -19.167 67.5 -36.5c14 -12 25 -25.5 33 -40.5s14.333 -30.667 19 -47s7.66699 -33.166 9 -50.499s2 -34.666 2 -51.999c0 -34.667 -4 -69 -12 -103
s-25.333 -63 -52 -87c-19.333 -16.667 -41.166 -29 -65.499 -37s-49.166 -12 -74.499 -12zM265.999 380.999c-16 0 -32.167 -2.33008 -48.5 -6.99707s-30.833 -12.667 -43.5 -24c-16.667 -14.667 -28 -33.834 -34 -57.501s-9 -45.834 -9 -66.501
c0 -20 3.16699 -41.5 9.5 -64.5s17.5 -41.833 33.5 -56.5c12 -11.333 26 -19.5 42 -24.5s32 -7.5 48 -7.5c15.333 0 30.333 2.5 45 7.5s27.667 12.167 39 21.5c16.667 15.333 26.667 34.833 30 58.5s5 45.834 5 66.501c0 10 -0.166992 20.833 -0.5 32.5
s-1.5 23.167 -3.5 34.5s-5.33301 22.166 -10 32.499s-11 19.166 -19 26.499c-11.333 9.33301 -24.333 16.333 -39 21s-29.667 7 -45 7z" />
    <glyph glyph-name="seven" unicode="7" horiz-adv-x="468" 
d="M20 682l442 -0.000976562v-65c0 -30.667 -11 -57 -33 -79c-71.333 -71.333 -127 -152.166 -167 -242.499s-60 -187.5 -60 -291.5v-4h-84v4c0 116 22 222.5 66 319.5s110.333 188.833 199 275.5h-363v83z" />
    <glyph glyph-name="eight" unicode="8" horiz-adv-x="492" 
d="M247 73c38.667 0 72.001 13.999 100.001 41.999c11.333 11.333 18.333 24 21 38s4 28.667 4 44c0 25.333 -7 47.833 -21 67.5s-32.667 34.834 -56 45.501l-63 28c-14 -5.33301 -27.667 -12.5 -41 -21.5s-25.333 -19.833 -36 -32.5s-19.334 -26.334 -26.001 -41.001
s-10 -30 -10 -46c0 -15.333 1.33301 -30 4 -44s9.66699 -26.667 21 -38c13.333 -13.333 29 -23.666 47 -30.999s36.667 -11 56 -11zM246.001 -12.001c-30.667 0 -59.9971 5.66895 -87.9971 17.002s-52.667 27.666 -74 48.999c-20 20 -33.167 41.833 -39.5 65.5
s-9.5 49.5 -9.5 77.5c0 21.333 3.5 40.666 10.5 57.999s16.5 33 28.5 47s26 26.5 42 37.5s32.667 20.5 50 28.5c-34 15.333 -59.5 37.166 -76.5 65.499s-25.5 60.833 -25.5 97.5c0 15.333 1.83301 29.333 5.5 42s8.5 24 14.5 34c16 28 38.167 49.667 66.5 65
s60.5 23 96.5 23s68.5 -7.66699 97.5 -23s51.167 -37.666 66.5 -66.999c5.33301 -10 9.66602 -21 12.999 -33s5 -25.667 5 -41c0 -35.333 -8.83301 -64.333 -26.5 -87s-40.834 -43.667 -69.501 -63c37.333 -16.667 67.166 -41 89.499 -73s33.5 -68.333 33.5 -109
c0 -27.333 -3.33301 -53.5 -10 -78.5s-19.667 -47.167 -39 -66.5c-22 -22 -46.833 -38.5 -74.5 -49.5s-56.5 -16.5 -86.5 -16.5zM345.004 531.001c0 12.667 -3 24.0029 -9 34.0029s-13.667 18.333 -23 25s-19.833 11.667 -31.5 15s-23.167 5 -34.5 5
s-22.833 -1.83301 -34.5 -5.5s-22.167 -8.83398 -31.5 -15.501s-17 -14.834 -23 -24.501s-9 -20.834 -9 -33.501c0 -26 6.16699 -46.5 18.5 -61.5s28.5 -27.167 48.5 -36.5l48 -21c8 4 16.833 9.5 26.5 16.5s18.5 15.333 26.5 25s14.667 21 20 34s8 27.5 8 43.5z" />
    <glyph glyph-name="nine" unicode="9" horiz-adv-x="499" 
d="M35 461c0.666992 31.333 5.33691 61.1738 14.0039 89.5068s21.667 53.166 39 74.499s38.833 38.333 64.5 51s56.167 19 91.5 19c25.333 0 50.666 -4.33301 75.999 -13s47.666 -21.334 66.999 -38.001c17.333 -15.333 30.666 -33.5 39.999 -54.5s16.333 -43.5 21 -67.5
s7.33398 -48.5 8.00098 -73.5s1 -48.833 1 -71.5v-32c0 -49.333 -3.83301 -95.5 -11.5 -138.5s-20.5 -80.833 -38.5 -113.5s-41.667 -58.334 -71 -77.001s-65.333 -28 -108 -28c-30 0 -59.333 5 -88 15s-53.667 25.667 -75 47l61 59c26 -24 58.667 -36 98 -36
c27.333 0 50.5 6.66699 69.5 20s34.5 30.166 46.5 50.499s20.667 42.666 26 66.999s8 47.833 8 70.5c-18.667 -18.667 -39.834 -31.334 -63.501 -38.001s-47.167 -10 -70.5 -10c-34.667 0 -64.834 6 -90.501 18s-47 28.5 -64 49.5s-29.667 45.167 -38 72.5
s-12.5 56.666 -12.5 87.999zM240.003 315.008c22.667 0 42 3.83301 58 11.5s29 18.334 39 32.001s17.333 29.5 22 47.5s7 37.333 7 58s-2 40 -6 58s-10.833 33.5 -20.5 46.5s-22.334 23.167 -38.001 30.5s-35.167 11 -58.5 11s-42.833 -3.83301 -58.5 -11.5
s-28.167 -18 -37.5 -31s-16.166 -28.333 -20.499 -46s-6.5 -36.834 -6.5 -57.501c0 -20 1.83301 -39 5.5 -57s10 -33.833 19 -47.5s21.333 -24.5 37 -32.5s35.167 -12 58.5 -12z" />
    <glyph glyph-name="colon" unicode=":" horiz-adv-x="201" 
d="M100 504c15.333 0 28.166 -5 38.499 -15s15.5 -22.667 15.5 -38c0 -14.667 -5.16699 -27 -15.5 -37s-23.166 -15 -38.499 -15c-14.667 0 -27.167 5 -37.5 15s-15.5 22.333 -15.5 37c0 15.333 5.16699 28 15.5 38s22.833 15 37.5 15zM100 93
c15.333 0 28.166 -5 38.499 -15s15.5 -22.667 15.5 -38c0 -14.667 -5.16699 -27 -15.5 -37s-23.166 -15 -38.499 -15c-14.667 0 -27.167 5 -37.5 15s-15.5 22.333 -15.5 37c0 15.333 5.16699 28 15.5 38s22.833 15 37.5 15z" />
    <glyph glyph-name="semicolon" unicode=";" horiz-adv-x="180" 
d="M113 72c8.66699 -7.33301 15.499 -17.998 20.499 -31.998s7.5 -29.667 7.5 -47c0 -30 -9 -57.5 -27 -82.5s-40.333 -43.167 -67 -54.5l-21 33c16 5.33301 29.167 15.166 39.5 29.499s15.5 29.833 15.5 46.5c0 8 -1.33301 15.667 -4 23
c-13.333 0 -24.666 4.66699 -33.999 14s-14 20.666 -14 33.999s4.66699 24.833 14 34.5s21.333 14.5 36 14.5c12.667 0 24 -4.33301 34 -13zM78.999 504.002c15.333 0 28.166 -5 38.499 -15s15.5 -22.667 15.5 -38c0 -14.667 -5.16699 -27 -15.5 -37
s-23.166 -15 -38.499 -15c-14.667 0 -27.167 5 -37.5 15s-15.5 22.333 -15.5 37c0 15.333 5.16699 28 15.5 38s22.833 15 37.5 15z" />
    <glyph glyph-name="less" unicode="&#x3c;" horiz-adv-x="462" 
d="M432 476l-349 -134l349 -137v-85l-432 183v79l432 180v-86z" />
    <glyph glyph-name="equal" unicode="=" horiz-adv-x="586" 
d="M66 276l453 -0.000976562c4.66699 -16 7 -29 7 -39c0 -6 -0.666992 -12.167 -2 -18.5s-3 -13.166 -5 -20.499h-453c-4 14.667 -6 27.667 -6 39c0 6 0.5 12 1.5 18s2.5 13 4.5 21zM66 484.999l453 -0.000976562c2 -8 3.66699 -15.167 5 -21.5s2 -12.5 2 -18.5
s-0.666992 -12.167 -2 -18.5s-3 -13.166 -5 -20.499h-453c-4 14.667 -6 27.667 -6 39c0 10.667 2 24 6 40z" />
    <glyph glyph-name="greater" unicode="&#x3e;" horiz-adv-x="492" 
d="M60 562l432 -180v-79l-432 -183v85l349 137l-349 134v86z" />
    <glyph glyph-name="question" unicode="?" horiz-adv-x="423" 
d="M179 85c14 0 25.833 -4.83301 35.5 -14.5s14.5 -21.167 14.5 -34.5s-4.83301 -24.666 -14.5 -33.999s-21.5 -14 -35.5 -14c-13.333 0 -24.833 4.66699 -34.5 14s-14.5 20.666 -14.5 33.999s4.83301 24.833 14.5 34.5s21.167 14.5 34.5 14.5zM9 645
c24 21.333 52.168 37.165 84.501 47.498s63.833 15.5 94.5 15.5c28 0 54.5 -4 79.5 -12s46.833 -19.667 65.5 -35s33.334 -34.333 44.001 -57s16 -48.667 16 -78c0 -18 -2 -33.667 -6 -47s-9.16699 -25.5 -15.5 -36.5s-14 -21.333 -23 -31l-28.5 -29.5l-16 -16
c-10 -10 -20.5 -21.167 -31.5 -33.5s-21 -26.666 -30 -42.999s-16.5 -35.5 -22.5 -57.5s-9 -47.667 -9 -77h-64c0 42 3.33301 77.833 10 107.5s15.167 55.167 25.5 76.5s22.166 39.333 35.499 54s27 28.667 41 42c14.667 14 27.167 27.833 37.5 41.5s15.5 30.167 15.5 49.5
c0 18 -3.33301 33.5 -10 46.5s-15.667 23.833 -27 32.5s-24.5 15 -39.5 19s-30.833 6 -47.5 6c-22 0 -44.333 -4.16699 -67 -12.5s-43.334 -20.166 -62.001 -35.499z" />
    <glyph glyph-name="at" unicode="@" horiz-adv-x="963" 
d="M560 259l-158.997 -34.999c-16.667 -4 -31.167 -11.667 -43.5 -23s-18.5 -26.333 -18.5 -45c0 -21.333 7.66699 -36.666 23 -45.999s31.666 -14 48.999 -14c11.333 0 22.666 3.16699 33.999 9.5s22.833 13.166 34.5 20.499s24.167 14.166 37.5 20.499
s27.666 9.5 42.999 9.5v103zM823.003 -81.999c-44 -42.667 -94.001 -73.9971 -150.001 -93.9971s-114.667 -30 -176 -30c-64 0 -124 11.667 -180 35s-104.833 55.166 -146.5 95.499s-74.667 88 -99 143s-36.5 114.5 -36.5 178.5s12.167 124 36.5 180
s57.333 104.833 99 146.5s90.5 74.667 146.5 99s116 36.5 180 36.5c56.667 0 112.667 -8.83301 168 -26.5s104 -45.834 146 -84.501c22 -20.667 40.5 -42.5 55.5 -65.5s27 -46.5 36 -70.5s15.5 -48.167 19.5 -72.5s6 -47.833 6 -70.5c0 -38 -5.66699 -74.667 -17 -110
c-8.66699 -26.667 -20.167 -50.834 -34.5 -72.501s-30.666 -40 -48.999 -55s-38.333 -26.5 -60 -34.5s-44.167 -12 -67.5 -12s-46.666 4.83301 -69.999 14.5s-46.666 24.5 -69.999 44.5c-12.667 0 -24.167 -3 -34.5 -9s-21.333 -12.833 -33 -20.5
s-24.834 -14.5 -39.501 -20.5s-32.334 -9 -53.001 -9c-19.333 0 -37.166 2.66699 -53.499 8s-30.833 13.166 -43.5 23.499s-22.5 23 -29.5 38s-10.5 32.5 -10.5 52.5c0 36 11.667 64.833 35 86.5s54 35.834 92 42.501l170 30v18c0 29.333 -9.66699 51.333 -29 66
s-44.333 22 -75 22c-26.667 0 -48.5 -6.5 -65.5 -19.5s-29.833 -31.167 -38.5 -54.5l-72 16c12.667 38.667 34.834 68 66.501 88s68.167 30 109.5 30c23.333 0 45.666 -3.16699 66.999 -9.5s40.166 -16 56.499 -29s29.333 -29 39 -48s14.5 -41.167 14.5 -66.5v-188
c24 -18.667 46.333 -28 67 -28c16.667 0 32 3.16699 46 9.5s26.5 15 37.5 26s20.833 23.667 29.5 38s15.667 29.833 21 46.5c8.66699 25.333 13 53.666 13 84.999c0 18 -1.33301 36.667 -4 56s-7.5 38.5 -14.5 57.5s-16.333 37.667 -28 56s-26.5 35.5 -44.5 51.5
c-34 31.333 -74 54 -120 68s-92.333 21 -139 21c-52.667 0 -102.167 -10 -148.5 -30s-86.666 -47.333 -120.999 -82s-61.5 -75 -81.5 -121s-30 -95.333 -30 -148s10 -101.667 30 -147s47.167 -84.666 81.5 -117.999s74.666 -59.5 120.999 -78.5s95.833 -28.5 148.5 -28.5
c50.667 0 99.167 8 145.5 24s87.5 42 123.5 78z" />
    <glyph glyph-name="A" unicode="A" horiz-adv-x="677" 
d="M217 285h240l-95 244l-28 101l-27 -101zM191 210l-77 -210h-96l259 695h112l272 -695h-94l-81 210h-295z" />
    <glyph glyph-name="B" unicode="B" horiz-adv-x="621" 
d="M317 403c16 0 31.834 2.33301 47.501 7s29.667 11.5 42 20.5s22.166 20.5 29.499 34.5s11 30.667 11 50c0 38 -9.5 63.833 -28.5 77.5s-44.5 20.5 -76.5 20.5h-192v-210h167zM150.001 321v-238.999h214c19.333 0 36.5 1.66699 51.5 5s27.833 9.33301 38.5 18
s18.667 20.667 24 36s8 34.666 8 57.999c0 40 -11.333 70.333 -34 91s-54 31 -94 31h-208zM473.001 369.001c33.333 -16.667 60.166 -38.498 80.499 -65.498s30.5 -62.167 30.5 -105.5c0 -35.333 -6.16699 -65.5 -18.5 -90.5s-29 -45.5 -50 -61.5s-45.333 -27.667 -73 -35
s-57.167 -11 -88.5 -11h-294v695h279c28.667 0 55.334 -3.33301 80.001 -10s46 -17.334 64 -32.001s32.167 -33.334 42.5 -56.001s15.5 -50 15.5 -82c0 -58 -22.667 -104.667 -68 -140v-6z" />
    <glyph glyph-name="C" unicode="C" horiz-adv-x="622" 
d="M141 350c0 -33.333 2.16602 -66.502 6.49902 -99.502s14 -63 29 -90s37 -48.833 66 -65.5s68.5 -25 118.5 -25c30 0 58.833 5.5 86.5 16.5s52.167 27.833 73.5 50.5l63 -59c-29.333 -31.333 -63.333 -54.166 -102 -68.499s-79 -21.5 -121 -21.5
c-59.333 0 -109 9.16699 -149 27.5s-72.167 43.5 -96.5 75.5s-41.833 70 -52.5 114s-16 91.667 -16 143v37c0 50.667 6.5 95.834 19.5 135.501s32.5 73.334 58.5 101.001s58.667 48.834 98 63.501s85.333 22 138 22c40.667 0 80.5 -6.83301 119.5 -20.5
s72.833 -35.167 101.5 -64.5l-61 -61c-20.667 21.333 -45.167 37.166 -73.5 47.499s-57.166 15.5 -86.499 15.5c-44 0 -80.167 -7.16699 -108.5 -21.5s-50.833 -33 -67.5 -56s-28.167 -48.833 -34.5 -77.5s-9.5 -57.334 -9.5 -86.001v-33z" />
    <glyph glyph-name="D" unicode="D" horiz-adv-x="688" 
d="M370 0h-305.999v695h304c49.333 0 91 -9.33301 125 -28s61.667 -44 83 -76s36.833 -69 46.5 -111s14.5 -86.333 14.5 -133c0 -50 -4.33301 -96.167 -13 -138.5s-23.334 -79 -44.001 -110s-48.167 -55.167 -82.5 -72.5s-76.833 -26 -127.5 -26zM154.001 82h203.999
c36.667 0 66.834 6.66699 90.501 20s42.167 31.833 55.5 55.5s22.5 51.667 27.5 84s7.5 67.5 7.5 105.5c0 36.667 -3 71.167 -9 103.5s-16 60.5 -30 84.5s-32.667 43 -56 57s-52.333 21 -87 21h-203v-531z" />
    <glyph glyph-name="E" unicode="E" horiz-adv-x="582" 
d="M557 0h-497v695h500l-26 -82h-384v-203h344v-83h-344v-245h407v-82z" />
    <glyph glyph-name="F" unicode="F" horiz-adv-x="531" 
d="M60 0v695h471l-26 -82h-355v-203h330v-83h-330v-327h-90z" />
    <glyph glyph-name="G" unicode="G" horiz-adv-x="647" 
d="M525 559c-8 11.333 -18.1689 21.1719 -30.502 29.5049s-25.666 15.166 -39.999 20.499s-29.333 9.16602 -45 11.499s-30.834 3.5 -45.501 3.5c-36 0 -69 -5.83301 -99 -17.5s-57 -30.834 -81 -57.501c-26 -28 -42 -57.833 -48 -89.5s-9 -65.834 -9 -102.501v-25
c0 -36.667 4 -70.167 12 -100.5s24.667 -59.833 50 -88.5c12 -13.333 26.167 -24.666 42.5 -33.999s33.5 -16.833 51.5 -22.5s36.333 -9.83398 55 -12.501s37 -4 55 -4s38.5 3.16699 61.5 9.5s42.833 13.166 59.5 20.499v177h-150v84h236v-312
c-32 -17.333 -66.167 -31.833 -102.5 -43.5s-73.166 -17.5 -110.499 -17.5c-24 0 -48.167 1.83301 -72.5 5.5s-48.166 9.66699 -71.499 18s-45.5 18.833 -66.5 31.5s-39.5 28 -55.5 46c-33.333 36.667 -55.666 74.834 -66.999 114.501s-17 83.5 -17 131.5v23
c0 23.333 0.666992 45.666 2 66.999s4.5 42.166 9.5 62.499s12.833 40.5 23.5 60.5s25.334 40 44.001 60c33.333 36 71.166 61.5 113.499 76.5s87.166 22.5 134.499 22.5c42 0 82.167 -7.16699 120.5 -21.5s72.5 -39.166 102.5 -74.499z" />
    <glyph glyph-name="H" unicode="H" horiz-adv-x="667" 
d="M150 327v-327h-90v695h90v-285h366v285h90v-695h-90v327h-366z" />
    <glyph glyph-name="I" unicode="I" horiz-adv-x="227" 
d="M160 695v-695h-90v695h90z" />
    <glyph glyph-name="J" unicode="J" horiz-adv-x="475" 
d="M217 -12c-32 0 -59.334 5.16699 -82.001 15.5s-41.167 24.333 -55.5 42s-24.833 38.167 -31.5 61.5s-10 48.333 -10 75h88c0 -16 1.33301 -30.833 4 -44.5s7.33398 -25.5 14.001 -35.5s16 -17.833 28 -23.5s27.333 -8.5 46 -8.5c41.333 0 70 10.667 86 32s24 51 24 89
v504h92v-504c0 -65.333 -17.167 -115.5 -51.5 -150.5s-84.833 -52.5 -151.5 -52.5z" />
    <glyph glyph-name="K" unicode="K" horiz-adv-x="575" 
d="M150 695v-304h70l199 304h103l-216 -337l258 -358h-108l-234 325h-72v-325h-90v695h90z" />
    <glyph glyph-name="L" unicode="L" horiz-adv-x="512" 
d="M150 695v-613h343l-25 -82h-408v695h90z" />
    <glyph glyph-name="M" unicode="M" horiz-adv-x="791" 
d="M62 0v695h141l197 -492l204 492h126v-695h-90v581l-200 -499h-86l-202 511v-593h-90z" />
    <glyph glyph-name="N" unicode="N" horiz-adv-x="673" 
d="M60 0v695h115l347 -558v558h90v-695h-110l-352 569v-569h-90z" />
    <glyph glyph-name="O" unicode="O" horiz-adv-x="732" 
d="M366 -12c-58 0 -107.667 9.33301 -149 28s-75 44.167 -101 76.5s-45.167 70.5 -57.5 114.5s-18.5 91 -18.5 141v27c0 47.333 7.5 91.333 22.5 132s36.5 75.834 64.5 105.501s62.167 52.834 102.5 69.501s85.833 25 136.5 25s96.167 -8.33301 136.5 -25
s74.5 -39.834 102.5 -69.501s49.5 -64.834 64.5 -105.501s22.5 -84.667 22.5 -132v-27c0 -50 -6.16699 -97 -18.5 -141s-31.5 -82.167 -57.5 -114.5s-59.667 -57.833 -101 -76.5s-91 -28 -149 -28zM366 624c-37.333 0 -70.332 -6.66602 -98.999 -19.999
s-52.834 -31.333 -72.501 -54s-34.667 -49.334 -45 -80.001s-15.5 -63 -15.5 -97v-23c0 -38 4.5 -73.833 13.5 -107.5s22.833 -63.334 41.5 -89.001s42.5 -46 71.5 -61s63.5 -22.5 103.5 -22.5c41.333 0 76.833 7.16699 106.5 21.5s54 34 73 59s32.833 54.5 41.5 88.5
s13 71 13 111v23c0 34 -5.16699 66.333 -15.5 97s-25.333 57.334 -45 80.001s-44 40.667 -73 54s-61.833 20 -98.5 20z" />
    <glyph glyph-name="P" unicode="P" horiz-adv-x="617" 
d="M60 0l-0.000976562 694.999h321c33.333 0 62.666 -5.5 87.999 -16.5s46.333 -26 63 -45s29.167 -41.833 37.5 -68.5s12.5 -55.334 12.5 -86.001c0 -31.333 -3.83301 -60.166 -11.5 -86.499s-19.667 -49.166 -36 -68.499s-37.166 -34.5 -62.499 -45.5
s-55.666 -16.5 -90.999 -16.5h-231v-262h-90zM149.999 612.999v-268h215c45.333 0 77.833 12.5 97.5 37.5s29.5 57.167 29.5 96.5c0 38.667 -10.833 70.667 -32.5 96s-53.167 38 -94.5 38h-215z" />
    <glyph glyph-name="Q" unicode="Q" horiz-adv-x="722" 
d="M156 -29c44 0 80.4971 -2.16797 109.497 -6.50098s54.5 -9.83301 76.5 -16.5s42.667 -14 62 -22s41.166 -15.333 65.499 -22s53.333 -12.167 87 -16.5s75.834 -6.5 126.501 -6.5v-75c-50 0 -91.667 2 -125 6s-62.166 9.16699 -86.499 15.5s-46.333 13.333 -66 21
s-40.667 14.834 -63 21.501s-48.166 12.5 -77.499 17.5s-65.666 8.16699 -108.999 9.5v74zM354.997 -12.001c-58 0 -107.667 9.33301 -149 28s-75 44.167 -101 76.5s-45.167 70.5 -57.5 114.5s-18.5 91 -18.5 141v27c0 47.333 7.5 91.333 22.5 132s36.5 75.834 64.5 105.501
s62.167 52.834 102.5 69.501s85.833 25 136.5 25s96.167 -8.33301 136.5 -25s74.5 -39.834 102.5 -69.501s49.5 -64.834 64.5 -105.501s22.5 -84.667 22.5 -132v-27c0 -50 -6.16699 -97 -18.5 -141s-31.5 -82.167 -57.5 -114.5s-59.667 -57.833 -101 -76.5s-91 -28 -149 -28
zM354.997 623.999c-37.333 0 -70.332 -6.66602 -98.999 -19.999s-52.834 -31.333 -72.501 -54s-34.667 -49.334 -45 -80.001s-15.5 -63 -15.5 -97v-23c0 -38 4.5 -73.833 13.5 -107.5s22.833 -63.334 41.5 -89.001s42.5 -46 71.5 -61s63.5 -22.5 103.5 -22.5
c41.333 0 76.833 7.16699 106.5 21.5s54 34 73 59s32.833 54.5 41.5 88.5s13 71 13 111v23c0 34 -5.16699 66.333 -15.5 97s-25.333 57.334 -45 80.001s-44 40.667 -73 54s-61.833 20 -98.5 20z" />
    <glyph glyph-name="R" unicode="R" horiz-adv-x="652" 
d="M292 270c-7.33301 9.33301 -16.666 15.999 -27.999 19.999s-22.666 6 -33.999 6h-80v-296h-90v695h316c29.333 0 56.333 -4.5 81 -13.5s45.834 -22 63.501 -39s31.5 -37.5 41.5 -61.5s15 -51 15 -81c0 -59.333 -16.833 -107.166 -50.5 -143.499
s-80.834 -56.166 -141.501 -59.499l161 -202c12 -15.333 22.667 -24.5 32 -27.5s21 -4.5 35 -4.5v-63c-7.33301 -4 -15.833 -7 -25.5 -9s-17.834 -3 -24.501 -3c-19.333 0 -36.833 6.66699 -52.5 20s-29.834 27.666 -42.501 42.999zM150 376.999h210
c43.333 0 75.333 10 96 30s31 51 31 93c0 38.667 -9.83301 67.167 -29.5 85.5s-48.167 27.5 -85.5 27.5h-222v-236z" />
    <glyph glyph-name="S" unicode="S" horiz-adv-x="595" 
d="M57 519c0 34 7.33203 63.001 21.999 87.001s33.834 43.5 57.501 58.5s50.5 25.833 80.5 32.5s60 10 90 10c42.667 0 83.5 -8.5 122.5 -25.5s72.5 -41.5 100.5 -73.5l-65 -58c-21.333 25.333 -46.333 44 -75 56s-60 18 -94 18c-16.667 0 -33.667 -2 -51 -6
s-33 -10.333 -47 -19s-25.5 -19.334 -34.5 -32.001s-13.5 -27.334 -13.5 -44.001c0 -31.333 9.83301 -55.166 29.5 -71.499s44.5 -29.333 74.5 -39s62.167 -18.5 96.5 -26.5s66.5 -19.167 96.5 -33.5s54.833 -34.166 74.5 -59.499s29.5 -60.333 29.5 -105
c0 -36 -8.33301 -66.667 -25 -92s-38 -46 -64 -62s-54.833 -27.667 -86.5 -35s-62.167 -11 -91.5 -11c-56.667 0 -106.667 12.833 -150 38.5s-78 63.167 -104 112.5l78 41c20.667 -38 45.334 -65.833 74.001 -83.5s63 -26.5 103 -26.5c17.333 0 36.166 1.66699 56.499 5
s39.333 9.33301 57 18s32.5 20.667 44.5 36s18 35 18 59c0 29.333 -10 51.833 -30 67.5s-45 28.5 -75 38.5s-62.333 19.167 -97 27.5s-67 19.833 -97 34.5s-55 34.667 -75 60s-30 59.666 -30 102.999z" />
    <glyph glyph-name="T" unicode="T" horiz-adv-x="570" 
d="M331 613v-613h-90v613h-232v82h553l-26 -82h-205z" />
    <glyph glyph-name="U" unicode="U" horiz-adv-x="670" 
d="M158 695v-400.002c0 -36 2 -67.833 6 -95.5s12.5 -51.167 25.5 -70.5s31.5 -34 55.5 -44s56 -15 96 -15c38.667 0 70 5.16699 94 15.5s42.667 25.333 56 45s22.166 43.334 26.499 71.001s6.5 58.834 6.5 93.501v400h90v-396c0 -48 -4.33301 -91.167 -13 -129.5
s-23.5 -71 -44.5 -98s-49 -47.667 -84 -62s-78.833 -21.5 -131.5 -21.5c-53.333 0 -97.666 7 -132.999 21s-63.333 34.167 -84 60.5s-35.167 58.833 -43.5 97.5s-12.5 82.667 -12.5 132v396h90z" />
    <glyph glyph-name="V" unicode="V" horiz-adv-x="664" 
d="M105 707l189 -493l37 -115l37 115l192 493l87 -24l-263 -683h-104l-263 683z" />
    <glyph glyph-name="W" unicode="W" horiz-adv-x="963" 
d="M543 614l146 -472l150 565l88 -24l-181 -683h-109l-139 446l-17 80l-17 -80l-139 -446h-109l-181 683l88 24l150 -565l146 472h124z" />
    <glyph glyph-name="X" unicode="X" horiz-adv-x="682" 
d="M310 246l-180 -246h-110l269 361l-226 322l89 24l137 -191l55 -89l56 89l136 191l89 -24l-226 -322l269 -361h-110l-180 246l-34 54z" />
    <glyph glyph-name="Y" unicode="Y" horiz-adv-x="617" 
d="M605 683l-229.999 -359c-4.66699 -6.66699 -11.334 -10 -20.001 -10v-314h-93v314c-8 0 -14.667 3.33301 -20 10l-230 359l89 24l198 -313h20l197 313z" />
    <glyph glyph-name="Z" unicode="Z" horiz-adv-x="611" 
d="M83 695h491v-43c0 -14 -2.5 -27 -7.5 -39s-11.833 -23.333 -20.5 -34l-362 -447l-46 -50h447v-82h-551v46c0 28 9.33301 52.333 28 73l329 412l73 82h-406z" />
    <glyph glyph-name="bracketleft" unicode="[" horiz-adv-x="256" 
d="M244 623h-104v-746h104v-71h-184v889h184v-72z" />
    <glyph glyph-name="backslash" unicode="\" horiz-adv-x="274" 
d="M1 708h70l202 -720h-71z" />
    <glyph glyph-name="bracketright" unicode="]" horiz-adv-x="258" 
d="M11 695h184v-889h-184v71h103v746h-103v72z" />
    <glyph glyph-name="asciicircum" unicode="^" horiz-adv-x="433" 
d="M17 328l167 380h65l167 -380h-84l-116 290l-112 -290h-87z" />
    <glyph glyph-name="underscore" unicode="_" horiz-adv-x="699" 
d="M64 -132l571 0.00195312c2.66699 -10.667 4 -21 4 -31s-1.33301 -20.333 -4 -31h-571c-3.33301 13.333 -5 23.666 -5 30.999s1.66699 17.666 5 30.999z" />
    <glyph glyph-name="grave" unicode="`" horiz-adv-x="181" 
d="M98 737l-85 110l1 13h77l76 -123h-69z" />
    <glyph glyph-name="a" unicode="a" horiz-adv-x="539" 
d="M213 62c12 0 25.835 2.5 41.502 7.5s31.667 11.333 48 19s32 15.5 47 23.5l38.5 21v87h-187c-10.667 0 -20.667 -2.16699 -30 -6.5s-17.333 -10 -24 -17s-12 -15.333 -16 -25s-6 -19.5 -6 -29.5c0 -12 2.5 -22.833 7.5 -32.5s11.667 -18 20 -25
s17.666 -12.5 27.999 -16.5s21.166 -6 32.499 -6zM272.002 516c28 0 54.1699 -3.99805 78.5029 -11.998s45.666 -19.667 63.999 -35s32.833 -34.333 43.5 -57s16 -49 16 -79v-218c0 -23.333 2.16699 -43.333 6.5 -60s11.833 -35 22.5 -55h-92
c-5.33301 7.33301 -9.5 16.666 -12.5 27.999s-4.83301 21.666 -5.5 30.999c-27.333 -20 -57.5 -36.833 -90.5 -50.5s-66.5 -20.5 -100.5 -20.5c-22.667 0 -43.834 3.66699 -63.501 11s-36.834 17.833 -51.501 31.5s-26.167 30 -34.5 49s-12.5 40.167 -12.5 63.5
c0 22 4.33301 42.167 13 60.5s20.334 34.166 35.001 47.499s31.667 23.666 51 30.999s39.666 11 60.999 11h188v46c0 36 -10.833 62.167 -32.5 78.5s-49.5 24.833 -83.5 25.5c-30.667 0 -57 -3.66699 -79 -11s-46 -18.666 -72 -33.999l-37 64
c16 9.33301 31.167 17.333 45.5 24s29 12.334 44 17.001s30.5 8 46.5 10s33.333 3 52 3z" />
    <glyph glyph-name="b" unicode="b" horiz-adv-x="526" 
d="M145 319l0.000976562 -238c14.667 -6.66699 30.667 -11.5 48 -14.5s34.666 -4.5 51.999 -4.5c14.667 0 28.834 1 42.501 3s26.5 5.66699 38.5 11c14.667 6 27 14.5 37 25.5s17.667 23.5 23 37.5s9.16602 28.833 11.499 44.5s3.5 30.834 3.5 45.501v34
c0 22 -1.16699 41.667 -3.5 59s-6.5 32.666 -12.5 45.999c-8 18 -20.5 33.167 -37.5 45.5s-36.167 18.5 -57.5 18.5c-20 0 -38.167 -3 -54.5 -9s-30.5 -14.167 -42.5 -24.5s-22 -22.333 -30 -36s-14 -28.167 -18 -43.5zM146.001 438l6 0.00195312
c20.667 25.333 42.667 43 66 53s47.333 15 72 15c32 0 63.167 -8.66699 93.5 -26s54.5 -42 72.5 -74c12.667 -22 21 -45.167 25 -69.5s6 -50.833 6 -79.5v-23c0 -84.667 -20 -146.834 -60 -186.501s-101 -59.5 -183 -59.5c-34 0 -66.667 3.16699 -98 9.5
s-60.333 15.166 -87 26.499v659l86 24z" />
    <glyph glyph-name="c" unicode="c" horiz-adv-x="494" 
d="M290 516c30 0 59.667 -5.33691 89 -16.0039s54.666 -26.667 75.999 -48l-53 -52c-14.667 12.667 -30.834 22.834 -48.501 30.501s-40.167 11.5 -67.5 11.5c-22.667 0 -43.667 -3.83301 -63 -11.5s-36 -19.167 -50 -34.5c-14.667 -16 -25.667 -35.333 -33 -58
s-11 -45.667 -11 -69v-16c0 -29.333 4 -57.5 12 -84.5s21.333 -49.5 40 -67.5c12.667 -12 27.5 -21.5 44.5 -28.5s37.167 -10.5 60.5 -10.5c20 0 41.167 3.33301 63.5 10s40.166 18 53.499 34l53 -51c-22 -23.333 -47.833 -40.333 -77.5 -51s-60.5 -16 -92.5 -16
c-26.667 0 -54.5 4 -83.5 12s-54.167 20.667 -75.5 38c-18 14.667 -32.833 31.5 -44.5 50.5s-20.167 41.167 -25.5 66.5c-3.33301 16 -5.5 32 -6.5 48s-1.5 32 -1.5 48v19c0 16 0.5 31.333 1.5 46s3.33301 28.834 7 42.501s9 27.334 16 41.001s16.833 27.834 29.5 42.501
c10.667 12.667 23.334 23.667 38.001 33s30.334 17 47.001 23s33.834 10.5 51.501 13.5s34.5 4.5 50.5 4.5z" />
    <glyph glyph-name="d" unicode="d" horiz-adv-x="534" 
d="M390 419c-12.667 7.33301 -28.3311 12.999 -46.998 16.999s-37.667 6 -57 6c-50 0 -88.667 -15.5 -116 -46.5s-41 -73.5 -41 -127.5v-60c0 -19.333 2 -37.666 6 -54.999s10.667 -32.833 20 -46.5s21.166 -24.5 35.499 -32.5s32.166 -12 53.499 -12
c19.333 0 42 6.16699 68 18.5s52 32.833 78 61.5v277zM390.003 682.999l85.999 24v-592c0 -24.667 2.33301 -45.167 7 -61.5s12 -34.166 22 -53.499h-92c-4.66699 6.66699 -8.66699 15.834 -12 27.501s-5.33301 22.167 -6 31.5c-13.333 -13.333 -28 -25.333 -44 -36
c-13.333 -9.33301 -29.333 -17.5 -48 -24.5s-38.334 -10.5 -59.001 -10.5c-36 0 -66.667 6 -92 18s-46.166 28.167 -62.499 48.5s-28.166 44.166 -35.499 71.499s-11 56.333 -11 87v48c0 85.333 21 149.166 63 191.499s104.667 63.5 188 63.5
c31.333 0 63.333 -6.33301 96 -19v186z" />
    <glyph glyph-name="e" unicode="e" horiz-adv-x="547" 
d="M133 230c0 -58.667 13.501 -101.334 40.501 -128.001s67.833 -40 122.5 -40c26.667 0 49.334 5.5 68.001 16.5s35.334 26.167 50.001 45.5l76 -31c-19.333 -32.667 -46.333 -58.334 -81 -77.001s-74 -28 -118 -28c-44.667 0 -82.5 6.16699 -113.5 18.5
s-56.167 29.666 -75.5 51.999s-33.333 49.333 -42 81s-13 66.834 -13 105.501v11c0 16.667 0.333008 32.834 1 48.501s2.66699 31.167 6 46.5s8.66602 30.5 15.999 45.5s17.666 29.833 30.999 44.5c22.667 25.333 49.667 44.166 81 56.499s63.666 18.5 96.999 18.5
c37.333 0 70.5 -6 99.5 -18s53.333 -28.667 73 -50s34.5 -46.666 44.5 -75.999s15 -61.666 15 -96.999v-45h-378zM133.001 300l292.001 -0.000976562v9c0 16.667 -3.33301 33 -10 49s-16.334 30.167 -29.001 42.5s-28 22.333 -46 30s-38.333 11.5 -61 11.5
c-21.333 0 -41 -3.66699 -59 -11s-33.5 -17.166 -46.5 -29.499s-23 -26.5 -30 -42.5s-10.5 -32.667 -10.5 -50v-9z" />
    <glyph glyph-name="f" unicode="f" horiz-adv-x="296" 
d="M81 572c0 18.667 3.33105 36.333 9.99805 53s15.834 31 27.501 43s25.334 21.5 41.001 28.5s32.5 10.5 50.5 10.5c9.33301 0 20.5 -1 33.5 -3s25.167 -5 36.5 -9v-63h-51c-41.333 0 -62 -20 -62 -60v-68h108l-21 -67h-87v-437h-86v437h-63v67h63v68z" />
    <glyph glyph-name="g" unicode="g" horiz-adv-x="533" 
d="M246 74c19.333 0 41.333 6.16602 66 18.499s50 32.833 76 61.5v273c-14 4.66699 -29.167 8.33398 -45.5 11.001s-32.833 4 -49.5 4c-58 0 -99.333 -13.667 -124 -41s-37 -68 -37 -122v-67c0 -50 10 -85.5 30 -106.5s48 -31.5 84 -31.5zM388 65.999
c-4 -4 -10.334 -9.6709 -19.001 -17.0039s-19.167 -14.666 -31.5 -21.999s-26.166 -13.666 -41.499 -18.999s-32 -8 -50 -8c-28.667 0 -55.167 4 -79.5 12s-45.5 20.667 -63.5 38s-32 39.833 -42 67.5s-15 61.167 -15 100.5v52c0 84.667 20.333 146.834 61 186.501
s102 59.5 184 59.5c33.333 0 65.5 -3.16699 96.5 -9.5s59.833 -15.166 86.5 -26.499v-462c0 -32 -5.33301 -61.667 -16 -89s-25.667 -51 -45 -71s-42.666 -35.667 -69.999 -47s-58 -17 -92 -17c-37.333 0 -70.333 4.33301 -99 13s-59 22.334 -91 41.001l41 71
c25.333 -15.333 49.333 -26.5 72 -33.5s49 -10.5 79 -10.5c43.333 0 76.666 13.167 99.999 39.5s35 60.166 35 101.499v50z" />
    <glyph glyph-name="h" unicode="h" horiz-adv-x="517" 
d="M289 504c28 0 53.333 -4.66602 76 -13.999s42.167 -22.666 58.5 -39.999s28.5 -37.5 36.5 -60.5s12 -47.833 12 -74.5v-315h-86v312c0 36 -8.66699 64.667 -26 86s-42 32 -74 32c-40.667 0 -72.167 -10.167 -94.5 -30.5s-37.5 -45.833 -45.5 -76.5v-323h-86v683l86 24
v-265c20.667 23.333 44.167 39.666 70.5 48.999s50.5 13.666 72.5 12.999z" />
    <glyph glyph-name="i" unicode="i" horiz-adv-x="204" 
d="M65 0v504h86v-504h-86zM107 707c13.333 0 24.666 -4.5 33.999 -13.5s14 -20.167 14 -33.5s-4.66699 -24.5 -14 -33.5s-20.666 -13.5 -33.999 -13.5s-24.666 4.5 -33.999 13.5s-14 20.167 -14 33.5s4.66699 24.5 14 33.5s20.666 13.5 33.999 13.5z" />
    <glyph glyph-name="j" unicode="j" horiz-adv-x="208" 
d="M63 504l86 -0.000976562v-575c0 -19.333 -3.33301 -37.166 -10 -53.499s-16 -30.5 -28 -42.5s-25.833 -21.5 -41.5 -28.5s-32.5 -10.5 -50.5 -10.5c-9.33301 0 -21 1 -35 3s-26.667 5 -38 9v63h55c41.333 0 62 20 62 60v575zM105 706.999
c13.333 0 24.666 -4.5 33.999 -13.5s14 -20.167 14 -33.5s-4.66699 -24.5 -14 -33.5s-20.666 -13.5 -33.999 -13.5s-24.666 4.5 -33.999 13.5s-14 20.167 -14 33.5s4.66699 24.5 14 33.5s20.666 13.5 33.999 13.5z" />
    <glyph glyph-name="k" unicode="k" horiz-adv-x="459" 
d="M146 707v-419.001h52l154 216h88l-170 -245l124 -171c6.66699 -9.33301 15.667 -16 27 -20s23.333 -6 36 -6v-62c-16 -8 -30 -12 -42 -12c-16.667 0 -32 6.33301 -46 19s-27 27.334 -39 44.001l-133 180h-51v-231h-86v683z" />
    <glyph glyph-name="l" unicode="l" horiz-adv-x="255" 
d="M55 683l86.002 24.001v-585c0 -40 20.667 -60 62 -60h51v-62c-11.333 -4 -23.5 -7 -36.5 -9s-24.167 -3 -33.5 -3c-18 0 -34.833 3.5 -50.5 10.5s-29.334 16.5 -41.001 28.5s-20.834 26.167 -27.501 42.5s-10 34.166 -10 53.499v560z" />
    <glyph glyph-name="m" unicode="m" horiz-adv-x="817" 
d="M161 457c6.66699 8 14.833 15.498 24.5 22.498s19.834 13.167 30.501 18.5s21.5 9.66602 32.5 12.999s21.833 5 32.5 5c28.667 0 55.5 -4.66699 80.5 -14s47.167 -27.666 66.5 -54.999c26.667 24 51.5 41.5 74.5 52.5s49.5 16.5 79.5 16.5
c56.667 0 100.5 -16.5 131.5 -49.5s46.5 -76.167 46.5 -129.5v-337h-86v338c0 69.333 -32.667 104 -98 104c-13.333 0 -25.833 -1.66699 -37.5 -5s-22.5 -7.5 -32.5 -12.5s-18.833 -10.5 -26.5 -16.5s-13.834 -11.333 -18.501 -16v-392h-86v360
c0 25.333 -8.5 45.333 -25.5 60s-40.5 22 -70.5 22s-54.833 -5.83301 -74.5 -17.5s-34.167 -22.5 -43.5 -32.5v-392h-86v380c0 35.333 -7.66699 68.333 -23 99l79 37c5.33301 -9.33301 10 -18.666 14 -27.999s7.33301 -19.666 10 -30.999h6z" />
    <glyph glyph-name="n" unicode="n" horiz-adv-x="535" 
d="M284 442c-30 0 -56.501 -5.83594 -79.501 -17.5029s-39.167 -22.5 -48.5 -32.5v-392h-86v380c0 35.333 -7.66699 68.333 -23 99l79 37c5.33301 -9.33301 10 -18.666 14 -27.999s7.33301 -19.666 10 -30.999h6c14 17.333 33.5 31.5 58.5 42.5s48.833 16.5 71.5 16.5
c30.667 0 58.167 -4.83301 82.5 -14.5s44.833 -23 61.5 -40s29.334 -37 38.001 -60s13 -47.833 13 -74.5v-327h-86v328c0 34.667 -10.5 62.334 -31.5 83.001s-47.5 31 -79.5 31z" />
    <glyph glyph-name="o" unicode="o" horiz-adv-x="568" 
d="M442 252l-0.00195312 19.999c0 48.667 -12.667 88.334 -38 119.001c-13.333 16 -30 28.5 -50 37.5s-43 13.5 -69 13.5c-25.333 0 -47.666 -4.16699 -66.999 -12.5s-35.666 -20.166 -48.999 -35.499c-26.667 -30.667 -40 -71.667 -40 -123v-23c0 -28 3 -54 9 -78
s16.333 -44.667 31 -62c12 -14.667 27.5 -26 46.5 -34s42.167 -12 69.5 -12c25.333 0 47 3.66699 65 11s33.333 17.666 46 30.999c17.333 17.333 29.333 39 36 65s10 53.667 10 83zM457.998 59.999c-23.333 -24.667 -49.665 -42.8291 -78.998 -54.4961s-61 -17.5 -95 -17.5
c-32.667 0 -64 6 -94 18s-56.667 30 -80 54c-25.333 25.333 -41.833 54.666 -49.5 87.999s-11.5 68 -11.5 104v19c0.666992 34.667 5 65.667 13 93s25 54.666 51 81.999c23.333 24 49.333 41.667 78 53s59.667 17 93 17s64.166 -5.5 92.499 -16.5
s54.166 -28.167 77.499 -51.5c24 -24.667 41.333 -51.334 52 -80.001s16 -60.334 16 -95.001v-21c0 -36 -4 -70 -12 -102s-25.333 -62 -52 -90z" />
    <glyph glyph-name="p" unicode="p" horiz-adv-x="544" 
d="M294 516c42 0 78.167 -8.66797 108.5 -26.001s54.833 -42 73.5 -74c12 -20.667 19.833 -43 23.5 -67s5.5 -49.667 5.5 -77v-64c0 -31.333 -4.33301 -60.5 -13 -87.5s-21.5 -50.333 -38.5 -70s-38 -35 -63 -46s-53.833 -16.5 -86.5 -16.5c-18 0 -35 2.83301 -51 8.5
s-30.5 12.167 -43.5 19.5s-24 14.666 -33 21.999s-15.5 13 -19.5 17v-249h-86v574c0 35.333 -7.66699 68.333 -23 99l79 37c5.33301 -9.33301 10 -18.666 14 -27.999s7.33301 -19.666 10 -30.999h6c15.333 16.667 35 30.667 59 42s50 17 78 17zM292 441.999
c-32 0 -59.1689 -6.16992 -81.502 -18.5029s-40.166 -26.166 -53.499 -41.499v-241c26 -28.667 52.167 -49 78.5 -61s49.166 -18 68.499 -18c22 0 40.333 3.83301 55 11.5s26.5 18.167 35.5 31.5s15.333 28.833 19 46.5s5.5 36.834 5.5 57.501v63
c0 20 -1.5 39.167 -4.5 57.5s-7.16699 32.833 -12.5 43.5c-9.33301 20.667 -24.666 37.334 -45.999 50.001s-42.666 19 -63.999 19z" />
    <glyph glyph-name="q" unicode="q" horiz-adv-x="544" 
d="M250 62c19.333 0 42.168 6.16992 68.501 18.5029s52.5 32.833 78.5 61.5v283c-12.667 5.33301 -28.334 9.5 -47.001 12.5s-37.667 4.5 -57 4.5c-15.333 0 -30.166 -1 -44.499 -3s-27.166 -5.33301 -38.499 -10c-14.667 -5.33301 -26.834 -13.5 -36.501 -24.5
s-17.334 -23.333 -23.001 -37s-9.66699 -28.334 -12 -44.001s-3.5 -30.834 -3.5 -45.501v-67c0 -20.667 1.83301 -40 5.5 -58s10 -33.833 19 -47.5s20.833 -24.334 35.5 -32.001s33 -11.5 55 -11.5zM252.002 -11.9971c-37.333 0 -68.832 5.99707 -94.499 17.9971
s-46.5 28.333 -62.5 49s-27.667 45 -35 73s-11 58 -11 90v52c0 84.667 21.167 146.834 63.5 186.501s104.833 59.5 187.5 59.5c33.333 0 65.333 -3.16699 96 -9.5s59.667 -15.166 87 -26.499v-674h-86v249c-4 -4 -10.5 -9.66699 -19.5 -17s-19.833 -14.666 -32.5 -21.999
s-26.834 -13.833 -42.501 -19.5s-32.5 -8.5 -50.5 -8.5z" />
    <glyph glyph-name="r" unicode="r" horiz-adv-x="352" 
d="M154 453c12.667 20 27.501 35.499 44.501 46.499s37.5 16.5 61.5 16.5c26 0 53.667 -7.33301 83 -22l-30 -80c-20.667 10.667 -39.667 16 -57 16s-32.5 -4.5 -45.5 -13.5s-23.667 -21.167 -32 -36.5s-14.5 -33.5 -18.5 -54.5s-6 -43.5 -6 -67.5v-258h-86v380
c0 35.333 -7.66699 68.333 -23 99l79 37c5.33301 -9.33301 10.166 -19.166 14.499 -29.499s7.5 -21.5 9.5 -33.5h6z" />
    <glyph glyph-name="s" unicode="s" horiz-adv-x="480" 
d="M252 516c32 0 63 -6.33398 93 -19.001s55.667 -30.667 77 -54l-52 -51c-11.333 12 -26.333 23.333 -45 34s-43.667 16 -75 16c-10.667 0 -22.167 -0.833008 -34.5 -2.5s-24 -5 -35 -10s-20.167 -12.167 -27.5 -21.5s-11 -21.333 -11 -36c0 -16.667 7.5 -29.5 22.5 -38.5
s33.833 -17 56.5 -24s47 -13.667 73 -20s50.333 -14.666 73 -24.999s41.5 -24 56.5 -41s22.5 -39.5 22.5 -67.5c0 -52 -17 -93 -51 -123s-84 -45 -150 -45c-50 0 -92 8.5 -126 25.5s-61.333 43.833 -82 80.5l62 39c8.66699 -10 17.667 -19.333 27 -28
s19.666 -16.167 30.999 -22.5s24.5 -11.333 39.5 -15s32.833 -5.5 53.5 -5.5c10.667 0 22.5 1 35.5 3s25 6 36 12s20.167 14.333 27.5 25s11 24.334 11 41.001c0 20 -7.5 35 -22.5 45s-33.667 18.167 -56 24.5s-46.5 12.166 -72.5 17.499s-50.167 13.333 -72.5 24
s-41 25.5 -56 44.5s-22.5 45.167 -22.5 78.5c0 26 6.33301 47.833 19 65.5s28.5 32 47.5 43s39.833 18.833 62.5 23.5s44.334 7 65.001 7z" />
    <glyph glyph-name="t" unicode="t" horiz-adv-x="289" 
d="M84 437h-57.002v67h57v108l86 24v-132h92l-21 -67h-71v-315c0 -40 20.667 -60 62 -60h37v-63c-11.333 -4 -21.166 -6.83301 -29.499 -8.5s-17.166 -2.5 -26.499 -2.5c-18 0 -35.167 2.83301 -51.5 8.5s-30.5 14.167 -42.5 25.5s-20.833 25.5 -26.5 42.5
s-8.5 36.167 -8.5 57.5v315z" />
    <glyph glyph-name="u" unicode="u" horiz-adv-x="544" 
d="M242 -12c-64 0 -110.167 15.3311 -138.5 45.998s-42.5 76.667 -42.5 138v328l86 16v-344c0 -39.333 7.66699 -67.5 23 -84.5s39.333 -25.5 72 -25.5c19.333 0 41.5 6.16699 66.5 18.5s50.5 32.833 76.5 61.5v358l86 16v-401c0 -24.667 2.33301 -45.167 7 -61.5
s12 -34.166 22 -53.499h-92c-4.66699 6.66699 -8.66699 15.834 -12 27.501s-5.33301 22.167 -6 31.5c-12.667 -13.333 -27 -25.333 -43 -36c-13.333 -9.33301 -29 -17.5 -47 -24.5s-37.333 -10.5 -58 -10.5z" />
    <glyph glyph-name="v" unicode="v" horiz-adv-x="484" 
d="M202 0l-185 492l77 24l116 -307l32 -109l32 109l116 307l77 -24l-185 -492h-80z" />
    <glyph glyph-name="w" unicode="w" horiz-adv-x="704" 
d="M382 435l108 -309l119 390l77 -24l-149 -492h-85l-103 286l-103 -286h-85l-149 492l77 24l119 -390l108 309h66z" />
    <glyph glyph-name="x" unicode="x" horiz-adv-x="463" 
d="M235 195l-130 -195h-98l182 266l-155 226l81 24l120 -185l120 185l81 -24l-155 -226l182 -266h-98z" />
    <glyph glyph-name="y" unicode="y" horiz-adv-x="510" 
d="M285 -107c-11.333 -29.333 -26.5029 -53.167 -45.5029 -71.5s-42.5 -27.5 -70.5 -27.5c-9.33301 0 -19.166 0.833008 -29.499 2.5s-23.166 4.83398 -38.499 9.50098v63h42c15.333 0 28.333 2.16699 39 6.5s18.667 14.166 24 29.499l34 98
c-19.333 4.66699 -35.833 13.667 -49.5 27s-24.167 29.333 -31.5 48l-158 414l83 24l156 -408c2.66699 -6.66699 5.83398 -12 9.50098 -16s9.16699 -6 16.5 -6h4l155 430l83 -24z" />
    <glyph glyph-name="z" unicode="z" horiz-adv-x="500" 
d="M69 515l394 -0.000976562v-16c0 -30.667 -10.667 -56.667 -32 -78l-294 -353l108 5h224l-17 -73h-419v29c0 14.667 2.83301 28.334 8.5 41.001s13.167 24.667 22.5 36l291 345l-99 -6h-187v70z" />
    <glyph glyph-name="braceleft" unicode="{" horiz-adv-x="307" 
d="M279 633l-46 -0.00292969c-15.333 0 -28.333 -5.33301 -39 -16s-16 -23.667 -16 -39v-230c0 -11.333 -2 -21.666 -6 -30.999s-9 -17.833 -15 -25.5s-12.667 -14.5 -20 -20.5s-14.333 -11 -21 -15c6.66699 -4 13.667 -9 21 -15s14 -12.833 20 -20.5s11 -16.334 15 -26.001
s6 -20.167 6 -31.5v-240c0 -15.333 5.33301 -28.166 16 -38.499s23.667 -15.5 39 -15.5h46v-75h-46c-18 0 -34.833 3.33301 -50.5 10s-29.5 15.834 -41.5 27.501s-21.333 25.334 -28 41.001s-10 32.5 -10 50.5v211c0 18 -2.66699 32.5 -8 43.5s-12.666 19.5 -21.999 25.5
s-20.166 10 -32.499 12s-25.166 3 -38.499 3v75c13.333 0 26.166 1 38.499 3s23.166 6 32.499 12s16.666 14.5 21.999 25.5s8 25.5 8 43.5v201c0 18 3.33301 34.833 10 50.5s16 29.5 28 41.5s25.833 21.333 41.5 28s32.5 10 50.5 10h46v-75z" />
    <glyph glyph-name="bar" unicode="|" horiz-adv-x="204" 
d="M136 -194c-15.333 -4 -28 -6 -38 -6c-10.667 0 -23.334 2 -38.001 6v889c14.667 4 27.334 6 38.001 6c10 0 22.667 -2 38 -6v-889z" />
    <glyph glyph-name="braceright" unicode="}" horiz-adv-x="306" 
d="M27 708l46 0.00292969c18 0 34.833 -3.33301 50.5 -10s29.5 -16 41.5 -28s21.333 -25.833 28 -41.5s10 -32.5 10 -50.5v-201c0 -18 2.66699 -32.5 8 -43.5s12.666 -19.5 21.999 -25.5s20.166 -10 32.499 -12s25.166 -3 38.499 -3v-75c-13.333 0 -26.166 -1 -38.499 -3
s-23.166 -6 -32.499 -12s-16.666 -14.5 -21.999 -25.5s-8 -25.5 -8 -43.5v-211c0 -18 -3.33301 -34.833 -10 -50.5s-16 -29.334 -28 -41.001s-25.833 -20.834 -41.5 -27.501s-32.5 -10 -50.5 -10h-46v75h46c15.333 0 28.333 5.16699 39 15.5s16 23.166 16 38.499v240
c0 11.333 2 21.833 6 31.5s9 18.334 15 26.001s12.667 14.5 20 20.5s14.333 11 21 15c-6.66699 4 -13.667 9 -21 15s-14 12.833 -20 20.5s-11 16.167 -15 25.5s-6 19.666 -6 30.999v230c0 15.333 -5.33301 28.333 -16 39s-23.667 16 -39 16h-46v75z" />
    <glyph glyph-name="asciitilde" unicode="~" horiz-adv-x="549" 
d="M507 322c-28 -26.667 -55.1689 -47.001 -81.502 -61.001s-53.833 -21 -82.5 -21c-19.333 0 -38.333 3.33301 -57 10s-37.5 14 -56.5 22s-37.833 15.333 -56.5 22s-37 10 -55 10c-14.667 0 -29.834 -3.66699 -45.501 -11s-30.5 -16.666 -44.5 -27.999v50
c24 19.333 47.5 34.5 70.5 45.5s47.167 16.5 72.5 16.5c18.667 0 37.334 -3 56.001 -9s37.334 -12.833 56.001 -20.5s37.334 -14.5 56.001 -20.5s37 -9 55 -9s37 4.83301 57 14.5s38.667 23.167 56 40.5v-51v0z" />
    <glyph glyph-name="exclamdown" unicode="&#xa1;" horiz-adv-x="169" 
d="M35 -194l26 539h56l25 -539h-107zM84 416c-14 0 -25.833 4.83301 -35.5 14.5s-14.5 21.167 -14.5 34.5s4.83301 24.666 14.5 33.999s21.5 14 35.5 14c13.333 0 24.833 -4.66699 34.5 -14s14.5 -20.666 14.5 -33.999s-4.83301 -24.833 -14.5 -34.5
s-21.167 -14.5 -34.5 -14.5z" />
    <glyph glyph-name="cent" unicode="&#xa2;" horiz-adv-x="407" 
d="M337 389c-13.333 13.333 -27.832 22.8301 -43.499 28.4971s-32.5 8.5 -50.5 8.5h-9.5c-3 0 -6.16699 -0.333008 -9.5 -1c-18 -2 -35 -6.66699 -51 -14s-30.333 -17.666 -43 -30.999c-12 -12.667 -20.167 -28.667 -24.5 -48s-6.5 -40.666 -6.5 -63.999v-15
c0 -13.333 0.166992 -26.666 0.5 -39.999s1.83301 -26 4.5 -38c8 -44.667 34 -74.667 78 -90c17.333 -6.66699 36.333 -10 57 -10c19.333 0 37 2.5 53 7.5s30.667 14.833 44 29.5l57 -52c-34.667 -36.667 -77 -57.667 -127 -63v-88h-63v89
c-8 1.33301 -15.833 2.83301 -23.5 4.5s-15.167 3.83398 -22.5 6.50098c-12 4 -23 8.83301 -33 14.5s-19.667 12.167 -29 19.5c-35.333 28.667 -57.666 67 -66.999 115c-6 30.667 -9 61.667 -9 93v18c0 16 0.5 31 1.5 45s3.33301 27.5 7 40.5s9 26 16 39
s16.5 26.5 28.5 40.5c17.333 19.333 37.166 34.5 59.499 45.5s46.166 18.167 71.499 21.5v67h63v-65c23.333 -2.66699 45.833 -8.83398 67.5 -18.501s41.167 -23.5 58.5 -41.5z" />
    <glyph glyph-name="sterling" unicode="&#xa3;" horiz-adv-x="565" 
d="M42 353l89.9961 0.00195312c-5.33301 16.667 -10.333 31 -15 43l-10 26c-3.33301 11.333 -6.33301 23.5 -9 36.5s-4 27.167 -4 42.5v6c0.666992 29.333 6.66699 55.666 18 78.999s26.166 43 44.499 59s40 28.333 65 37s51.5 13 79.5 13c42 0 80 -8 114 -24
s62.333 -38.667 85 -68l-60 -55c-13.333 20 -31.166 36.333 -53.499 49s-50.166 19 -83.499 19c-37.333 0 -68 -9.16699 -92 -27.5s-36.667 -47.166 -38 -86.499v-4c0 -13.333 1.33301 -26.333 4 -39s5.66699 -25 9 -37l8 -21l17 -48h144v-62h-129
c0.666992 -3.33301 1.16699 -6.5 1.5 -9.5s0.5 -6.16699 0.5 -9.5l1 -12c0 -14 -1.83301 -28.5 -5.5 -43.5s-8.5 -29.833 -14.5 -44.5s-12.833 -28.5 -20.5 -41.5s-15.834 -24.5 -24.501 -34.5c9.33301 1.33301 18.833 2.33301 28.5 3s19.5 1 29.5 1c18 0 35.333 -2 52 -6
s33 -8.5 49 -13.5s32 -9.5 48 -13.5s32.667 -6 50 -6c14 0 28 2.83301 42 8.5s26.667 11.834 38 18.501l34 -66c-19.333 -9.33301 -37.666 -17.333 -54.999 -24s-37 -10 -59 -10c-18.667 0 -36.5 2 -53.5 6s-33.5 8.33301 -49.5 13s-32 9 -48 13s-32 6 -48 6
c-17.333 0 -32.166 -0.5 -44.499 -1.5s-24 -3 -35 -6s-22.167 -6.83301 -33.5 -11.5s-24.333 -11 -39 -19c-6 13.333 -12.167 26.166 -18.5 38.499l-19.5 38.5c12 10 23.833 20.833 35.5 32.5s22.834 24.167 33.501 37.5s19.834 27.166 27.501 41.499
s13.5 29.166 17.5 44.499c2.66699 10 4 21.333 4 34c0 12 -1 24 -3 36h-105v62z" />
    <glyph glyph-name="currency" unicode="&#xa4;" horiz-adv-x="558" 
d="M279 581c20.667 0 40.332 -2.83203 58.999 -8.49902s35.667 -13.834 51 -24.501l65 65l56 -54l-66 -65c10.667 -16 19 -33.333 25 -52s9 -38.334 9 -59.001c0 -40 -11 -76.667 -33 -110l65 -64l-54 -56l-66 65c-15.333 -10.667 -32.333 -19 -51 -25s-38.667 -9 -60 -9
c-20 0 -39.333 2.83301 -58 8.5s-35.667 13.834 -51 24.501l-65 -65l-56 54l66 66c-22.667 32 -34 69 -34 111c0 20 2.83301 39.333 8.5 58s13.834 35.667 24.501 51l-65 65l54 56l65 -66c32.667 22.667 69.667 34 111 34zM278.998 504.001
c-16.667 0 -32.334 -3.16699 -47.001 -9.5s-27.5 -15 -38.5 -26s-19.667 -23.833 -26 -38.5s-9.5 -30.334 -9.5 -47.001s3.16699 -32.5 9.5 -47.5s15 -28 26 -39s23.833 -19.667 38.5 -26s30.334 -9.5 47.001 -9.5s32.5 3.16699 47.5 9.5s28 15 39 26s19.667 24 26 39
s9.5 30.833 9.5 47.5s-3.16699 32.334 -9.5 47.001s-15 27.5 -26 38.5s-24 19.667 -39 26s-30.833 9.5 -47.5 9.5z" />
    <glyph glyph-name="yen" unicode="&#xa5;" horiz-adv-x="627" 
d="M610 671l-198 -309h138v-66h-190v-73h190v-66h-190v-157h-93v157h-190v66h190v73h-190v66h138l-198 309l89 24l198 -313h20l197 313z" />
    <glyph glyph-name="brokenbar" unicode="&#xa6;" horiz-adv-x="202" 
d="M135 -194v361h-75v-361c14.667 -4 27 -6 37 -6s22.667 2 38 6zM135 695v-362h-75v362c14.667 4 27 6 37 6s22.667 -2 38 -6z" />
    <glyph glyph-name="section" unicode="&#xa7;" horiz-adv-x="497" 
d="M256 -128c10.667 0 21.5 1.17188 32.5 3.50488s20.833 6.33301 29.5 12s15.667 12.834 21 21.501s8 19 8 31c0 13.333 -4 26.5 -12 39.5s-18.5 25.5 -31.5 37.5s-27.667 23.667 -44 35s-33.166 22.333 -50.499 33l-11 7l-62 40c-20 13.333 -37.667 27.5 -53 42.5
s-27.666 30.833 -36.999 47.5s-14 35 -14 55s3.83301 37.167 11.5 51.5s17.667 26.666 30 36.999s25.833 19.5 40.5 27.5l43 24c-25.333 20 -46 41.167 -62 63.5s-24 48.833 -24 79.5c0 24 4.83301 45.333 14.5 64s22.5 34.167 38.5 46.5s34.5 21.666 55.5 27.999
s42.833 9.5 65.5 9.5c87.333 0 155 -31.333 203 -94l-60 -50c-17.333 21.333 -36.833 38.833 -58.5 52.5s-49.167 20.5 -82.5 20.5c-11.333 0 -22.666 -1.5 -33.999 -4.5s-21.666 -7.5 -30.999 -13.5s-16.833 -13.833 -22.5 -23.5s-8.5 -20.834 -8.5 -33.501
s3.66699 -24.834 11 -36.501s17.166 -23 29.499 -34s26.5 -21.833 42.5 -32.5s32.333 -21 49 -31l18 -11l62 -39.5c20 -13 37.667 -27 53 -42s27.666 -30.833 36.999 -47.5s14 -35 14 -55s-4.16699 -37.667 -12.5 -53s-18.833 -28.833 -31.5 -40.5
s-26.167 -21.334 -40.5 -29.001s-27.833 -13.5 -40.5 -17.5c24.667 -20 45.167 -42.333 61.5 -67s24.5 -52.667 24.5 -84c0 -24.667 -4.83301 -46.334 -14.5 -65.001s-22.334 -34.167 -38.001 -46.5s-33.834 -21.5 -54.501 -27.5s-42 -9 -64 -9
c-43.333 0 -82.5 8.5 -117.5 25.5s-67.167 41.833 -96.5 74.5l62 55c22 -25.333 44.333 -44.5 67 -57.5s50.667 -19.5 84 -19.5zM289 131.005c6.66699 2.66699 15.3311 7.00098 25.998 13.001s21.334 13.167 32.001 21.5s19.834 17.833 27.501 28.5s11.5 22.667 11.5 36
c0 8.66699 -3.33301 17.667 -10 27s-15.5 18.666 -26.5 27.999s-23.5 18.666 -37.5 27.999l-44 29l-11 7c-8 5.33301 -16.167 10.333 -24.5 15s-15.833 9.66699 -22.5 15c-9.33301 -5.33301 -19.666 -10.666 -30.999 -15.999s-21.833 -11.833 -31.5 -19.5
s-17.834 -16.5 -24.501 -26.5s-10 -22.333 -10 -37c0 -9.33301 3.66699 -18.833 11 -28.5s17 -19.5 29 -29.5s25.667 -20 41 -30l48 -31z" />
    <glyph glyph-name="dieresis" unicode="&#xa8;" horiz-adv-x="377" 
d="M277 860c13.333 0 24.666 -4.5 33.999 -13.5s14 -20.167 14 -33.5s-4.66699 -24.5 -14 -33.5s-20.666 -13.5 -33.999 -13.5s-24.666 4.5 -33.999 13.5s-14 20.167 -14 33.5s4.66699 24.5 14 33.5s20.666 13.5 33.999 13.5zM99 860c13.333 0 24.666 -4.5 33.999 -13.5
s14 -20.167 14 -33.5s-4.66699 -24.5 -14 -33.5s-20.666 -13.5 -33.999 -13.5s-24.666 4.5 -33.999 13.5s-14 20.167 -14 33.5s4.66699 24.5 14 33.5s20.666 13.5 33.999 13.5z" />
    <glyph glyph-name="copyright" unicode="&#xa9;" horiz-adv-x="794" 
d="M398 708c50 0 96.833 -9.33301 140.5 -28s81.834 -44.167 114.501 -76.5s58.334 -70.333 77.001 -114s28 -90.5 28 -140.5s-9.33301 -96.833 -28 -140.5s-44.334 -81.834 -77.001 -114.501s-70.834 -58.5 -114.501 -77.5s-90.5 -28.5 -140.5 -28.5s-97 9.5 -141 28.5
s-82.333 44.833 -115 77.5s-58.5 70.834 -77.5 114.501s-28.5 90.5 -28.5 140.5s9.5 96.833 28.5 140.5s44.833 81.667 77.5 114s71 57.833 115 76.5s91 28 141 28zM398 647c-41.333 0 -80.333 -7.66699 -117 -23s-68.667 -36.5 -96 -63.5s-48.833 -58.667 -64.5 -95
s-23.5 -75.166 -23.5 -116.499s7.83301 -80.166 23.5 -116.499s37.167 -68.166 64.5 -95.499s59.333 -48.833 96 -64.5s75.667 -23.5 117 -23.5s80.166 7.83301 116.499 23.5s68 37.167 95 64.5s48.167 59.166 63.5 95.499s23 75.166 23 116.499
s-7.66699 80.166 -23 116.499s-36.5 68 -63.5 95s-58.667 48.167 -95 63.5s-75.166 23 -116.499 23zM491 466c-11.333 12 -24.002 20.501 -38.002 25.501s-28.667 7.5 -44 7.5h-8.5c-2.33301 0 -5.16602 -0.333008 -8.49902 -1c-38 -3.33301 -66 -17.166 -84 -41.499
s-27 -56.166 -27 -95.499v-13c0 -16 0.833008 -31.5 2.5 -46.5s5 -29 10 -42s12.5 -24.5 22.5 -34.5s23 -18 39 -24s32.667 -9 50 -9s33 2.16699 47 6.5s27 13.166 39 26.499l49 -47c-18.667 -19.333 -39.167 -33.5 -61.5 -42.5s-46.833 -13.5 -73.5 -13.5
c-25.333 0 -49.333 4 -72 12c-23.333 8 -42.666 19.167 -57.999 33.5s-27.666 31 -36.999 50s-16 39.5 -20 61.5s-6 44.333 -6 67v16c0 25.333 3.66699 49.666 11 72.999s18.166 44.333 32.499 63s32.333 34 54 46s46.834 19.667 75.501 23
c3.33301 0.666992 6.66602 1 9.99902 1h10c25.333 0 49.5 -4.33301 72.5 -13s43.5 -22.334 61.5 -41.001z" />
    <glyph glyph-name="ordfeminine" unicode="&#xaa;" horiz-adv-x="385" 
d="M151 403c8.66699 0 18.332 1.66699 28.999 5s21.5 7.5 32.5 12.5s21.5 10.167 31.5 15.5l26 14v59h-127c-13.333 0 -25.166 -5.16699 -35.499 -15.5s-15.5 -22.833 -15.5 -37.5c0 -15.333 6.33301 -28 19 -38s26 -15 40 -15zM191.998 707
c38 0 70.001 -10.335 96.001 -31.002s39 -51 39 -91v-147c0 -15.333 1.5 -28.5 4.5 -39.5s8.16699 -23.833 15.5 -38.5h-61c-4 5.33301 -7 12 -9 20s-3 15 -3 21c-18.667 -13.333 -39.167 -24.833 -61.5 -34.5s-44.833 -14.5 -67.5 -14.5
c-30.667 0 -56.334 9.66699 -77.001 29s-31 44.333 -31 75c0 14.667 2.83301 28.334 8.5 41.001s13.334 23.5 23.001 32.5s21 16 34 21s26.5 7.5 40.5 7.5h127v31c0 24.667 -7.33301 42.334 -22 53.001s-33.334 16 -56.001 16c-20.667 0 -38.5 -2.5 -53.5 -7.5
s-31.167 -12.833 -48.5 -23.5l-24 43c21.333 13.333 41.333 22.833 60 28.5s40.667 8.5 66 8.5z" />
    <glyph glyph-name="guillemotleft" unicode="&#xab;" horiz-adv-x="469" 
d="M418 476c-17.333 -42 -35.833 -81.333 -55.5 -118s-40.5 -69.667 -62.5 -99c22 -30 42.833 -63.333 62.5 -100s38.167 -76 55.5 -118h-60c-19.333 38.667 -42.5 76 -69.5 112s-55.833 71.333 -86.5 106c30.667 34 59.5 69 86.5 105s50.167 73.333 69.5 112h60zM231 476
c-17.333 -42 -35.833 -81.333 -55.5 -118s-40.5 -69.667 -62.5 -99c22 -30 42.833 -63.333 62.5 -100s38.167 -76 55.5 -118h-60c-19.333 38.667 -42.5 76 -69.5 112s-55.833 71.333 -86.5 106c30.667 34 59.5 69 86.5 105s50.167 73.333 69.5 112h60z" />
    <glyph glyph-name="logicalnot" unicode="&#xac;" horiz-adv-x="523" 
d="M0 504h462v-290h-81v209h-381v81z" />
    <glyph glyph-name="uni00AD" unicode="&#xad;" horiz-adv-x="395" 
d="M66 229c-5.33301 17.333 -8 31.666 -8 42.999c0 6.66699 0.666992 13.334 2 20.001s3.33301 14.334 6 23.001h263c2.66699 -8.66699 4.66699 -16.334 6 -23.001s2 -13.334 2 -20.001c0 -11.333 -2.66699 -25.666 -8 -42.999h-263z" />
    <glyph glyph-name="registered" unicode="&#xae;" horiz-adv-x="517" 
d="M258 708c30.667 0 59.5 -5.83301 86.5 -17.5s50.667 -27.5 71 -47.5s36.333 -43.5 48 -70.5s17.5 -55.833 17.5 -86.5s-5.83301 -59.5 -17.5 -86.5s-27.667 -50.5 -48 -70.5s-44 -35.833 -71 -47.5s-55.833 -17.5 -86.5 -17.5s-59.5 5.83301 -86.5 17.5
s-50.5 27.5 -70.5 47.5s-35.833 43.5 -47.5 70.5s-17.5 55.833 -17.5 86.5s5.83301 59.5 17.5 86.5s27.5 50.5 47.5 70.5s43.5 35.833 70.5 47.5s55.833 17.5 86.5 17.5zM258 663c-24.667 0 -47.667 -4.66699 -69 -14s-40 -22 -56 -38s-28.667 -34.667 -38 -56
s-14 -44.333 -14 -69c0 -24 4.66699 -46.833 14 -68.5s22 -40.5 38 -56.5s34.667 -28.667 56 -38s44.333 -14 69 -14s47.667 4.66699 69 14s40 22 56 38s28.667 34.833 38 56.5s14 44.5 14 68.5c0 24.667 -4.66699 47.667 -14 69s-22 40 -38 56s-34.667 28.667 -56 38
s-44.333 14 -69 14zM249 451c-2.66699 3.33301 -6.16699 5.83398 -10.5 7.50098s-8.5 2.5 -12.5 2.5h-20v-102h-42v254h108c23.333 0 42.833 -6.33301 58.5 -19s23.5 -30.334 23.5 -53.001s-5.16699 -41 -15.5 -55s-27.166 -21.667 -50.499 -23l45 -65
c5.33301 -7.33301 9.83301 -11.833 13.5 -13.5s8.16699 -2.5 13.5 -2.5v-23c-4.66699 -2.66699 -10.334 -4 -17.001 -4c-9.33301 0 -18 2.33301 -26 7s-14.333 10 -19 16zM206 501.001l69 -0.000976562c15.333 0 26.333 2.83301 33 8.5s10 16.167 10 31.5
c0 12.667 -3.83301 21.334 -11.5 26.001s-18.167 7 -31.5 7h-69v-73z" />
    <glyph glyph-name="degree" unicode="&#xb0;" horiz-adv-x="330" 
d="M165 661c-22.667 0 -42 -7.83301 -58 -23.5s-24 -35.167 -24 -58.5c0 -22.667 8 -41.834 24 -57.501s35.333 -23.5 58 -23.5s42 7.83301 58 23.5s24 34.834 24 57.501c0 23.333 -8 42.833 -24 58.5s-35.333 23.5 -58 23.5zM165 708c18 0 34.833 -3.33301 50.5 -10
s29.334 -15.834 41.001 -27.501s20.834 -25.334 27.501 -41.001s10 -32.5 10 -50.5s-3.33301 -34.667 -10 -50s-15.834 -28.833 -27.501 -40.5s-25.334 -20.834 -41.001 -27.501s-32.5 -10 -50.5 -10s-34.833 3.33301 -50.5 10s-29.334 15.834 -41.001 27.501
s-20.834 25.167 -27.501 40.5s-10 32 -10 50s3.33301 34.833 10 50.5s15.834 29.334 27.501 41.001s25.334 20.834 41.001 27.501s32.5 10 50.5 10z" />
    <glyph glyph-name="plusminus" unicode="&#xb1;" horiz-adv-x="493" 
d="M20 78l453 -0.000976562c4.66699 -16 7 -29 7 -39c0 -6 -0.666992 -12.167 -2 -18.5s-3 -13.166 -5 -20.499h-453c-4.66699 14 -7 27 -7 39c0 11.333 2.33301 24.333 7 39zM20 387.999h187v187c7.33301 2 14.166 3.66699 20.499 5s12.5 2 18.5 2
s12.167 -0.666992 18.5 -2s13.5 -3 21.5 -5v-187h187c4.66699 -16 7 -29 7 -39c0 -6 -0.666992 -12.167 -2 -18.5s-3 -13.5 -5 -21.5h-187v-187c-8 -2 -15.167 -3.66699 -21.5 -5s-12.5 -2 -18.5 -2s-12.167 0.666992 -18.5 2s-13.166 3 -20.499 5v187h-187
c-4.66699 14.667 -7 28 -7 40c0 11.333 2.33301 24.333 7 39z" />
    <glyph glyph-name="twosuperior" unicode="&#xb2;" horiz-adv-x="305" 
d="M49 639c21.333 42 55.002 63 101.002 63c13.333 0 26.166 -1.33301 38.499 -4s24.166 -7.66699 35.499 -15c13.333 -9.33301 23.333 -21.333 30 -36s10 -29.667 10 -45c0 -14 -2.66699 -27.833 -8 -41.5s-12.666 -25.167 -21.999 -34.5l-133 -133h164v-46h-223v28
c0 16 5.66699 29.667 17 41l138 139c5.33301 6 10.166 13.667 14.499 23s6.5 19 6.5 29c0 18 -6.83301 30.667 -20.5 38s-29.5 11 -47.5 11c-27.333 0 -47 -12.333 -59 -37z" />
    <glyph glyph-name="threesuperior" unicode="&#xb3;" horiz-adv-x="291" 
d="M41 695l192.002 0.000976562v-39c0 -7.33301 -1.16699 -13.833 -3.5 -19.5s-5.5 -11.167 -9.5 -16.5l-58 -67c58 -10 87 -45.333 87 -106c0 -34 -9.5 -60.333 -28.5 -79s-45.833 -28 -80.5 -28c-52.667 0 -89.334 23 -110.001 69l42 19
c9.33301 -16.667 19.166 -27.834 29.499 -33.501s23.166 -8.5 38.499 -8.5c18.667 0 33.834 5.5 45.501 16.5s17.5 26.167 17.5 45.5c0 22.667 -6.5 39.667 -19.5 51s-29.167 17 -48.5 17h-34v35l83 98h-143v46z" />
    <glyph glyph-name="acute" unicode="&#xb4;" horiz-adv-x="182" 
d="M15 737l76 123h77l1 -11l-85 -112h-69z" />
    <glyph glyph-name="mu" unicode="&#xb5;" horiz-adv-x="510" 
d="M243 -12c-19.333 0 -37 1.83008 -53 5.49707s-30.667 8.83398 -44 15.501v-203h-86v686l86 24v-356c0 -36 8.16699 -61.333 24.5 -76s40.166 -22 71.499 -22c10 0 19.833 1 29.5 3s20.167 5.5 31.5 10.5s23.666 12.167 36.999 21.5s28 21 44 35v360l86 24v-401
c0 -24.667 2.33301 -45.167 7 -61.5s12 -34.166 22 -53.499h-92c-4.66699 6.66699 -8.66699 15.834 -12 27.501s-5.33301 22.167 -6 31.5c-12.667 -13.333 -26.667 -25.333 -42 -36c-13.333 -9.33301 -28.666 -17.5 -45.999 -24.5s-36.666 -10.5 -57.999 -10.5z" />
    <glyph glyph-name="paragraph" unicode="&#xb6;" horiz-adv-x="574" 
d="M538 629l-68 -0.000976562v-823h-74v823h-96v-823h-70v494h-11c-71.333 0 -123 18.333 -155 55s-48 86.334 -48 149.001s16.667 110.167 50 142.5s84.333 48.5 153 48.5h319v-66z" />
    <glyph glyph-name="periodcentered" unicode="&#xb7;" horiz-adv-x="171" 
d="M85 407c13.333 0 24.666 -4.5 33.999 -13.5s14 -20.167 14 -33.5s-4.66699 -24.5 -14 -33.5s-20.666 -13.5 -33.999 -13.5s-24.666 4.5 -33.999 13.5s-14 20.167 -14 33.5s4.66699 24.5 14 33.5s20.666 13.5 33.999 13.5z" />
    <glyph glyph-name="cedilla" unicode="&#xb8;" horiz-adv-x="215" 
d="M150 6l-21.001 -70.0029c15.333 -3.33301 28.666 -10.666 39.999 -21.999s17 -25.333 17 -42c0 -13.333 -2.83301 -24.833 -8.5 -34.5s-13.167 -17.667 -22.5 -24s-19.666 -11.166 -30.999 -14.499s-22.333 -5 -33 -5c-12.667 0 -26.167 1 -40.5 3
s-27.5 5.33301 -39.5 10l8 42c9.33301 -3.33301 19.333 -5.66602 30 -6.99902s20.667 -2 30 -2c12 0 23.167 3 33.5 9s15.5 14.667 15.5 26c0 9.33301 -4.66699 18.333 -14 27s-21.666 13.667 -36.999 15l26 92z" />
    <glyph glyph-name="onesuperior" unicode="&#xb9;" horiz-adv-x="220" 
d="M42 393h52v234l-43 -41l-33 33l80 76h47v-302h49v-46h-152v46z" />
    <glyph glyph-name="ordmasculine" unicode="&#xba;" horiz-adv-x="404" 
d="M203 658c-20.667 0 -37.499 -3.5 -50.499 -10.5s-23.167 -15.5 -30.5 -25.5c-8 -10.667 -13.667 -24.5 -17 -41.5s-5 -34.833 -5 -53.5s1.66699 -36.667 5 -54s9 -31.666 17 -42.999c7.33301 -9.33301 17.5 -17.666 30.5 -24.999s30.167 -11 51.5 -11
c19.333 0 35.166 3.5 47.499 10.5s22.166 15.167 29.499 24.5c9.33301 13.333 15.5 29.166 18.5 47.499s4.5 35.166 4.5 50.499s-1.5 32 -4.5 50s-9.16699 33.333 -18.5 46c-7.33301 9.33301 -17.166 17.5 -29.499 24.5s-28.5 10.5 -48.5 10.5zM203.001 707
c30 0 55.168 -4.83203 75.501 -14.499s37.166 -23.167 50.499 -40.5c13.333 -18 22.333 -37.833 27 -59.5s7 -43.5 7 -65.5s-2.33301 -43.833 -7 -65.5s-13.667 -41.834 -27 -60.501c-12.667 -17.333 -29.167 -30.833 -49.5 -40.5s-45.5 -14.5 -75.5 -14.5
c-32 0 -58.333 5 -79 15s-37.334 23.667 -50.001 41c-12.667 16.667 -21.5 35.667 -26.5 57s-7.5 44 -7.5 68s2.5 46.5 7.5 67.5s13.833 39.833 26.5 56.5c12.667 17.333 29.334 31 50.001 41s46.667 15 78 15z" />
    <glyph glyph-name="guillemotright" unicode="&#xbb;" horiz-adv-x="469" 
d="M111 476c19.333 -38.667 42.5 -76 69.5 -112s55.833 -71 86.5 -105c-30.667 -34.667 -59.5 -70 -86.5 -106s-50.167 -73.333 -69.5 -112h-60c17.333 42 35.833 81.333 55.5 118s40.5 70 62.5 100c-22 29.333 -42.833 62.333 -62.5 99s-38.167 76 -55.5 118h60zM298 476
c19.333 -38.667 42.5 -76 69.5 -112s55.833 -71 86.5 -105c-30.667 -34.667 -59.5 -70 -86.5 -106s-50.167 -73.333 -69.5 -112h-60c17.333 42 35.833 81.333 55.5 118s40.5 70 62.5 100c-22 29.333 -42.833 62.333 -62.5 99s-38.167 76 -55.5 118h60z" />
    <glyph glyph-name="onequarter" unicode="&#xbc;" horiz-adv-x="654" 
d="M518 0v85h-155v45l153 218h51v-217h45l-15 -46h-30v-85h-49zM518 131v136l-97 -136h97zM63 393h52v234l-43 -41l-33 33l80 76h47v-302h49v-46h-152v46zM130 -12h-70l507 719h68z" />
    <glyph glyph-name="onehalf" unicode="&#xbd;" horiz-adv-x="660" 
d="M63 393h52v234l-43 -41l-33 33l80 76h47v-302h49v-46h-152v46zM409 294c21.333 42 55.002 63 101.002 63c13.333 0 26.166 -1.33301 38.499 -4s24.166 -7.66699 35.499 -15c13.333 -9.33301 23.333 -21.333 30 -36s10 -29.667 10 -45c0 -14 -2.66699 -27.833 -8 -41.5
s-12.666 -25.167 -21.999 -34.5l-133 -133h164v-46h-223v28c0 16 5.66699 29.667 17 41l138 139c5.33301 6 10.166 13.667 14.499 23s6.5 19 6.5 29c0 18 -6.83301 30.667 -20.5 38s-29.5 11 -47.5 11c-27.333 0 -47 -12.333 -59 -37zM114.002 -12h-70l507 719h68z" />
    <glyph glyph-name="threequarters" unicode="&#xbe;" horiz-adv-x="635" 
d="M498 0v85h-155v45l153 218h51v-217h45l-15 -46h-30v-85h-49zM498 131v136l-97 -136h97zM46 695l192.002 0.000976562v-39c0 -7.33301 -1.16699 -13.833 -3.5 -19.5s-5.5 -11.167 -9.5 -16.5l-58 -67c58 -10 87 -45.333 87 -106c0 -34 -9.5 -60.333 -28.5 -79
s-45.833 -28 -80.5 -28c-52.667 0 -89.334 23 -110.001 69l42 19c9.33301 -16.667 19.166 -27.834 29.499 -33.501s23.166 -8.5 38.499 -8.5c18.667 0 33.834 5.5 45.501 16.5s17.5 26.167 17.5 45.5c0 22.667 -6.5 39.667 -19.5 51s-29.167 17 -48.5 17h-34v35l83 98h-143
v46zM111.002 -11.999h-70l507 719h68z" />
    <glyph glyph-name="questiondown" unicode="&#xbf;" horiz-adv-x="384" 
d="M205.021 418.011c-13.998 0 -25.8301 4.83301 -35.4951 14.498s-14.498 21.1631 -14.498 34.4941c0 13.332 4.83301 24.6641 14.498 33.9961s21.4971 13.998 35.4951 13.998c13.332 0 24.8311 -4.66602 34.4961 -13.998s14.498 -20.6641 14.498 -33.9961
c0 -13.3311 -4.83301 -24.8291 -14.498 -34.4941s-21.1641 -14.498 -34.4961 -14.498zM375.001 -141.921c-23.9971 -21.3311 -52.1621 -37.1562 -84.4912 -47.4883c-32.3291 -10.333 -63.8252 -15.499 -94.4883 -15.499c-27.9971 0 -54.4941 4 -79.4912 11.999
s-46.8271 19.6641 -65.4912 34.9951c-18.665 15.3311 -33.3301 34.3291 -43.9951 56.9932c-10.665 22.6631 -15.998 48.6602 -15.998 77.9902c0 17.9971 2 33.6621 5.99902 46.9941c4 13.3311 9.16602 25.4961 15.498 36.4951c6.33301 10.999 13.999 21.3311 22.998 30.9961
l28.4961 29.4971l15.998 15.998c9.99902 9.99902 20.498 21.1641 31.4971 33.4961c10.999 12.3311 20.998 26.6621 29.9971 42.9932s16.498 35.4951 22.4971 57.4922s8.99805 47.6602 8.99805 76.9893h63.9922c0 -41.9951 -3.33301 -77.8242 -9.99805 -107.487
c-6.66602 -29.6631 -15.165 -55.1602 -25.4971 -76.4912s-22.1641 -39.3291 -35.4961 -53.9941c-13.3311 -14.665 -26.9961 -28.6631 -40.9951 -41.9951c-14.665 -13.998 -27.1631 -27.8291 -37.4951 -41.4941s-15.498 -30.1631 -15.498 -49.4941
c0 -17.998 3.33301 -33.4961 9.99902 -46.4941c6.66504 -12.999 15.6641 -23.8311 26.9961 -32.4961c11.332 -8.66602 24.4971 -14.999 39.4951 -18.998c14.999 -3.99902 30.8311 -5.99902 47.4961 -5.99902c21.9971 0 44.3271 4.16602 66.9912 12.498
c22.6641 8.33301 43.3281 20.165 61.9922 35.4961z" />
    <glyph glyph-name="Agrave" unicode="&#xc0;" horiz-adv-x="677" 
d="M217 285h240l-95 244l-28 101l-27 -101zM191 210l-77 -210h-96l259 695h112l272 -695h-94l-81 210h-295zM311 737l-85 110l1 13h77l76 -123h-69z" />
    <glyph glyph-name="Aacute" unicode="&#xc1;" horiz-adv-x="677" 
d="M217 285h240l-95 244l-28 101l-27 -101zM191 210l-77 -210h-96l259 695h112l272 -695h-94l-81 210h-295zM294 737l76 123h77l1 -11l-85 -112h-69z" />
    <glyph glyph-name="Acircumflex" unicode="&#xc2;" horiz-adv-x="677" 
d="M217 285h240l-95 244l-28 101l-27 -101zM191 210l-77 -210h-96l259 695h112l272 -695h-94l-81 210h-295zM355 860l116 -112v-11h-76l-60 60l-60 -60h-76v11l116 112h40z" />
    <glyph glyph-name="Atilde" unicode="&#xc3;" horiz-adv-x="677" 
d="M217 285h240l-95 244l-28 101l-27 -101zM191 210l-77 -210h-96l259 695h112l272 -695h-94l-81 210h-295zM185 752c0 14 1.66699 27.4941 5 40.4941s8.66602 24.5 15.999 34.5s16.333 18 27 24s23.667 9 39 9c12 0 23.333 -2.16699 34 -6.5
s20.834 -9.16602 30.501 -14.499s19.167 -10.166 28.5 -14.499s18.666 -6.5 27.999 -6.5c16.667 0 28.334 4.33301 35.001 13s10 18.334 10 29.001h47c0 -32 -8 -58 -24 -78s-38.667 -30 -68 -30c-13.333 0 -25 2.33301 -35 7s-19.5 9.83398 -28.5 15.501
s-18.167 10.834 -27.5 15.501s-19.333 7 -30 7c-11.333 0 -20.833 -4.66699 -28.5 -14s-11.5 -19.666 -11.5 -30.999h-47z" />
    <glyph glyph-name="Adieresis" unicode="&#xc4;" horiz-adv-x="677" 
d="M217 285h240l-95 244l-28 101l-27 -101zM191 210l-77 -210h-96l259 695h112l272 -695h-94l-81 210h-295zM424 860c13.333 0 24.666 -4.5 33.999 -13.5s14 -20.167 14 -33.5s-4.66699 -24.5 -14 -33.5s-20.666 -13.5 -33.999 -13.5s-24.666 4.5 -33.999 13.5
s-14 20.167 -14 33.5s4.66699 24.5 14 33.5s20.666 13.5 33.999 13.5zM246 860c13.333 0 24.666 -4.5 33.999 -13.5s14 -20.167 14 -33.5s-4.66699 -24.5 -14 -33.5s-20.666 -13.5 -33.999 -13.5s-24.666 4.5 -33.999 13.5s-14 20.167 -14 33.5s4.66699 24.5 14 33.5
s20.666 13.5 33.999 13.5z" />
    <glyph glyph-name="Aring" unicode="&#xc5;" horiz-adv-x="677" 
d="M191 210l-77.001 -210h-96l251 674l-4 4c-19.333 18.667 -29 41.334 -29 68.001c0 12.667 2.5 24.834 7.5 36.501s12 21.834 21 30.501s19.333 15.667 31 21s24.5 8 38.5 8s27 -2.66699 39 -8s22.5 -12.333 31.5 -21s16.167 -18.834 21.5 -30.501s8 -23.834 8 -36.501
c0 -13.333 -2.66699 -25.833 -8 -37.5s-12.666 -21.834 -21.999 -30.501l-6 -6l263 -672h-94l-81 210h-295zM216.999 285h240l-72 184l-51 164l-49 -165zM333.999 790c-12.667 0 -23.667 -4.16699 -33 -12.5s-14 -18.833 -14 -31.5s4 -23.334 12 -32.001s19.667 -13 35 -13
c14 0 25.333 4.33301 34 13s13 19.334 13 32.001s-4.33301 23.167 -13 31.5s-20 12.5 -34 12.5z" />
    <glyph glyph-name="AE" unicode="&#xc6;" horiz-adv-x="966" 
d="M228 201l-108 -201h-100l375 695h530l-26 -83h-324v-206h286v-81h-286v-244h352v-81h-444v201h-255zM268 282h215v330h-39z" />
    <glyph glyph-name="Ccedilla" unicode="&#xc7;" horiz-adv-x="614" 
d="M133 350c0 -33.333 2.16309 -66.501 6.49609 -99.501s14 -63 29 -90s37 -48.833 66 -65.5s68.5 -25 118.5 -25c30 0 58.833 5.5 86.5 16.5s52.167 27.833 73.5 50.5l63 -59c-29.333 -31.333 -63.333 -54.333 -102 -69c-35.333 -12.667 -72 -19.667 -110 -21l-17 -52
c16.667 -3.33301 31.334 -10.666 44.001 -21.999s19 -25 19 -41c0 -13.333 -3.16699 -24.833 -9.5 -34.5s-14.666 -17.667 -24.999 -24s-21.833 -11.166 -34.5 -14.499s-25 -5 -37 -5c-14 0 -29 1 -45 3s-30.667 5.33301 -44 10l9 42
c10.667 -3.33301 21.834 -5.66602 33.501 -6.99902s22.834 -2 33.501 -2c13.333 0 25.833 3 37.5 9s17.5 14.667 17.5 26c0 9.33301 -5.33301 18.166 -16 26.499s-24.334 13.166 -41.001 14.499l23 73c-42 3.33301 -78 11.666 -108 24.999c-40 18.667 -72.167 44 -96.5 76
s-41.833 70 -52.5 114s-16 91.667 -16 143v37c0 50.667 6.5 95.834 19.5 135.501s32.5 73.334 58.5 101.001s58.667 48.834 98 63.501s85.333 22 138 22c40.667 0 80.5 -6.83301 119.5 -20.5s72.833 -35.167 101.5 -64.5l-61 -61
c-20.667 21.333 -45.167 37.166 -73.5 47.499s-57.166 15.5 -86.499 15.5c-44 0 -80.167 -7.16699 -108.5 -21.5s-50.833 -33 -67.5 -56s-28.167 -48.833 -34.5 -77.5s-9.5 -57.334 -9.5 -86.001v-33z" />
    <glyph glyph-name="Egrave" unicode="&#xc8;" horiz-adv-x="582" 
d="M557 0h-497v695h500l-26 -82h-384v-203h344v-83h-344v-245h407v-82zM298 745l-85 110l1 13h77l76 -123h-69z" />
    <glyph glyph-name="Eacute" unicode="&#xc9;" horiz-adv-x="582" 
d="M557 0h-497v695h500l-26 -82h-384v-203h344v-83h-344v-245h407v-82zM269 751l76 123h77l1 -11l-85 -112h-69z" />
    <glyph glyph-name="Ecircumflex" unicode="&#xca;" horiz-adv-x="582" 
d="M557 0h-497v695h500l-26 -82h-384v-203h344v-83h-344v-245h407v-82zM345 870l116 -112v-11h-76l-60 60l-60 -60h-76v11l116 112h40z" />
    <glyph glyph-name="Edieresis" unicode="&#xcb;" horiz-adv-x="582" 
d="M557 0h-497v695h500l-26 -82h-384v-203h344v-83h-344v-245h407v-82zM413 860c13.333 0 24.666 -4.5 33.999 -13.5s14 -20.167 14 -33.5s-4.66699 -24.5 -14 -33.5s-20.666 -13.5 -33.999 -13.5s-24.666 4.5 -33.999 13.5s-14 20.167 -14 33.5s4.66699 24.5 14 33.5
s20.666 13.5 33.999 13.5zM235 860c13.333 0 24.666 -4.5 33.999 -13.5s14 -20.167 14 -33.5s-4.66699 -24.5 -14 -33.5s-20.666 -13.5 -33.999 -13.5s-24.666 4.5 -33.999 13.5s-14 20.167 -14 33.5s4.66699 24.5 14 33.5s20.666 13.5 33.999 13.5z" />
    <glyph glyph-name="Igrave" unicode="&#xcc;" horiz-adv-x="217" 
d="M151 695v-695h-90v695h90zM75 741l-85 110l1 13h77l76 -123h-69z" />
    <glyph glyph-name="Iacute" unicode="&#xcd;" horiz-adv-x="217" 
d="M151 695v-695h-90v695h90zM62 745l76 123h77l1 -11l-85 -112h-69z" />
    <glyph glyph-name="Icircumflex" unicode="&#xce;" horiz-adv-x="217" 
d="M151 695v-695h-90v695h90zM128 863l116 -112v-11h-76l-60 60l-60 -60h-76v11l116 112h40z" />
    <glyph glyph-name="Idieresis" unicode="&#xcf;" horiz-adv-x="217" 
d="M151 695v-695h-90v695h90zM194 860c13.333 0 24.666 -4.5 33.999 -13.5s14 -20.167 14 -33.5s-4.66699 -24.5 -14 -33.5s-20.666 -13.5 -33.999 -13.5s-24.666 4.5 -33.999 13.5s-14 20.167 -14 33.5s4.66699 24.5 14 33.5s20.666 13.5 33.999 13.5zM16 860
c13.333 0 24.666 -4.5 33.999 -13.5s14 -20.167 14 -33.5s-4.66699 -24.5 -14 -33.5s-20.666 -13.5 -33.999 -13.5s-24.666 4.5 -33.999 13.5s-14 20.167 -14 33.5s4.66699 24.5 14 33.5s20.666 13.5 33.999 13.5z" />
    <glyph glyph-name="Eth" unicode="&#xd0;" horiz-adv-x="675" 
d="M366 0h-305.999v316h-71v62h71v317h304c49.333 0 91 -9.33301 125 -28s61.667 -44 83 -76s36.833 -69 46.5 -111s14.5 -86.333 14.5 -133c0 -50 -4.33301 -96.167 -13 -138.5s-23.334 -79 -44.001 -110s-48.167 -55.167 -82.5 -72.5s-76.833 -26 -127.5 -26zM150.001 82
h203.999c36.667 0 66.834 6.66699 90.501 20s42.167 31.833 55.5 55.5s22.5 51.667 27.5 84s7.5 67.5 7.5 105.5c0 36.667 -3 71.167 -9 103.5s-16 60.5 -30 84.5s-32.667 43 -56 57s-52.333 21 -87 21h-203v-235h158v-62h-158v-234z" />
    <glyph glyph-name="Ntilde" unicode="&#xd1;" horiz-adv-x="673" 
d="M60 0v695h115l347 -558v558h90v-695h-110l-352 569v-569h-90zM196 752c0 14 1.66699 27.4941 5 40.4941s8.66602 24.5 15.999 34.5s16.333 18 27 24s23.667 9 39 9c12 0 23.333 -2.16699 34 -6.5s20.834 -9.16602 30.501 -14.499s19.167 -10.166 28.5 -14.499
s18.666 -6.5 27.999 -6.5c16.667 0 28.334 4.33301 35.001 13s10 18.334 10 29.001h47c0 -32 -8 -58 -24 -78s-38.667 -30 -68 -30c-13.333 0 -25 2.33301 -35 7s-19.5 9.83398 -28.5 15.501s-18.167 10.834 -27.5 15.501s-19.333 7 -30 7
c-11.333 0 -20.833 -4.66699 -28.5 -14s-11.5 -19.666 -11.5 -30.999h-47z" />
    <glyph glyph-name="Ograve" unicode="&#xd2;" horiz-adv-x="732" 
d="M366 -12c-58 0 -107.667 9.33301 -149 28s-75 44.167 -101 76.5s-45.167 70.5 -57.5 114.5s-18.5 91 -18.5 141v27c0 47.333 7.5 91.333 22.5 132s36.5 75.834 64.5 105.501s62.167 52.834 102.5 69.501s85.833 25 136.5 25s96.167 -8.33301 136.5 -25
s74.5 -39.834 102.5 -69.501s49.5 -64.834 64.5 -105.501s22.5 -84.667 22.5 -132v-27c0 -50 -6.16699 -97 -18.5 -141s-31.5 -82.167 -57.5 -114.5s-59.667 -57.833 -101 -76.5s-91 -28 -149 -28zM366 624c-37.333 0 -70.332 -6.66602 -98.999 -19.999
s-52.834 -31.333 -72.501 -54s-34.667 -49.334 -45 -80.001s-15.5 -63 -15.5 -97v-23c0 -38 4.5 -73.833 13.5 -107.5s22.833 -63.334 41.5 -89.001s42.5 -46 71.5 -61s63.5 -22.5 103.5 -22.5c41.333 0 76.833 7.16699 106.5 21.5s54 34 73 59s32.833 54.5 41.5 88.5
s13 71 13 111v23c0 34 -5.16699 66.333 -15.5 97s-25.333 57.334 -45 80.001s-44 40.667 -73 54s-61.833 20 -98.5 20zM348.001 752.001l-85 110l1 13h77l76 -123h-69z" />
    <glyph glyph-name="Oacute" unicode="&#xd3;" horiz-adv-x="732" 
d="M366 -12c-58 0 -107.667 9.33301 -149 28s-75 44.167 -101 76.5s-45.167 70.5 -57.5 114.5s-18.5 91 -18.5 141v27c0 47.333 7.5 91.333 22.5 132s36.5 75.834 64.5 105.501s62.167 52.834 102.5 69.501s85.833 25 136.5 25s96.167 -8.33301 136.5 -25
s74.5 -39.834 102.5 -69.501s49.5 -64.834 64.5 -105.501s22.5 -84.667 22.5 -132v-27c0 -50 -6.16699 -97 -18.5 -141s-31.5 -82.167 -57.5 -114.5s-59.667 -57.833 -101 -76.5s-91 -28 -149 -28zM366 624c-37.333 0 -70.332 -6.66602 -98.999 -19.999
s-52.834 -31.333 -72.501 -54s-34.667 -49.334 -45 -80.001s-15.5 -63 -15.5 -97v-23c0 -38 4.5 -73.833 13.5 -107.5s22.833 -63.334 41.5 -89.001s42.5 -46 71.5 -61s63.5 -22.5 103.5 -22.5c41.333 0 76.833 7.16699 106.5 21.5s54 34 73 59s32.833 54.5 41.5 88.5
s13 71 13 111v23c0 34 -5.16699 66.333 -15.5 97s-25.333 57.334 -45 80.001s-44 40.667 -73 54s-61.833 20 -98.5 20zM324.001 755.001l76 123h77l1 -11l-85 -112h-69z" />
    <glyph glyph-name="Ocircumflex" unicode="&#xd4;" horiz-adv-x="732" 
d="M366 -12c-58 0 -107.667 9.33301 -149 28s-75 44.167 -101 76.5s-45.167 70.5 -57.5 114.5s-18.5 91 -18.5 141v27c0 47.333 7.5 91.333 22.5 132s36.5 75.834 64.5 105.501s62.167 52.834 102.5 69.501s85.833 25 136.5 25s96.167 -8.33301 136.5 -25
s74.5 -39.834 102.5 -69.501s49.5 -64.834 64.5 -105.501s22.5 -84.667 22.5 -132v-27c0 -50 -6.16699 -97 -18.5 -141s-31.5 -82.167 -57.5 -114.5s-59.667 -57.833 -101 -76.5s-91 -28 -149 -28zM366 624c-37.333 0 -70.332 -6.66602 -98.999 -19.999
s-52.834 -31.333 -72.501 -54s-34.667 -49.334 -45 -80.001s-15.5 -63 -15.5 -97v-23c0 -38 4.5 -73.833 13.5 -107.5s22.833 -63.334 41.5 -89.001s42.5 -46 71.5 -61s63.5 -22.5 103.5 -22.5c41.333 0 76.833 7.16699 106.5 21.5s54 34 73 59s32.833 54.5 41.5 88.5
s13 71 13 111v23c0 34 -5.16699 66.333 -15.5 97s-25.333 57.334 -45 80.001s-44 40.667 -73 54s-61.833 20 -98.5 20zM387.001 879.001l116 -112v-11h-76l-60 60l-60 -60h-76v11l116 112h40z" />
    <glyph glyph-name="Otilde" unicode="&#xd5;" horiz-adv-x="732" 
d="M366 -12c-58 0 -107.667 9.33301 -149 28s-75 44.167 -101 76.5s-45.167 70.5 -57.5 114.5s-18.5 91 -18.5 141v27c0 47.333 7.5 91.333 22.5 132s36.5 75.834 64.5 105.501s62.167 52.834 102.5 69.501s85.833 25 136.5 25s96.167 -8.33301 136.5 -25
s74.5 -39.834 102.5 -69.501s49.5 -64.834 64.5 -105.501s22.5 -84.667 22.5 -132v-27c0 -50 -6.16699 -97 -18.5 -141s-31.5 -82.167 -57.5 -114.5s-59.667 -57.833 -101 -76.5s-91 -28 -149 -28zM366 624c-37.333 0 -70.332 -6.66602 -98.999 -19.999
s-52.834 -31.333 -72.501 -54s-34.667 -49.334 -45 -80.001s-15.5 -63 -15.5 -97v-23c0 -38 4.5 -73.833 13.5 -107.5s22.833 -63.334 41.5 -89.001s42.5 -46 71.5 -61s63.5 -22.5 103.5 -22.5c41.333 0 76.833 7.16699 106.5 21.5s54 34 73 59s32.833 54.5 41.5 88.5
s13 71 13 111v23c0 34 -5.16699 66.333 -15.5 97s-25.333 57.334 -45 80.001s-44 40.667 -73 54s-61.833 20 -98.5 20zM216.001 752.001c0 14 1.66699 27.4941 5 40.4941s8.66602 24.5 15.999 34.5s16.333 18 27 24s23.667 9 39 9c12 0 23.333 -2.16699 34 -6.5
s20.834 -9.16602 30.501 -14.499s19.167 -10.166 28.5 -14.499s18.666 -6.5 27.999 -6.5c16.667 0 28.334 4.33301 35.001 13s10 18.334 10 29.001h47c0 -32 -8 -58 -24 -78s-38.667 -30 -68 -30c-13.333 0 -25 2.33301 -35 7s-19.5 9.83398 -28.5 15.501
s-18.167 10.834 -27.5 15.501s-19.333 7 -30 7c-11.333 0 -20.833 -4.66699 -28.5 -14s-11.5 -19.666 -11.5 -30.999h-47z" />
    <glyph glyph-name="Odieresis" unicode="&#xd6;" horiz-adv-x="732" 
d="M366 -12c-58 0 -107.667 9.33301 -149 28s-75 44.167 -101 76.5s-45.167 70.5 -57.5 114.5s-18.5 91 -18.5 141v27c0 47.333 7.5 91.333 22.5 132s36.5 75.834 64.5 105.501s62.167 52.834 102.5 69.501s85.833 25 136.5 25s96.167 -8.33301 136.5 -25
s74.5 -39.834 102.5 -69.501s49.5 -64.834 64.5 -105.501s22.5 -84.667 22.5 -132v-27c0 -50 -6.16699 -97 -18.5 -141s-31.5 -82.167 -57.5 -114.5s-59.667 -57.833 -101 -76.5s-91 -28 -149 -28zM366 624c-37.333 0 -70.332 -6.66602 -98.999 -19.999
s-52.834 -31.333 -72.501 -54s-34.667 -49.334 -45 -80.001s-15.5 -63 -15.5 -97v-23c0 -38 4.5 -73.833 13.5 -107.5s22.833 -63.334 41.5 -89.001s42.5 -46 71.5 -61s63.5 -22.5 103.5 -22.5c41.333 0 76.833 7.16699 106.5 21.5s54 34 73 59s32.833 54.5 41.5 88.5
s13 71 13 111v23c0 34 -5.16699 66.333 -15.5 97s-25.333 57.334 -45 80.001s-44 40.667 -73 54s-61.833 20 -98.5 20zM455.001 860.001c13.333 0 24.666 -4.5 33.999 -13.5s14 -20.167 14 -33.5s-4.66699 -24.5 -14 -33.5s-20.666 -13.5 -33.999 -13.5
s-24.666 4.5 -33.999 13.5s-14 20.167 -14 33.5s4.66699 24.5 14 33.5s20.666 13.5 33.999 13.5zM277.001 860.001c13.333 0 24.666 -4.5 33.999 -13.5s14 -20.167 14 -33.5s-4.66699 -24.5 -14 -33.5s-20.666 -13.5 -33.999 -13.5s-24.666 4.5 -33.999 13.5
s-14 20.167 -14 33.5s4.66699 24.5 14 33.5s20.666 13.5 33.999 13.5z" />
    <glyph glyph-name="multiply" unicode="&#xd7;" horiz-adv-x="499" 
d="M453 461l-151 -148l151 -147l-56 -56l-151 147l-144 -147l-56 55l148 148l-148 148l56 56l148 -148l147 148z" />
    <glyph glyph-name="Oslash" unicode="&#xd8;" horiz-adv-x="732" 
d="M366 -12c-58 0 -107.668 9.33008 -149.001 27.9971c-24 10.667 -45.333 23.667 -64 39l-68 -76l-47 40l72 81c-23.333 30.667 -40.666 66.334 -51.999 107.001c-12 44 -18 91 -18 141v27c0 47.333 7.5 91.333 22.5 132s36.5 75.834 64.5 105.501
s62.167 52.834 102.5 69.501s85.833 25 136.5 25s96 -8.33301 136 -25c31.333 -13.333 59 -30.333 83 -51l60 67l47 -40l-65 -73c17.333 -23.333 31.333 -49.333 42 -78c15.333 -40.667 23 -84.667 23 -132v-27c0 -50 -6.16699 -97 -18.5 -141s-31.5 -82.167 -57.5 -114.5
s-59.667 -57.833 -101 -76.5s-91 -28 -149 -28zM365.999 623.997c-37.333 0 -70.332 -6.66699 -98.999 -20s-52.834 -31.333 -72.501 -54s-34.667 -49.334 -45 -80.001s-15.5 -63 -15.5 -97v-23c0 -38 4.33301 -74 13 -108c6.66699 -25.333 16.334 -48.333 29.001 -69
l348 390c-16.667 16.667 -36.667 30.334 -60 41.001c-28.667 13.333 -61.334 20 -98.001 20zM260 91.9971c29.333 -14.667 63.999 -21.998 103.999 -21.998c41.333 0 76.833 7.16699 106.5 21.5s54 34 73 59s32.833 54.5 41.5 88.5s13 71 13 111v23
c0 34 -5.33301 66.333 -16 97c-5.33301 15.333 -11.666 29.666 -18.999 42.999l-348 -389c13.333 -12.667 28.333 -23.334 45 -32.001z" />
    <glyph glyph-name="Ugrave" unicode="&#xd9;" horiz-adv-x="651" 
d="M143 695v-400.002c0 -36 2 -67.833 6 -95.5s12.5 -51.167 25.5 -70.5s31.5 -34 55.5 -44s56 -15 96 -15c38.667 0 70 5.16699 94 15.5s42.667 25.333 56 45s22.166 43.334 26.499 71.001s6.5 58.834 6.5 93.501v400h90v-396c0 -48 -4.33301 -91.167 -13 -129.5
s-23.5 -71 -44.5 -98s-49 -47.667 -84 -62s-78.833 -21.5 -131.5 -21.5c-53.333 0 -97.666 7 -132.999 21s-63.333 34.167 -84 60.5s-35.167 58.833 -43.5 97.5s-12.5 82.667 -12.5 132v396h90zM323 736.998l-85 110l1 13h77l76 -123h-69z" />
    <glyph glyph-name="Uacute" unicode="&#xda;" horiz-adv-x="651" 
d="M143 695v-400.002c0 -36 2 -67.833 6 -95.5s12.5 -51.167 25.5 -70.5s31.5 -34 55.5 -44s56 -15 96 -15c38.667 0 70 5.16699 94 15.5s42.667 25.333 56 45s22.166 43.334 26.499 71.001s6.5 58.834 6.5 93.501v400h90v-396c0 -48 -4.33301 -91.167 -13 -129.5
s-23.5 -71 -44.5 -98s-49 -47.667 -84 -62s-78.833 -21.5 -131.5 -21.5c-53.333 0 -97.666 7 -132.999 21s-63.333 34.167 -84 60.5s-35.167 58.833 -43.5 97.5s-12.5 82.667 -12.5 132v396h90zM277 738.998l76 123h77l1 -11l-85 -112h-69z" />
    <glyph glyph-name="Ucircumflex" unicode="&#xdb;" horiz-adv-x="651" 
d="M143 695v-400.002c0 -36 2 -67.833 6 -95.5s12.5 -51.167 25.5 -70.5s31.5 -34 55.5 -44s56 -15 96 -15c38.667 0 70 5.16699 94 15.5s42.667 25.333 56 45s22.166 43.334 26.499 71.001s6.5 58.834 6.5 93.501v400h90v-396c0 -48 -4.33301 -91.167 -13 -129.5
s-23.5 -71 -44.5 -98s-49 -47.667 -84 -62s-78.833 -21.5 -131.5 -21.5c-53.333 0 -97.666 7 -132.999 21s-63.333 34.167 -84 60.5s-35.167 58.833 -43.5 97.5s-12.5 82.667 -12.5 132v396h90zM356 859.998l116 -112v-11h-76l-60 60l-60 -60h-76v11l116 112h40z" />
    <glyph glyph-name="Udieresis" unicode="&#xdc;" horiz-adv-x="651" 
d="M143 695v-400.002c0 -36 2 -67.833 6 -95.5s12.5 -51.167 25.5 -70.5s31.5 -34 55.5 -44s56 -15 96 -15c38.667 0 70 5.16699 94 15.5s42.667 25.333 56 45s22.166 43.334 26.499 71.001s6.5 58.834 6.5 93.501v400h90v-396c0 -48 -4.33301 -91.167 -13 -129.5
s-23.5 -71 -44.5 -98s-49 -47.667 -84 -62s-78.833 -21.5 -131.5 -21.5c-53.333 0 -97.666 7 -132.999 21s-63.333 34.167 -84 60.5s-35.167 58.833 -43.5 97.5s-12.5 82.667 -12.5 132v396h90zM424 859.998c13.333 0 24.666 -4.5 33.999 -13.5s14 -20.167 14 -33.5
s-4.66699 -24.5 -14 -33.5s-20.666 -13.5 -33.999 -13.5s-24.666 4.5 -33.999 13.5s-14 20.167 -14 33.5s4.66699 24.5 14 33.5s20.666 13.5 33.999 13.5zM246 859.998c13.333 0 24.666 -4.5 33.999 -13.5s14 -20.167 14 -33.5s-4.66699 -24.5 -14 -33.5
s-20.666 -13.5 -33.999 -13.5s-24.666 4.5 -33.999 13.5s-14 20.167 -14 33.5s4.66699 24.5 14 33.5s20.666 13.5 33.999 13.5z" />
    <glyph glyph-name="Yacute" unicode="&#xdd;" horiz-adv-x="617" 
d="M605 683l-229.999 -359c-4.66699 -6.66699 -11.334 -10 -20.001 -10v-314h-93v314c-8 0 -14.667 3.33301 -20 10l-230 359l89 24l198 -313h20l197 313zM256.001 737l76 123h77l1 -11l-85 -112h-69z" />
    <glyph glyph-name="Thorn" unicode="&#xde;" horiz-adv-x="611" 
d="M60 695h92v-141h210c145.333 0 218 -69 218 -207c0 -68.667 -19 -120.167 -57 -154.5s-93.333 -51.5 -166 -51.5h-205v-141h-92v695zM152 472l-0.000976562 -250h205c46.667 0 80.667 9.83301 102 29.5s32 51.5 32 95.5s-9.66699 75.833 -29 95.5
s-52.666 29.5 -99.999 29.5h-210z" />
    <glyph glyph-name="germandbls" unicode="&#xdf;" horiz-adv-x="569" 
d="M275 364c0 18 3.66699 34.8301 11 50.4971s15.333 31.334 24 47.001s16.667 31.334 24 47.001s11 32.167 11 49.5c0 15.333 -3.33301 28 -10 38s-14.834 17.833 -24.501 23.5s-19.834 9.66699 -30.501 12s-20 3.5 -28 3.5c-20.667 0 -38 -3.33301 -52 -10
s-25.333 -16.167 -34 -28.5s-14.834 -27 -18.501 -44s-5.5 -35.5 -5.5 -55.5v-497h-86v497c0 31.333 4 60 12 86s20 48.167 36 66.5s36.333 32.5 61 42.5s53.667 15 87 15c26.667 0 51.167 -3.5 73.5 -10.5s41.5 -17 57.5 -30s28.5 -28.667 37.5 -47
s13.5 -38.833 13.5 -61.5c0 -16 -3.66699 -32 -11 -48s-15.333 -31.667 -24 -47s-16.667 -30.166 -24 -44.499s-11 -27.833 -11 -40.5c0 -14 4.5 -26.167 13.5 -36.5s20.333 -20.333 34 -30s28.334 -19.334 44.001 -29.001s30.334 -20.834 44.001 -33.501
s25 -27.167 34 -43.5s13.5 -35.833 13.5 -58.5c0 -22 -4.66699 -42.667 -14 -62s-22 -36.166 -38 -50.499s-34.167 -25.666 -54.5 -33.999s-41.5 -12.5 -63.5 -12.5c-40.667 0 -75.667 9.83301 -105 29.5s-52.666 47.834 -69.999 84.501l73 35
c11.333 -22.667 24.833 -41.167 40.5 -55.5s36.167 -21.5 61.5 -21.5c22 0 40.667 7.66699 56 23s23 34.666 23 57.999c0 16 -4.5 30.167 -13.5 42.5s-20.167 23.666 -33.5 33.999s-27.833 20.333 -43.5 30s-30.167 20 -43.5 31s-24.5 23.333 -33.5 37
s-13.5 29.834 -13.5 48.501z" />
    <glyph glyph-name="agrave" unicode="&#xe0;" horiz-adv-x="536" 
d="M209 62c12 0 25.835 2.5 41.502 7.5s31.667 11.333 48 19s32 15.5 47 23.5l38.5 21v87h-187c-10.667 0 -20.667 -2.16699 -30 -6.5s-17.333 -10 -24 -17s-12 -15.333 -16 -25s-6 -19.5 -6 -29.5c0 -12 2.5 -22.833 7.5 -32.5s11.667 -18 20 -25
s17.666 -12.5 27.999 -16.5s21.166 -6 32.499 -6zM268.002 516c28 0 54.1699 -3.99805 78.5029 -11.998s45.666 -19.667 63.999 -35s32.833 -34.333 43.5 -57s16 -49 16 -79v-218c0 -23.333 2.16699 -43.333 6.5 -60s11.833 -35 22.5 -55h-92
c-5.33301 7.33301 -9.5 16.666 -12.5 27.999s-4.83301 21.666 -5.5 30.999c-27.333 -20 -57.5 -36.833 -90.5 -50.5s-66.5 -20.5 -100.5 -20.5c-22.667 0 -43.834 3.66699 -63.501 11s-36.834 17.833 -51.501 31.5s-26.167 30 -34.5 49s-12.5 40.167 -12.5 63.5
c0 22 4.33301 42.167 13 60.5s20.334 34.166 35.001 47.499s31.667 23.666 51 30.999s39.666 11 60.999 11h188v46c0 36 -10.833 62.167 -32.5 78.5s-49.5 24.833 -83.5 25.5c-30.667 0 -57 -3.66699 -79 -11s-46 -18.666 -72 -33.999l-37 64
c16 9.33301 31.167 17.333 45.5 24s29 12.334 44 17.001s30.5 8 46.5 10s33.333 3 52 3zM263.188 590.044l-72.9424 93.0273v23.9756h78.3857l56.6113 -117.003h-62.0547z" />
    <glyph glyph-name="aacute" unicode="&#xe1;" horiz-adv-x="536" 
d="M209 62c12 0 25.835 2.5 41.502 7.5s31.667 11.333 48 19s32 15.5 47 23.5l38.5 21v87h-187c-10.667 0 -20.667 -2.16699 -30 -6.5s-17.333 -10 -24 -17s-12 -15.333 -16 -25s-6 -19.5 -6 -29.5c0 -12 2.5 -22.833 7.5 -32.5s11.667 -18 20 -25
s17.666 -12.5 27.999 -16.5s21.166 -6 32.499 -6zM268.002 516c28 0 54.1699 -3.99805 78.5029 -11.998s45.666 -19.667 63.999 -35s32.833 -34.333 43.5 -57s16 -49 16 -79v-218c0 -23.333 2.16699 -43.333 6.5 -60s11.833 -35 22.5 -55h-92
c-5.33301 7.33301 -9.5 16.666 -12.5 27.999s-4.83301 21.666 -5.5 30.999c-27.333 -20 -57.5 -36.833 -90.5 -50.5s-66.5 -20.5 -100.5 -20.5c-22.667 0 -43.834 3.66699 -63.501 11s-36.834 17.833 -51.501 31.5s-26.167 30 -34.5 49s-12.5 40.167 -12.5 63.5
c0 22 4.33301 42.167 13 60.5s20.334 34.166 35.001 47.499s31.667 23.666 51 30.999s39.666 11 60.999 11h188v46c0 36 -10.833 62.167 -32.5 78.5s-49.5 24.833 -83.5 25.5c-30.667 0 -57 -3.66699 -79 -11s-46 -18.666 -72 -33.999l-37 64
c16 9.33301 31.167 17.333 45.5 24s29 12.334 44 17.001s30.5 8 46.5 10s33.333 3 52 3zM214.295 584.828l55.3545 118.001h76.6455v-24.1807l-71.3223 -93.8203h-60.6777z" />
    <glyph glyph-name="acircumflex" unicode="&#xe2;" horiz-adv-x="536" 
d="M209 62c12 0 25.835 2.5 41.502 7.5s31.667 11.333 48 19s32 15.5 47 23.5l38.5 21v87h-187c-10.667 0 -20.667 -2.16699 -30 -6.5s-17.333 -10 -24 -17s-12 -15.333 -16 -25s-6 -19.5 -6 -29.5c0 -12 2.5 -22.833 7.5 -32.5s11.667 -18 20 -25
s17.666 -12.5 27.999 -16.5s21.166 -6 32.499 -6zM268.002 516c28 0 54.1699 -3.99805 78.5029 -11.998s45.666 -19.667 63.999 -35s32.833 -34.333 43.5 -57s16 -49 16 -79v-218c0 -23.333 2.16699 -43.333 6.5 -60s11.833 -35 22.5 -55h-92
c-5.33301 7.33301 -9.5 16.666 -12.5 27.999s-4.83301 21.666 -5.5 30.999c-27.333 -20 -57.5 -36.833 -90.5 -50.5s-66.5 -20.5 -100.5 -20.5c-22.667 0 -43.834 3.66699 -63.501 11s-36.834 17.833 -51.501 31.5s-26.167 30 -34.5 49s-12.5 40.167 -12.5 63.5
c0 22 4.33301 42.167 13 60.5s20.334 34.166 35.001 47.499s31.667 23.666 51 30.999s39.666 11 60.999 11h188v46c0 36 -10.833 62.167 -32.5 78.5s-49.5 24.833 -83.5 25.5c-30.667 0 -57 -3.66699 -79 -11s-46 -18.666 -72 -33.999l-37 64
c16 9.33301 31.167 17.333 45.5 24s29 12.334 44 17.001s30.5 8 46.5 10s33.333 3 52 3zM295.005 707.002l116 -112v-11h-76l-60 60l-60 -60h-76v11l116 112h40z" />
    <glyph glyph-name="atilde" unicode="&#xe3;" horiz-adv-x="536" 
d="M209 62c12 0 25.835 2.5 41.502 7.5s31.667 11.333 48 19s32 15.5 47 23.5l38.5 21v87h-187c-10.667 0 -20.667 -2.16699 -30 -6.5s-17.333 -10 -24 -17s-12 -15.333 -16 -25s-6 -19.5 -6 -29.5c0 -12 2.5 -22.833 7.5 -32.5s11.667 -18 20 -25
s17.666 -12.5 27.999 -16.5s21.166 -6 32.499 -6zM268.002 516c28 0 54.1699 -3.99805 78.5029 -11.998s45.666 -19.667 63.999 -35s32.833 -34.333 43.5 -57s16 -49 16 -79v-218c0 -23.333 2.16699 -43.333 6.5 -60s11.833 -35 22.5 -55h-92
c-5.33301 7.33301 -9.5 16.666 -12.5 27.999s-4.83301 21.666 -5.5 30.999c-27.333 -20 -57.5 -36.833 -90.5 -50.5s-66.5 -20.5 -100.5 -20.5c-22.667 0 -43.834 3.66699 -63.501 11s-36.834 17.833 -51.501 31.5s-26.167 30 -34.5 49s-12.5 40.167 -12.5 63.5
c0 22 4.33301 42.167 13 60.5s20.334 34.166 35.001 47.499s31.667 23.666 51 30.999s39.666 11 60.999 11h188v46c0 36 -10.833 62.167 -32.5 78.5s-49.5 24.833 -83.5 25.5c-30.667 0 -57 -3.66699 -79 -11s-46 -18.666 -72 -33.999l-37 64
c16 9.33301 31.167 17.333 45.5 24s29 12.334 44 17.001s30.5 8 46.5 10s33.333 3 52 3zM131.005 599.002c0 14 1.66699 27.4941 5 40.4941s8.66602 24.5 15.999 34.5s16.333 18 27 24s23.667 9 39 9c12 0 23.333 -2.16699 34 -6.5s20.834 -9.16602 30.501 -14.499
s19.167 -10.166 28.5 -14.499s18.666 -6.5 27.999 -6.5c16.667 0 28.334 4.33301 35.001 13s10 18.334 10 29.001h47c0 -32 -8 -58 -24 -78s-38.667 -30 -68 -30c-13.333 0 -25 2.33301 -35 7s-19.5 9.83398 -28.5 15.501s-18.167 10.834 -27.5 15.501s-19.333 7 -30 7
c-11.333 0 -20.833 -4.66699 -28.5 -14s-11.5 -19.666 -11.5 -30.999h-47z" />
    <glyph glyph-name="adieresis" unicode="&#xe4;" horiz-adv-x="536" 
d="M209 62c12 0 25.835 2.5 41.502 7.5s31.667 11.333 48 19s32 15.5 47 23.5l38.5 21v87h-187c-10.667 0 -20.667 -2.16699 -30 -6.5s-17.333 -10 -24 -17s-12 -15.333 -16 -25s-6 -19.5 -6 -29.5c0 -12 2.5 -22.833 7.5 -32.5s11.667 -18 20 -25
s17.666 -12.5 27.999 -16.5s21.166 -6 32.499 -6zM268.002 516c28 0 54.1699 -3.99805 78.5029 -11.998s45.666 -19.667 63.999 -35s32.833 -34.333 43.5 -57s16 -49 16 -79v-218c0 -23.333 2.16699 -43.333 6.5 -60s11.833 -35 22.5 -55h-92
c-5.33301 7.33301 -9.5 16.666 -12.5 27.999s-4.83301 21.666 -5.5 30.999c-27.333 -20 -57.5 -36.833 -90.5 -50.5s-66.5 -20.5 -100.5 -20.5c-22.667 0 -43.834 3.66699 -63.501 11s-36.834 17.833 -51.501 31.5s-26.167 30 -34.5 49s-12.5 40.167 -12.5 63.5
c0 22 4.33301 42.167 13 60.5s20.334 34.166 35.001 47.499s31.667 23.666 51 30.999s39.666 11 60.999 11h188v46c0 36 -10.833 62.167 -32.5 78.5s-49.5 24.833 -83.5 25.5c-30.667 0 -57 -3.66699 -79 -11s-46 -18.666 -72 -33.999l-37 64
c16 9.33301 31.167 17.333 45.5 24s29 12.334 44 17.001s30.5 8 46.5 10s33.333 3 52 3zM354.005 707.002c13.333 0 24.666 -4.5 33.999 -13.5s14 -20.167 14 -33.5s-4.66699 -24.5 -14 -33.5s-20.666 -13.5 -33.999 -13.5s-24.666 4.5 -33.999 13.5s-14 20.167 -14 33.5
s4.66699 24.5 14 33.5s20.666 13.5 33.999 13.5zM176.005 707.002c13.333 0 24.666 -4.5 33.999 -13.5s14 -20.167 14 -33.5s-4.66699 -24.5 -14 -33.5s-20.666 -13.5 -33.999 -13.5s-24.666 4.5 -33.999 13.5s-14 20.167 -14 33.5s4.66699 24.5 14 33.5
s20.666 13.5 33.999 13.5z" />
    <glyph glyph-name="aring" unicode="&#xe5;" horiz-adv-x="536" 
d="M209 62c12 0 25.835 2.5 41.502 7.5s31.667 11.333 48 19s32 15.5 47 23.5l38.5 21v87h-187c-10.667 0 -20.667 -2.16699 -30 -6.5s-17.333 -10 -24 -17s-12 -15.333 -16 -25s-6 -19.5 -6 -29.5c0 -12 2.5 -22.833 7.5 -32.5s11.667 -18 20 -25
s17.666 -12.5 27.999 -16.5s21.166 -6 32.499 -6zM268.002 516c28 0 54.1699 -3.99805 78.5029 -11.998s45.666 -19.667 63.999 -35s32.833 -34.333 43.5 -57s16 -49 16 -79v-218c0 -23.333 2.16699 -43.333 6.5 -60s11.833 -35 22.5 -55h-92
c-5.33301 7.33301 -9.5 16.666 -12.5 27.999s-4.83301 21.666 -5.5 30.999c-27.333 -20 -57.5 -36.833 -90.5 -50.5s-66.5 -20.5 -100.5 -20.5c-22.667 0 -43.834 3.66699 -63.501 11s-36.834 17.833 -51.501 31.5s-26.167 30 -34.5 49s-12.5 40.167 -12.5 63.5
c0 22 4.33301 42.167 13 60.5s20.334 34.166 35.001 47.499s31.667 23.666 51 30.999s39.666 11 60.999 11h188v46c0 36 -10.833 62.167 -32.5 78.5s-49.5 24.833 -83.5 25.5c-30.667 0 -57 -3.66699 -79 -11s-46 -18.666 -72 -33.999l-37 64
c16 9.33301 31.167 17.333 45.5 24s29 12.334 44 17.001s30.5 8 46.5 10s33.333 3 52 3zM260.005 673.543c-14 0 -26 -4.60742 -36 -13.8213s-15 -20.8105 -15 -34.79c0 -13.3447 5 -24.7832 15 -34.3154s22 -14.2979 36 -14.2979c14.667 0 26.834 4.76562 36.501 14.2979
s14.5 20.9707 14.5 34.3154c0 13.9795 -4.83301 25.5762 -14.5 34.79s-21.834 13.8213 -36.501 13.8213zM260.005 706.904c12 0 23.167 -2.22461 33.5 -6.67285s19.333 -10.3262 27 -17.6338s13.834 -15.8867 18.501 -25.7363s7 -20.4932 7 -31.9316
s-2.33301 -22.082 -7 -31.9316s-10.834 -18.4287 -18.501 -25.7363s-16.667 -13.0264 -27 -17.1562s-21.5 -6.19531 -33.5 -6.19531c-23.333 0 -43.333 7.94336 -60 23.8291c-16.667 15.8867 -25 34.9502 -25 57.1914c0 11.4385 2.16699 22.082 6.5 31.9316
s10.333 18.4287 18 25.7363s16.667 13.1855 27 17.6338s21.5 6.67188 33.5 6.67188z" />
    <glyph glyph-name="ae" unicode="&#xe6;" horiz-adv-x="880" 
d="M266 517c34 0 66.333 -6 97 -18s55.667 -31 75 -57c23.333 26 52.166 45 86.499 57s68.166 18 101.499 18c35.333 0 66.833 -6.16699 94.5 -18.5s50.834 -29.166 69.501 -50.499s32.834 -46.833 42.501 -76.5s14.5 -61.5 14.5 -95.5v-45h-379v-10
c1.33301 -54.667 17.166 -94.834 47.499 -120.501s72.5 -38.5 126.5 -38.5c49.333 0 89 21 119 63l75 -31c-21.333 -34 -49.333 -60.167 -84 -78.5s-72.334 -27.5 -113.001 -27.5c-39.333 0 -77.333 5.5 -114 16.5s-67 31.167 -91 60.5c-34 -23.333 -71.667 -42 -113 -56
s-83 -21 -125 -21c-22.667 0 -43.834 3.83301 -63.501 11.5s-36.667 18.5 -51 32.5s-25.666 30.5 -33.999 49.5s-12.5 39.833 -12.5 62.5c0 22 4.33301 42.167 13 60.5s20.334 34.166 35.001 47.499s31.667 23.833 51 31.5s39.666 11.5 60.999 11.5h188v45
c0 36.667 -10.667 62.834 -32 78.501s-49.666 23.5 -84.999 23.5c-30.667 0 -57.167 -3.66699 -79.5 -11s-46.166 -18.666 -71.499 -33.999l-36 65c16 9.33301 31.167 17.5 45.5 24.5s28.833 12.667 43.5 17s30 7.66602 46 9.99902s33.333 3.5 52 3.5zM383 221
l-188 -0.000976562c-21.333 0 -39.333 -7.5 -54 -22.5s-22 -33.167 -22 -54.5c0 -25.333 8.33301 -45.333 25 -60s37.667 -22 63 -22c34 0 67.667 6.83301 101 20.5s63.666 29.834 90.999 48.501c-5.33301 15.333 -9.16602 30.5 -11.499 45.5s-3.83301 29.833 -4.5 44.5z
M468 300.999l293.001 -0.000976562v8c0 20 -3.66699 38.167 -11 54.5s-17.333 30.333 -30 42s-27 20.667 -43 27s-33 9.5 -51 9.5c-21.333 0 -41.333 -3.66699 -60 -11s-35.167 -17.333 -49.5 -30s-25.833 -27.667 -34.5 -45s-13.334 -35.666 -14.001 -54.999z" />
    <glyph glyph-name="ccedilla" unicode="&#xe7;" horiz-adv-x="484" 
d="M290 516c30 0 59.667 -5.33691 89 -16.0039s54.666 -26.667 75.999 -48l-53 -52c-14.667 12.667 -30.834 22.834 -48.501 30.501s-40.167 11.5 -67.5 11.5c-22.667 0 -43.667 -3.83301 -63 -11.5s-36 -19.167 -50 -34.5c-14.667 -16 -25.667 -35.333 -33 -58
s-11 -45.667 -11 -69v-16c0 -29.333 4 -57.5 12 -84.5s21.333 -49.5 40 -67.5c12.667 -12 27.5 -21.5 44.5 -28.5s37.167 -10.5 60.5 -10.5c20 0 41.167 3.33301 63.5 10s40.166 18 53.499 34l53 -51c-22 -23.333 -47.833 -40.333 -77.5 -51s-60.5 -16 -92.5 -16
c-26.667 0 -54.5 4 -83.5 12s-54.167 20.667 -75.5 38c-18 14.667 -32.833 31.5 -44.5 50.5s-20.167 41.167 -25.5 66.5c-3.33301 16 -5.5 32 -6.5 48s-1.5 32 -1.5 48v19c0 16 0.5 31.333 1.5 46s3.33301 28.834 7 42.501s9 27.334 16 41.001s16.833 27.834 29.5 42.501
c10.667 12.667 23.334 23.667 38.001 33s30.334 17 47.001 23s33.834 10.5 51.501 13.5s34.5 4.5 50.5 4.5zM279 5.99609l-21.001 -70.0029c15.333 -3.33301 28.666 -10.666 39.999 -21.999s17 -25.333 17 -42c0 -13.333 -2.83301 -24.833 -8.5 -34.5
s-13.167 -17.667 -22.5 -24s-19.666 -11.166 -30.999 -14.499s-22.333 -5 -33 -5c-12.667 0 -26.167 1 -40.5 3s-27.5 5.33301 -39.5 10l8 42c9.33301 -3.33301 19.333 -5.66602 30 -6.99902s20.667 -2 30 -2c12 0 23.167 3 33.5 9s15.5 14.667 15.5 26
c0 9.33301 -4.66699 18.333 -14 27s-21.666 13.667 -36.999 15l26 92z" />
    <glyph glyph-name="egrave" unicode="&#xe8;" horiz-adv-x="547" 
d="M133 230c0 -58.667 13.501 -101.334 40.501 -128.001s67.833 -40 122.5 -40c26.667 0 49.334 5.5 68.001 16.5s35.334 26.167 50.001 45.5l76 -31c-19.333 -32.667 -46.333 -58.334 -81 -77.001s-74 -28 -118 -28c-44.667 0 -82.5 6.16699 -113.5 18.5
s-56.167 29.666 -75.5 51.999s-33.333 49.333 -42 81s-13 66.834 -13 105.501v11c0 16.667 0.333008 32.834 1 48.501s2.66699 31.167 6 46.5s8.66602 30.5 15.999 45.5s17.666 29.833 30.999 44.5c22.667 25.333 49.667 44.166 81 56.499s63.666 18.5 96.999 18.5
c37.333 0 70.5 -6 99.5 -18s53.333 -28.667 73 -50s34.5 -46.666 44.5 -75.999s15 -61.666 15 -96.999v-45h-378zM133.001 300l292.001 -0.000976562v9c0 16.667 -3.33301 33 -10 49s-16.334 30.167 -29.001 42.5s-28 22.333 -46 30s-38.333 11.5 -61 11.5
c-21.333 0 -41 -3.66699 -59 -11s-33.5 -17.166 -46.5 -29.499s-23 -26.5 -30 -42.5s-10.5 -32.667 -10.5 -50v-9zM252.002 584.999l-67 97v25h72l52 -122h-57z" />
    <glyph glyph-name="eacute" unicode="&#xe9;" horiz-adv-x="547" 
d="M133 230c0 -58.667 13.501 -101.334 40.501 -128.001s67.833 -40 122.5 -40c26.667 0 49.334 5.5 68.001 16.5s35.334 26.167 50.001 45.5l76 -31c-19.333 -32.667 -46.333 -58.334 -81 -77.001s-74 -28 -118 -28c-44.667 0 -82.5 6.16699 -113.5 18.5
s-56.167 29.666 -75.5 51.999s-33.333 49.333 -42 81s-13 66.834 -13 105.501v11c0 16.667 0.333008 32.834 1 48.501s2.66699 31.167 6 46.5s8.66602 30.5 15.999 45.5s17.666 29.833 30.999 44.5c22.667 25.333 49.667 44.166 81 56.499s63.666 18.5 96.999 18.5
c37.333 0 70.5 -6 99.5 -18s53.333 -28.667 73 -50s34.5 -46.666 44.5 -75.999s15 -61.666 15 -96.999v-45h-378zM133.001 300l292.001 -0.000976562v9c0 16.667 -3.33301 33 -10 49s-16.334 30.167 -29.001 42.5s-28 22.333 -46 30s-38.333 11.5 -61 11.5
c-21.333 0 -41 -3.66699 -59 -11s-33.5 -17.166 -46.5 -29.499s-23 -26.5 -30 -42.5s-10.5 -32.667 -10.5 -50v-9zM241.002 584.999l52 122h72v-25l-67 -97h-57z" />
    <glyph glyph-name="ecircumflex" unicode="&#xea;" horiz-adv-x="547" 
d="M133 230c0 -58.667 13.501 -101.334 40.501 -128.001s67.833 -40 122.5 -40c26.667 0 49.334 5.5 68.001 16.5s35.334 26.167 50.001 45.5l76 -31c-19.333 -32.667 -46.333 -58.334 -81 -77.001s-74 -28 -118 -28c-44.667 0 -82.5 6.16699 -113.5 18.5
s-56.167 29.666 -75.5 51.999s-33.333 49.333 -42 81s-13 66.834 -13 105.501v11c0 16.667 0.333008 32.834 1 48.501s2.66699 31.167 6 46.5s8.66602 30.5 15.999 45.5s17.666 29.833 30.999 44.5c22.667 25.333 49.667 44.166 81 56.499s63.666 18.5 96.999 18.5
c37.333 0 70.5 -6 99.5 -18s53.333 -28.667 73 -50s34.5 -46.666 44.5 -75.999s15 -61.666 15 -96.999v-45h-378zM133.001 300l292.001 -0.000976562v9c0 16.667 -3.33301 33 -10 49s-16.334 30.167 -29.001 42.5s-28 22.333 -46 30s-38.333 11.5 -61 11.5
c-21.333 0 -41 -3.66699 -59 -11s-33.5 -17.166 -46.5 -29.499s-23 -26.5 -30 -42.5s-10.5 -32.667 -10.5 -50v-9zM302.002 706.999l116 -112v-11h-76l-60 60l-60 -60h-76v11l116 112h40z" />
    <glyph glyph-name="edieresis" unicode="&#xeb;" horiz-adv-x="547" 
d="M133 230c0 -58.667 13.501 -101.334 40.501 -128.001s67.833 -40 122.5 -40c26.667 0 49.334 5.5 68.001 16.5s35.334 26.167 50.001 45.5l76 -31c-19.333 -32.667 -46.333 -58.334 -81 -77.001s-74 -28 -118 -28c-44.667 0 -82.5 6.16699 -113.5 18.5
s-56.167 29.666 -75.5 51.999s-33.333 49.333 -42 81s-13 66.834 -13 105.501v11c0 16.667 0.333008 32.834 1 48.501s2.66699 31.167 6 46.5s8.66602 30.5 15.999 45.5s17.666 29.833 30.999 44.5c22.667 25.333 49.667 44.166 81 56.499s63.666 18.5 96.999 18.5
c37.333 0 70.5 -6 99.5 -18s53.333 -28.667 73 -50s34.5 -46.666 44.5 -75.999s15 -61.666 15 -96.999v-45h-378zM133.001 300l292.001 -0.000976562v9c0 16.667 -3.33301 33 -10 49s-16.334 30.167 -29.001 42.5s-28 22.333 -46 30s-38.333 11.5 -61 11.5
c-21.333 0 -41 -3.66699 -59 -11s-33.5 -17.166 -46.5 -29.499s-23 -26.5 -30 -42.5s-10.5 -32.667 -10.5 -50v-9zM370.002 706.999c13.333 0 24.666 -4.5 33.999 -13.5s14 -20.167 14 -33.5s-4.66699 -24.5 -14 -33.5s-20.666 -13.5 -33.999 -13.5
s-24.666 4.5 -33.999 13.5s-14 20.167 -14 33.5s4.66699 24.5 14 33.5s20.666 13.5 33.999 13.5zM192.002 706.999c13.333 0 24.666 -4.5 33.999 -13.5s14 -20.167 14 -33.5s-4.66699 -24.5 -14 -33.5s-20.666 -13.5 -33.999 -13.5s-24.666 4.5 -33.999 13.5
s-14 20.167 -14 33.5s4.66699 24.5 14 33.5s20.666 13.5 33.999 13.5z" />
    <glyph glyph-name="igrave" unicode="&#xec;" horiz-adv-x="170" 
d="M42 0v504h86v-504h-86zM52 585l-50 108v14h72l52 -122h-74z" />
    <glyph glyph-name="iacute" unicode="&#xed;" horiz-adv-x="171" 
d="M41 0v504h86v-504h-86zM37 585l52 122h72v-15l-58 -107h-66z" />
    <glyph glyph-name="icircumflex" unicode="&#xee;" horiz-adv-x="242" 
d="M78 0v504h86v-504h-86zM144 707l84 -113v-9h-60l-47 59l-47 -59h-60v10l84 112h46z" />
    <glyph glyph-name="idieresis" unicode="&#xef;" horiz-adv-x="293" 
d="M102 0v504h86v-504h-86zM234 707c13.333 0 24.666 -4.5 33.999 -13.5s14 -20.167 14 -33.5s-4.66699 -24.5 -14 -33.5s-20.666 -13.5 -33.999 -13.5s-24.666 4.5 -33.999 13.5s-14 20.167 -14 33.5s4.66699 24.5 14 33.5s20.666 13.5 33.999 13.5zM56 707
c13.333 0 24.666 -4.5 33.999 -13.5s14 -20.167 14 -33.5s-4.66699 -24.5 -14 -33.5s-20.666 -13.5 -33.999 -13.5s-24.666 4.5 -33.999 13.5s-14 20.167 -14 33.5s4.66699 24.5 14 33.5s20.666 13.5 33.999 13.5z" />
    <glyph glyph-name="eth" unicode="&#xf0;" horiz-adv-x="498" 
d="M392 246l-0.00195312 23.999c-0.666992 22.667 -4.33398 43.834 -11.001 63.501s-16.167 36.834 -28.5 51.501s-27.5 26 -45.5 34s-38.667 12 -62 12c-24 0 -45 -4.16699 -63 -12.5s-33.167 -20 -45.5 -35s-21.666 -32.833 -27.999 -53.5s-9.5 -43 -9.5 -67v-17
c0 -26 2.33301 -50.333 7 -73s12.834 -42.334 24.501 -59.001s26.834 -29.834 45.501 -39.501s42 -14.5 70 -14.5c27.333 0 50.333 5 69 15s33.667 23.5 45 40.5s19.5 36.833 24.5 59.5s7.5 46.334 7.5 71.001zM150.998 524.999l-24.002 45.002l97 45
c-32.667 31.333 -66.334 58 -101.001 80l42 52c25.333 -14 49 -29.167 71 -45.5s42.667 -33.833 62 -52.5l97 46l24 -46l-84 -39c41.333 -47.333 73 -99.333 95 -156s33.667 -118 35 -184v-25c0 -35.333 -3.83301 -68.5 -11.5 -99.5s-23.5 -60.167 -47.5 -87.5
c-21.333 -24 -45.833 -41.667 -73.5 -53s-57.167 -17 -88.5 -17c-30 0 -59 5.83301 -87 17.5s-52.667 29.167 -74 52.5c-23.333 25.333 -38.5 54 -45.5 86s-10.5 66 -10.5 102v17c0 16.667 0.833008 32.5 2.5 47.5s4.66699 29.333 9 43s10.333 27.167 18 40.5
s17.5 26.666 29.5 39.999c21.333 23.333 45.333 40.666 72 51.999s55.334 17 86.001 17c28 0 54.333 -4.66699 79 -14c-9.33301 15.333 -19.166 30.333 -29.499 45s-21.166 28.667 -32.499 42z" />
    <glyph glyph-name="ntilde" unicode="&#xf1;" horiz-adv-x="535" 
d="M284 442c-30 0 -56.501 -5.83594 -79.501 -17.5029s-39.167 -22.5 -48.5 -32.5v-392h-86v380c0 35.333 -7.66699 68.333 -23 99l79 37c5.33301 -9.33301 10 -18.666 14 -27.999s7.33301 -19.666 10 -30.999h6c14 17.333 33.5 31.5 58.5 42.5s48.833 16.5 71.5 16.5
c30.667 0 58.167 -4.83301 82.5 -14.5s44.833 -23 61.5 -40s29.334 -37 38.001 -60s13 -47.833 13 -74.5v-327h-86v328c0 34.667 -10.5 62.334 -31.5 83.001s-47.5 31 -79.5 31zM116.999 598.997c0 14 1.66699 27.4941 5 40.4941s8.66602 24.5 15.999 34.5s16.333 18 27 24
s23.667 9 39 9c12 0 23.333 -2.16699 34 -6.5s20.834 -9.16602 30.501 -14.499s19.167 -10.166 28.5 -14.499s18.666 -6.5 27.999 -6.5c16.667 0 28.334 4.33301 35.001 13s10 18.334 10 29.001h47c0 -32 -8 -58 -24 -78s-38.667 -30 -68 -30c-13.333 0 -25 2.33301 -35 7
s-19.5 9.83398 -28.5 15.501s-18.167 10.834 -27.5 15.501s-19.333 7 -30 7c-11.333 0 -20.833 -4.66699 -28.5 -14s-11.5 -19.666 -11.5 -30.999h-47z" />
    <glyph glyph-name="ograve" unicode="&#xf2;" horiz-adv-x="552" 
d="M437 252l-0.00195312 19.999c0 48.667 -12.667 88.334 -38 119.001c-13.333 16 -30 28.5 -50 37.5s-43 13.5 -69 13.5c-25.333 0 -47.666 -4.16699 -66.999 -12.5s-35.666 -20.166 -48.999 -35.499c-26.667 -30.667 -40 -71.667 -40 -123v-23c0 -28 3 -54 9 -78
s16.333 -44.667 31 -62c12 -14.667 27.5 -26 46.5 -34s42.167 -12 69.5 -12c25.333 0 47 3.66699 65 11s33.333 17.666 46 30.999c17.333 17.333 29.333 39 36 65s10 53.667 10 83zM452.998 59.999c-23.333 -24.667 -49.665 -42.8291 -78.998 -54.4961s-61 -17.5 -95 -17.5
c-32.667 0 -64 6 -94 18s-56.667 30 -80 54c-25.333 25.333 -41.833 54.666 -49.5 87.999s-11.5 68 -11.5 104v19c0.666992 34.667 5 65.667 13 93s25 54.666 51 81.999c23.333 24 49.333 41.667 78 53s59.667 17 93 17s64.166 -5.5 92.499 -16.5
s54.166 -28.167 77.499 -51.5c24 -24.667 41.333 -51.334 52 -80.001s16 -60.334 16 -95.001v-21c0 -36 -4 -70 -12 -102s-25.333 -62 -52 -90zM272.999 585.004l-67 97v25h72l52 -122h-57z" />
    <glyph glyph-name="oacute" unicode="&#xf3;" horiz-adv-x="552" 
d="M437 252l-0.00195312 19.999c0 48.667 -12.667 88.334 -38 119.001c-13.333 16 -30 28.5 -50 37.5s-43 13.5 -69 13.5c-25.333 0 -47.666 -4.16699 -66.999 -12.5s-35.666 -20.166 -48.999 -35.499c-26.667 -30.667 -40 -71.667 -40 -123v-23c0 -28 3 -54 9 -78
s16.333 -44.667 31 -62c12 -14.667 27.5 -26 46.5 -34s42.167 -12 69.5 -12c25.333 0 47 3.66699 65 11s33.333 17.666 46 30.999c17.333 17.333 29.333 39 36 65s10 53.667 10 83zM452.998 59.999c-23.333 -24.667 -49.665 -42.8291 -78.998 -54.4961s-61 -17.5 -95 -17.5
c-32.667 0 -64 6 -94 18s-56.667 30 -80 54c-25.333 25.333 -41.833 54.666 -49.5 87.999s-11.5 68 -11.5 104v19c0.666992 34.667 5 65.667 13 93s25 54.666 51 81.999c23.333 24 49.333 41.667 78 53s59.667 17 93 17s64.166 -5.5 92.499 -16.5
s54.166 -28.167 77.499 -51.5c24 -24.667 41.333 -51.334 52 -80.001s16 -60.334 16 -95.001v-21c0 -36 -4 -70 -12 -102s-25.333 -62 -52 -90zM234.999 585.004l52 122h72v-25l-67 -97h-57z" />
    <glyph glyph-name="ocircumflex" unicode="&#xf4;" horiz-adv-x="552" 
d="M437 252l-0.00195312 19.999c0 48.667 -12.667 88.334 -38 119.001c-13.333 16 -30 28.5 -50 37.5s-43 13.5 -69 13.5c-25.333 0 -47.666 -4.16699 -66.999 -12.5s-35.666 -20.166 -48.999 -35.499c-26.667 -30.667 -40 -71.667 -40 -123v-23c0 -28 3 -54 9 -78
s16.333 -44.667 31 -62c12 -14.667 27.5 -26 46.5 -34s42.167 -12 69.5 -12c25.333 0 47 3.66699 65 11s33.333 17.666 46 30.999c17.333 17.333 29.333 39 36 65s10 53.667 10 83zM452.998 59.999c-23.333 -24.667 -49.665 -42.8291 -78.998 -54.4961s-61 -17.5 -95 -17.5
c-32.667 0 -64 6 -94 18s-56.667 30 -80 54c-25.333 25.333 -41.833 54.666 -49.5 87.999s-11.5 68 -11.5 104v19c0.666992 34.667 5 65.667 13 93s25 54.666 51 81.999c23.333 24 49.333 41.667 78 53s59.667 17 93 17s64.166 -5.5 92.499 -16.5
s54.166 -28.167 77.499 -51.5c24 -24.667 41.333 -51.334 52 -80.001s16 -60.334 16 -95.001v-21c0 -36 -4 -70 -12 -102s-25.333 -62 -52 -90zM301.999 707.004l116 -112v-11h-76l-60 60l-60 -60h-76v11l116 112h40z" />
    <glyph glyph-name="otilde" unicode="&#xf5;" horiz-adv-x="552" 
d="M437 252l-0.00195312 19.999c0 48.667 -12.667 88.334 -38 119.001c-13.333 16 -30 28.5 -50 37.5s-43 13.5 -69 13.5c-25.333 0 -47.666 -4.16699 -66.999 -12.5s-35.666 -20.166 -48.999 -35.499c-26.667 -30.667 -40 -71.667 -40 -123v-23c0 -28 3 -54 9 -78
s16.333 -44.667 31 -62c12 -14.667 27.5 -26 46.5 -34s42.167 -12 69.5 -12c25.333 0 47 3.66699 65 11s33.333 17.666 46 30.999c17.333 17.333 29.333 39 36 65s10 53.667 10 83zM452.998 59.999c-23.333 -24.667 -49.665 -42.8291 -78.998 -54.4961s-61 -17.5 -95 -17.5
c-32.667 0 -64 6 -94 18s-56.667 30 -80 54c-25.333 25.333 -41.833 54.666 -49.5 87.999s-11.5 68 -11.5 104v19c0.666992 34.667 5 65.667 13 93s25 54.666 51 81.999c23.333 24 49.333 41.667 78 53s59.667 17 93 17s64.166 -5.5 92.499 -16.5
s54.166 -28.167 77.499 -51.5c24 -24.667 41.333 -51.334 52 -80.001s16 -60.334 16 -95.001v-21c0 -36 -4 -70 -12 -102s-25.333 -62 -52 -90zM127.999 599.004c0 14 1.66699 27.4941 5 40.4941s8.66602 24.5 15.999 34.5s16.333 18 27 24s23.667 9 39 9
c12 0 23.333 -2.16699 34 -6.5s20.834 -9.16602 30.501 -14.499s19.167 -10.166 28.5 -14.499s18.666 -6.5 27.999 -6.5c16.667 0 28.334 4.33301 35.001 13s10 18.334 10 29.001h47c0 -32 -8 -58 -24 -78s-38.667 -30 -68 -30c-13.333 0 -25 2.33301 -35 7
s-19.5 9.83398 -28.5 15.501s-18.167 10.834 -27.5 15.501s-19.333 7 -30 7c-11.333 0 -20.833 -4.66699 -28.5 -14s-11.5 -19.666 -11.5 -30.999h-47z" />
    <glyph glyph-name="odieresis" unicode="&#xf6;" horiz-adv-x="552" 
d="M437 252l-0.00195312 19.999c0 48.667 -12.667 88.334 -38 119.001c-13.333 16 -30 28.5 -50 37.5s-43 13.5 -69 13.5c-25.333 0 -47.666 -4.16699 -66.999 -12.5s-35.666 -20.166 -48.999 -35.499c-26.667 -30.667 -40 -71.667 -40 -123v-23c0 -28 3 -54 9 -78
s16.333 -44.667 31 -62c12 -14.667 27.5 -26 46.5 -34s42.167 -12 69.5 -12c25.333 0 47 3.66699 65 11s33.333 17.666 46 30.999c17.333 17.333 29.333 39 36 65s10 53.667 10 83zM452.998 59.999c-23.333 -24.667 -49.665 -42.8291 -78.998 -54.4961s-61 -17.5 -95 -17.5
c-32.667 0 -64 6 -94 18s-56.667 30 -80 54c-25.333 25.333 -41.833 54.666 -49.5 87.999s-11.5 68 -11.5 104v19c0.666992 34.667 5 65.667 13 93s25 54.666 51 81.999c23.333 24 49.333 41.667 78 53s59.667 17 93 17s64.166 -5.5 92.499 -16.5
s54.166 -28.167 77.499 -51.5c24 -24.667 41.333 -51.334 52 -80.001s16 -60.334 16 -95.001v-21c0 -36 -4 -70 -12 -102s-25.333 -62 -52 -90zM361.999 707.004c13.333 0 24.666 -4.5 33.999 -13.5s14 -20.167 14 -33.5s-4.66699 -24.5 -14 -33.5
s-20.666 -13.5 -33.999 -13.5s-24.666 4.5 -33.999 13.5s-14 20.167 -14 33.5s4.66699 24.5 14 33.5s20.666 13.5 33.999 13.5zM183.999 707.004c13.333 0 24.666 -4.5 33.999 -13.5s14 -20.167 14 -33.5s-4.66699 -24.5 -14 -33.5s-20.666 -13.5 -33.999 -13.5
s-24.666 4.5 -33.999 13.5s-14 20.167 -14 33.5s4.66699 24.5 14 33.5s20.666 13.5 33.999 13.5z" />
    <glyph glyph-name="divide" unicode="&#xf7;" horiz-adv-x="497" 
d="M245 218c13.333 0 24.833 -4.66699 34.5 -14s14.5 -20.666 14.5 -33.999s-4.83301 -24.666 -14.5 -33.999s-21.167 -14 -34.5 -14s-24.666 4.66699 -33.999 14s-14 20.666 -14 33.999s4.66699 24.666 14 33.999s20.666 14 33.999 14zM245 504
c13.333 0 24.833 -4.66699 34.5 -14s14.5 -20.666 14.5 -33.999s-4.83301 -24.666 -14.5 -33.999s-21.167 -14 -34.5 -14s-24.666 4.66699 -33.999 14s-14 20.666 -14 33.999s4.66699 24.666 14 33.999s20.666 14 33.999 14zM10 354h478c2 -8 3.5 -15 4.5 -21
s1.5 -12 1.5 -18c0 -10.667 -2 -24 -6 -40h-478c-4.66699 14.667 -7 28 -7 40c0 11.333 2.33301 24.333 7 39z" />
    <glyph glyph-name="oslash" unicode="&#xf8;" horiz-adv-x="552" 
d="M477 521l47 -40l-447 -502l-47 40zM433 252l-0.00195312 19.999c0 48.667 -12.667 88.334 -38 119.001c-13.333 16 -30 28.5 -50 37.5s-43 13.5 -69 13.5c-25.333 0 -47.666 -4.16699 -66.999 -12.5s-35.666 -20.166 -48.999 -35.499
c-26.667 -30.667 -40 -71.667 -40 -123v-23c0 -28 3 -54 9 -78s16.333 -44.667 31 -62c12 -14.667 27.5 -26 46.5 -34s42.167 -12 69.5 -12c25.333 0 47 3.66699 65 11s33.333 17.666 46 30.999c17.333 17.333 29.333 39 36 65s10 53.667 10 83zM448.998 59.999
c-23.333 -24.667 -49.665 -42.8291 -78.998 -54.4961s-61 -17.5 -95 -17.5c-32.667 0 -64 6 -94 18s-56.667 30 -80 54c-25.333 25.333 -41.833 54.666 -49.5 87.999s-11.5 68 -11.5 104v19c0.666992 34.667 5 65.667 13 93s25 54.666 51 81.999
c23.333 24 49.333 41.667 78 53s59.667 17 93 17s64.166 -5.5 92.499 -16.5s54.166 -28.167 77.499 -51.5c24 -24.667 41.333 -51.334 52 -80.001s16 -60.334 16 -95.001v-21c0 -36 -4 -70 -12 -102s-25.333 -62 -52 -90z" />
    <glyph glyph-name="ugrave" unicode="&#xf9;" 
d="M237 -12c-64 0 -110.167 15.3311 -138.5 45.998s-42.5 76.667 -42.5 138v328l86 16v-344c0 -39.333 7.66699 -67.5 23 -84.5s39.333 -25.5 72 -25.5c19.333 0 41.5 6.16699 66.5 18.5s50.5 32.833 76.5 61.5v358l86 16v-401c0 -24.667 2.33301 -45.167 7 -61.5
s12 -34.166 22 -53.499h-92c-4.66699 6.66699 -8.66699 15.834 -12 27.501s-5.33301 22.167 -6 31.5c-12.667 -13.333 -27 -25.333 -43 -36c-13.333 -9.33301 -29 -17.5 -47 -24.5s-37.333 -10.5 -58 -10.5zM271 584.998l-67 97v25h72l52 -122h-57z" />
    <glyph glyph-name="uacute" unicode="&#xfa;" 
d="M237 -12c-64 0 -110.167 15.3311 -138.5 45.998s-42.5 76.667 -42.5 138v328l86 16v-344c0 -39.333 7.66699 -67.5 23 -84.5s39.333 -25.5 72 -25.5c19.333 0 41.5 6.16699 66.5 18.5s50.5 32.833 76.5 61.5v358l86 16v-401c0 -24.667 2.33301 -45.167 7 -61.5
s12 -34.166 22 -53.499h-92c-4.66699 6.66699 -8.66699 15.834 -12 27.501s-5.33301 22.167 -6 31.5c-12.667 -13.333 -27 -25.333 -43 -36c-13.333 -9.33301 -29 -17.5 -47 -24.5s-37.333 -10.5 -58 -10.5zM220 584.998l52 122h72v-25l-67 -97h-57z" />
    <glyph glyph-name="ucircumflex" unicode="&#xfb;" 
d="M237 -12c-64 0 -110.167 15.3311 -138.5 45.998s-42.5 76.667 -42.5 138v328l86 16v-344c0 -39.333 7.66699 -67.5 23 -84.5s39.333 -25.5 72 -25.5c19.333 0 41.5 6.16699 66.5 18.5s50.5 32.833 76.5 61.5v358l86 16v-401c0 -24.667 2.33301 -45.167 7 -61.5
s12 -34.166 22 -53.499h-92c-4.66699 6.66699 -8.66699 15.834 -12 27.501s-5.33301 22.167 -6 31.5c-12.667 -13.333 -27 -25.333 -43 -36c-13.333 -9.33301 -29 -17.5 -47 -24.5s-37.333 -10.5 -58 -10.5zM291 706.998l116 -112v-11h-76l-60 60l-60 -60h-76v11l116 112h40
z" />
    <glyph glyph-name="udieresis" unicode="&#xfc;" 
d="M237 -12c-64 0 -110.167 15.3311 -138.5 45.998s-42.5 76.667 -42.5 138v328l86 16v-344c0 -39.333 7.66699 -67.5 23 -84.5s39.333 -25.5 72 -25.5c19.333 0 41.5 6.16699 66.5 18.5s50.5 32.833 76.5 61.5v358l86 16v-401c0 -24.667 2.33301 -45.167 7 -61.5
s12 -34.166 22 -53.499h-92c-4.66699 6.66699 -8.66699 15.834 -12 27.501s-5.33301 22.167 -6 31.5c-12.667 -13.333 -27 -25.333 -43 -36c-13.333 -9.33301 -29 -17.5 -47 -24.5s-37.333 -10.5 -58 -10.5zM361 706.998c13.333 0 24.666 -4.5 33.999 -13.5
s14 -20.167 14 -33.5s-4.66699 -24.5 -14 -33.5s-20.666 -13.5 -33.999 -13.5s-24.666 4.5 -33.999 13.5s-14 20.167 -14 33.5s4.66699 24.5 14 33.5s20.666 13.5 33.999 13.5zM183 706.998c13.333 0 24.666 -4.5 33.999 -13.5s14 -20.167 14 -33.5
s-4.66699 -24.5 -14 -33.5s-20.666 -13.5 -33.999 -13.5s-24.666 4.5 -33.999 13.5s-14 20.167 -14 33.5s4.66699 24.5 14 33.5s20.666 13.5 33.999 13.5z" />
    <glyph glyph-name="yacute" unicode="&#xfd;" horiz-adv-x="542" 
d="M309 -107c-11.333 -29.333 -26.5029 -53.167 -45.5029 -71.5s-42.5 -27.5 -70.5 -27.5c-9.33301 0 -19.166 0.833008 -29.499 2.5s-23.166 4.83398 -38.499 9.50098v63h42c15.333 0 28.333 2.16699 39 6.5s18.667 14.166 24 29.499l34 98
c-19.333 4.66699 -35.833 13.667 -49.5 27s-24.167 29.333 -31.5 48l-158 414l83 24l156 -408c2.66699 -6.66699 5.83398 -12 9.50098 -16s9.16699 -6 16.5 -6h4l155 430l83 -24zM229.997 584.999l52 122h72v-25l-67 -97h-57z" />
    <glyph glyph-name="thorn" unicode="&#xfe;" horiz-adv-x="493" 
d="M415 251l-0.00390625 21.002c0 24 -2.33301 46.5 -7 67.5s-12.167 39.167 -22.5 54.5s-24.166 27.333 -41.499 36s-38.666 13 -63.999 13c-26 0 -47.5 -4.33301 -64.5 -13s-30.667 -20.667 -41 -36s-17.666 -33.333 -21.999 -54s-6.5 -43.334 -6.5 -68.001v-20
c0 -26.667 1.33301 -51.5 4 -74.5s8.66699 -43.167 18 -60.5s22.833 -31 40.5 -41s41.5 -15 71.5 -15c29.333 0 52.833 5.16699 70.5 15.5s31.334 24.166 41.001 41.499s16 37.5 19 60.5s4.5 47.167 4.5 72.5zM59.9961 682.002l85.9971 25.0029v-233
c16.667 13.333 35.834 23.666 57.501 30.999s46.834 11 75.501 11c35.333 0 66.333 -6.16699 93 -18.5s49 -29.333 67 -51s31.5 -47.334 40.5 -77.001s13.5 -61.834 13.5 -96.501v-22c0 -37.333 -3.66699 -72 -11 -104s-19.5 -59.833 -36.5 -83.5
s-39.167 -42.167 -66.5 -55.5s-60.666 -20 -99.999 -20c-29.333 0 -54.833 3.5 -76.5 10.5s-40.5 16.833 -56.5 29.5v-222h-86v876z" />
    <glyph glyph-name="ydieresis" unicode="&#xff;" horiz-adv-x="542" 
d="M309 -107c-11.333 -29.333 -26.5029 -53.167 -45.5029 -71.5s-42.5 -27.5 -70.5 -27.5c-9.33301 0 -19.166 0.833008 -29.499 2.5s-23.166 4.83398 -38.499 9.50098v63h42c15.333 0 28.333 2.16699 39 6.5s18.667 14.166 24 29.499l34 98
c-19.333 4.66699 -35.833 13.667 -49.5 27s-24.167 29.333 -31.5 48l-158 414l83 24l156 -408c2.66699 -6.66699 5.83398 -12 9.50098 -16s9.16699 -6 16.5 -6h4l155 430l83 -24zM370.997 706.999c13.333 0 24.666 -4.5 33.999 -13.5s14 -20.167 14 -33.5
s-4.66699 -24.5 -14 -33.5s-20.666 -13.5 -33.999 -13.5s-24.666 4.5 -33.999 13.5s-14 20.167 -14 33.5s4.66699 24.5 14 33.5s20.666 13.5 33.999 13.5zM192.997 706.999c13.333 0 24.666 -4.5 33.999 -13.5s14 -20.167 14 -33.5s-4.66699 -24.5 -14 -33.5
s-20.666 -13.5 -33.999 -13.5s-24.666 4.5 -33.999 13.5s-14 20.167 -14 33.5s4.66699 24.5 14 33.5s20.666 13.5 33.999 13.5z" />
    <glyph glyph-name="Amacron" unicode="&#x100;" horiz-adv-x="677" 
d="M217 285h240l-95 244l-28 101l-27 -101zM191 210l-77 -210h-96l259 695h112l272 -695h-94l-81 210h-295zM190 824l296 0.000976562c4.66699 -10 7 -21.667 7 -35c0 -6 -0.5 -12 -1.5 -18s-2.83301 -11.667 -5.5 -17h-296c-4.66699 10 -7 22 -7 36
c0 13.333 2.33301 24.666 7 33.999z" />
    <glyph glyph-name="amacron" unicode="&#x101;" horiz-adv-x="536" 
d="M209 62c12 0 25.835 2.5 41.502 7.5s31.667 11.333 48 19s32 15.5 47 23.5l38.5 21v87h-187c-10.667 0 -20.667 -2.16699 -30 -6.5s-17.333 -10 -24 -17s-12 -15.333 -16 -25s-6 -19.5 -6 -29.5c0 -12 2.5 -22.833 7.5 -32.5s11.667 -18 20 -25
s17.666 -12.5 27.999 -16.5s21.166 -6 32.499 -6zM268.002 516c28 0 54.1699 -3.99805 78.5029 -11.998s45.666 -19.667 63.999 -35s32.833 -34.333 43.5 -57s16 -49 16 -79v-218c0 -23.333 2.16699 -43.333 6.5 -60s11.833 -35 22.5 -55h-92
c-5.33301 7.33301 -9.5 16.666 -12.5 27.999s-4.83301 21.666 -5.5 30.999c-27.333 -20 -57.5 -36.833 -90.5 -50.5s-66.5 -20.5 -100.5 -20.5c-22.667 0 -43.834 3.66699 -63.501 11s-36.834 17.833 -51.501 31.5s-26.167 30 -34.5 49s-12.5 40.167 -12.5 63.5
c0 22 4.33301 42.167 13 60.5s20.334 34.166 35.001 47.499s31.667 23.666 51 30.999s39.666 11 60.999 11h188v46c0 36 -10.833 62.167 -32.5 78.5s-49.5 24.833 -83.5 25.5c-30.667 0 -57 -3.66699 -79 -11s-46 -18.666 -72 -33.999l-37 64
c16 9.33301 31.167 17.333 45.5 24s29 12.334 44 17.001s30.5 8 46.5 10s33.333 3 52 3zM122.005 695.002l296 0.000976562c4.66699 -10 7 -21.667 7 -35c0 -6 -0.5 -12 -1.5 -18s-2.83301 -11.667 -5.5 -17h-296c-4.66699 10 -7 22 -7 36c0 13.333 2.33301 24.666 7 33.999
z" />
    <glyph glyph-name="Abreve" unicode="&#x102;" horiz-adv-x="677" 
d="M217 285h240l-95 244l-28 101l-27 -101zM191 210l-77 -210h-96l259 695h112l272 -695h-94l-81 210h-295zM338 738c-18.667 0 -36.3271 2.67188 -52.9941 8.00488s-31.334 13.166 -44.001 23.499s-22.667 23.166 -30 38.499s-11 32.666 -11 51.999h51
c0 -11.333 2.5 -21 7.5 -29s11.667 -14.667 20 -20s17.666 -9.33301 27.999 -12s20.833 -4 31.5 -4c10 0 20.167 1.16699 30.5 3.5s19.666 6.16602 27.999 11.499s15.166 12.166 20.499 20.499s8 18.166 8 29.499h51c0 -20 -3.83301 -37.5 -11.5 -52.5
s-17.834 -27.667 -30.501 -38s-27.334 -18.166 -44.001 -23.499s-34 -8 -52 -8z" />
    <glyph glyph-name="abreve" unicode="&#x103;" horiz-adv-x="536" 
d="M209 62c12 0 25.835 2.5 41.502 7.5s31.667 11.333 48 19s32 15.5 47 23.5l38.5 21v87h-187c-10.667 0 -20.667 -2.16699 -30 -6.5s-17.333 -10 -24 -17s-12 -15.333 -16 -25s-6 -19.5 -6 -29.5c0 -12 2.5 -22.833 7.5 -32.5s11.667 -18 20 -25
s17.666 -12.5 27.999 -16.5s21.166 -6 32.499 -6zM268.002 516c28 0 54.1699 -3.99805 78.5029 -11.998s45.666 -19.667 63.999 -35s32.833 -34.333 43.5 -57s16 -49 16 -79v-218c0 -23.333 2.16699 -43.333 6.5 -60s11.833 -35 22.5 -55h-92
c-5.33301 7.33301 -9.5 16.666 -12.5 27.999s-4.83301 21.666 -5.5 30.999c-27.333 -20 -57.5 -36.833 -90.5 -50.5s-66.5 -20.5 -100.5 -20.5c-22.667 0 -43.834 3.66699 -63.501 11s-36.834 17.833 -51.501 31.5s-26.167 30 -34.5 49s-12.5 40.167 -12.5 63.5
c0 22 4.33301 42.167 13 60.5s20.334 34.166 35.001 47.499s31.667 23.666 51 30.999s39.666 11 60.999 11h188v46c0 36 -10.833 62.167 -32.5 78.5s-49.5 24.833 -83.5 25.5c-30.667 0 -57 -3.66699 -79 -11s-46 -18.666 -72 -33.999l-37 64
c16 9.33301 31.167 17.333 45.5 24s29 12.334 44 17.001s30.5 8 46.5 10s33.333 3 52 3zM269.005 585.002c-18.667 0 -36.3271 2.67188 -52.9941 8.00488s-31.334 13.166 -44.001 23.499s-22.667 23.166 -30 38.499s-11 32.666 -11 51.999h51c0 -11.333 2.5 -21 7.5 -29
s11.667 -14.667 20 -20s17.666 -9.33301 27.999 -12s20.833 -4 31.5 -4c10 0 20.167 1.16699 30.5 3.5s19.666 6.16602 27.999 11.499s15.166 12.166 20.499 20.499s8 18.166 8 29.499h51c0 -20 -3.83301 -37.5 -11.5 -52.5s-17.834 -27.667 -30.501 -38
s-27.334 -18.166 -44.001 -23.499s-34 -8 -52 -8z" />
    <glyph glyph-name="Aogonek" unicode="&#x104;" horiz-adv-x="677" 
d="M217 285h240l-95 244l-28 101l-27 -101zM191 210l-77 -210h-96l259 695h112l272 -695h-94l-81 210h-295zM638 11c-18 -13.333 -31.168 -29.6689 -39.501 -49.002s-12.5 -35.666 -12.5 -48.999s4.16699 -24.666 12.5 -33.999s20.166 -14 35.499 -14c12 0 26.667 3 44 9
v-61c-27.333 -12.667 -52 -19 -74 -19c-27.333 0 -48.666 8.5 -63.999 25.5s-23 38.167 -23 63.5c0 18 4.33301 39 13 63s22.334 45.667 41.001 65h67z" />
    <glyph glyph-name="aogonek" unicode="&#x105;" horiz-adv-x="536" 
d="M209 62c12 0 25.835 2.5 41.502 7.5s31.667 11.333 48 19s32 15.5 47 23.5l38.5 21v87h-187c-10.667 0 -20.667 -2.16699 -30 -6.5s-17.333 -10 -24 -17s-12 -15.333 -16 -25s-6 -19.5 -6 -29.5c0 -12 2.5 -22.833 7.5 -32.5s11.667 -18 20 -25
s17.666 -12.5 27.999 -16.5s21.166 -6 32.499 -6zM268.002 516c28 0 54.1699 -3.99805 78.5029 -11.998s45.666 -19.667 63.999 -35s32.833 -34.333 43.5 -57s16 -49 16 -79v-218c0 -23.333 2.16699 -43.333 6.5 -60s11.833 -35 22.5 -55h-92
c-5.33301 7.33301 -9.5 16.666 -12.5 27.999s-4.83301 21.666 -5.5 30.999c-27.333 -20 -57.5 -36.833 -90.5 -50.5s-66.5 -20.5 -100.5 -20.5c-22.667 0 -43.834 3.66699 -63.501 11s-36.834 17.833 -51.501 31.5s-26.167 30 -34.5 49s-12.5 40.167 -12.5 63.5
c0 22 4.33301 42.167 13 60.5s20.334 34.166 35.001 47.499s31.667 23.666 51 30.999s39.666 11 60.999 11h188v46c0 36 -10.833 62.167 -32.5 78.5s-49.5 24.833 -83.5 25.5c-30.667 0 -57 -3.66699 -79 -11s-46 -18.666 -72 -33.999l-37 64
c16 9.33301 31.167 17.333 45.5 24s29 12.334 44 17.001s30.5 8 46.5 10s33.333 3 52 3zM484.005 11.002c-18 -13.333 -31.168 -29.6689 -39.501 -49.002s-12.5 -35.666 -12.5 -48.999s4.16699 -24.666 12.5 -33.999s20.166 -14 35.499 -14c12 0 26.667 3 44 9v-61
c-27.333 -12.667 -52 -19 -74 -19c-27.333 0 -48.666 8.5 -63.999 25.5s-23 38.167 -23 63.5c0 18 4.33301 39 13 63s22.334 45.667 41.001 65h67z" />
    <glyph glyph-name="Cacute" unicode="&#x106;" horiz-adv-x="614" 
d="M134 350c0 -33.333 2.16602 -66.502 6.49902 -99.502s14 -63 29 -90s37 -48.833 66 -65.5s68.5 -25 118.5 -25c30 0 58.833 5.5 86.5 16.5s52.167 27.833 73.5 50.5l63 -59c-29.333 -31.333 -63.333 -54.166 -102 -68.499s-79 -21.5 -121 -21.5
c-59.333 0 -109 9.16699 -149 27.5s-72.167 43.5 -96.5 75.5s-41.833 70 -52.5 114s-16 91.667 -16 143v37c0 50.667 6.5 95.834 19.5 135.501s32.5 73.334 58.5 101.001s58.667 48.834 98 63.501s85.333 22 138 22c40.667 0 80.5 -6.83301 119.5 -20.5
s72.833 -35.167 101.5 -64.5l-61 -61c-20.667 21.333 -45.167 37.166 -73.5 47.499s-57.166 15.5 -86.499 15.5c-44 0 -80.167 -7.16699 -108.5 -21.5s-50.833 -33 -67.5 -56s-28.167 -48.833 -34.5 -77.5s-9.5 -57.334 -9.5 -86.001v-33zM285.999 736.998l76 123h77l1 -11
l-85 -112h-69z" />
    <glyph glyph-name="cacute" unicode="&#x107;" horiz-adv-x="484" 
d="M290 516c30 0 59.667 -5.33691 89 -16.0039s54.666 -26.667 75.999 -48l-53 -52c-14.667 12.667 -30.834 22.834 -48.501 30.501s-40.167 11.5 -67.5 11.5c-22.667 0 -43.667 -3.83301 -63 -11.5s-36 -19.167 -50 -34.5c-14.667 -16 -25.667 -35.333 -33 -58
s-11 -45.667 -11 -69v-16c0 -29.333 4 -57.5 12 -84.5s21.333 -49.5 40 -67.5c12.667 -12 27.5 -21.5 44.5 -28.5s37.167 -10.5 60.5 -10.5c20 0 41.167 3.33301 63.5 10s40.166 18 53.499 34l53 -51c-22 -23.333 -47.833 -40.333 -77.5 -51s-60.5 -16 -92.5 -16
c-26.667 0 -54.5 4 -83.5 12s-54.167 20.667 -75.5 38c-18 14.667 -32.833 31.5 -44.5 50.5s-20.167 41.167 -25.5 66.5c-3.33301 16 -5.5 32 -6.5 48s-1.5 32 -1.5 48v19c0 16 0.5 31.333 1.5 46s3.33301 28.834 7 42.501s9 27.334 16 41.001s16.833 27.834 29.5 42.501
c10.667 12.667 23.334 23.667 38.001 33s30.334 17 47.001 23s33.834 10.5 51.501 13.5s34.5 4.5 50.5 4.5zM217 584.996l52 122h72v-25l-67 -97h-57z" />
    <glyph glyph-name="Ccircumflex" unicode="&#x108;" horiz-adv-x="614" 
d="M134 350c0 -33.333 2.16602 -66.502 6.49902 -99.502s14 -63 29 -90s37 -48.833 66 -65.5s68.5 -25 118.5 -25c30 0 58.833 5.5 86.5 16.5s52.167 27.833 73.5 50.5l63 -59c-29.333 -31.333 -63.333 -54.166 -102 -68.499s-79 -21.5 -121 -21.5
c-59.333 0 -109 9.16699 -149 27.5s-72.167 43.5 -96.5 75.5s-41.833 70 -52.5 114s-16 91.667 -16 143v37c0 50.667 6.5 95.834 19.5 135.501s32.5 73.334 58.5 101.001s58.667 48.834 98 63.501s85.333 22 138 22c40.667 0 80.5 -6.83301 119.5 -20.5
s72.833 -35.167 101.5 -64.5l-61 -61c-20.667 21.333 -45.167 37.166 -73.5 47.499s-57.166 15.5 -86.499 15.5c-44 0 -80.167 -7.16699 -108.5 -21.5s-50.833 -33 -67.5 -56s-28.167 -48.833 -34.5 -77.5s-9.5 -57.334 -9.5 -86.001v-33zM362.999 859.998l116 -112v-11h-76
l-60 60l-60 -60h-76v11l116 112h40z" />
    <glyph glyph-name="ccircumflex" unicode="&#x109;" horiz-adv-x="484" 
d="M290 516c30 0 59.667 -5.33691 89 -16.0039s54.666 -26.667 75.999 -48l-53 -52c-14.667 12.667 -30.834 22.834 -48.501 30.501s-40.167 11.5 -67.5 11.5c-22.667 0 -43.667 -3.83301 -63 -11.5s-36 -19.167 -50 -34.5c-14.667 -16 -25.667 -35.333 -33 -58
s-11 -45.667 -11 -69v-16c0 -29.333 4 -57.5 12 -84.5s21.333 -49.5 40 -67.5c12.667 -12 27.5 -21.5 44.5 -28.5s37.167 -10.5 60.5 -10.5c20 0 41.167 3.33301 63.5 10s40.166 18 53.499 34l53 -51c-22 -23.333 -47.833 -40.333 -77.5 -51s-60.5 -16 -92.5 -16
c-26.667 0 -54.5 4 -83.5 12s-54.167 20.667 -75.5 38c-18 14.667 -32.833 31.5 -44.5 50.5s-20.167 41.167 -25.5 66.5c-3.33301 16 -5.5 32 -6.5 48s-1.5 32 -1.5 48v19c0 16 0.5 31.333 1.5 46s3.33301 28.834 7 42.501s9 27.334 16 41.001s16.833 27.834 29.5 42.501
c10.667 12.667 23.334 23.667 38.001 33s30.334 17 47.001 23s33.834 10.5 51.501 13.5s34.5 4.5 50.5 4.5zM281 706.996l116 -112v-11h-76l-60 60l-60 -60h-76v11l116 112h40z" />
    <glyph glyph-name="Cdotaccent" unicode="&#x10a;" horiz-adv-x="614" 
d="M134 350c0 -33.333 2.16602 -66.502 6.49902 -99.502s14 -63 29 -90s37 -48.833 66 -65.5s68.5 -25 118.5 -25c30 0 58.833 5.5 86.5 16.5s52.167 27.833 73.5 50.5l63 -59c-29.333 -31.333 -63.333 -54.166 -102 -68.499s-79 -21.5 -121 -21.5
c-59.333 0 -109 9.16699 -149 27.5s-72.167 43.5 -96.5 75.5s-41.833 70 -52.5 114s-16 91.667 -16 143v37c0 50.667 6.5 95.834 19.5 135.501s32.5 73.334 58.5 101.001s58.667 48.834 98 63.501s85.333 22 138 22c40.667 0 80.5 -6.83301 119.5 -20.5
s72.833 -35.167 101.5 -64.5l-61 -61c-20.667 21.333 -45.167 37.166 -73.5 47.499s-57.166 15.5 -86.499 15.5c-44 0 -80.167 -7.16699 -108.5 -21.5s-50.833 -33 -67.5 -56s-28.167 -48.833 -34.5 -77.5s-9.5 -57.334 -9.5 -86.001v-33zM345.999 859.998
c13.333 0 24.666 -4.5 33.999 -13.5s14 -20.167 14 -33.5s-4.66699 -24.5 -14 -33.5s-20.666 -13.5 -33.999 -13.5s-24.666 4.5 -33.999 13.5s-14 20.167 -14 33.5s4.66699 24.5 14 33.5s20.666 13.5 33.999 13.5z" />
    <glyph glyph-name="cdotaccent" unicode="&#x10b;" horiz-adv-x="484" 
d="M290 516c30 0 59.667 -5.33691 89 -16.0039s54.666 -26.667 75.999 -48l-53 -52c-14.667 12.667 -30.834 22.834 -48.501 30.501s-40.167 11.5 -67.5 11.5c-22.667 0 -43.667 -3.83301 -63 -11.5s-36 -19.167 -50 -34.5c-14.667 -16 -25.667 -35.333 -33 -58
s-11 -45.667 -11 -69v-16c0 -29.333 4 -57.5 12 -84.5s21.333 -49.5 40 -67.5c12.667 -12 27.5 -21.5 44.5 -28.5s37.167 -10.5 60.5 -10.5c20 0 41.167 3.33301 63.5 10s40.166 18 53.499 34l53 -51c-22 -23.333 -47.833 -40.333 -77.5 -51s-60.5 -16 -92.5 -16
c-26.667 0 -54.5 4 -83.5 12s-54.167 20.667 -75.5 38c-18 14.667 -32.833 31.5 -44.5 50.5s-20.167 41.167 -25.5 66.5c-3.33301 16 -5.5 32 -6.5 48s-1.5 32 -1.5 48v19c0 16 0.5 31.333 1.5 46s3.33301 28.834 7 42.501s9 27.334 16 41.001s16.833 27.834 29.5 42.501
c10.667 12.667 23.334 23.667 38.001 33s30.334 17 47.001 23s33.834 10.5 51.501 13.5s34.5 4.5 50.5 4.5zM265 706.996c13.333 0 24.666 -4.5 33.999 -13.5s14 -20.167 14 -33.5s-4.66699 -24.5 -14 -33.5s-20.666 -13.5 -33.999 -13.5s-24.666 4.5 -33.999 13.5
s-14 20.167 -14 33.5s4.66699 24.5 14 33.5s20.666 13.5 33.999 13.5z" />
    <glyph glyph-name="Ccaron" unicode="&#x10c;" horiz-adv-x="614" 
d="M134 350c0 -33.333 2.16602 -66.502 6.49902 -99.502s14 -63 29 -90s37 -48.833 66 -65.5s68.5 -25 118.5 -25c30 0 58.833 5.5 86.5 16.5s52.167 27.833 73.5 50.5l63 -59c-29.333 -31.333 -63.333 -54.166 -102 -68.499s-79 -21.5 -121 -21.5
c-59.333 0 -109 9.16699 -149 27.5s-72.167 43.5 -96.5 75.5s-41.833 70 -52.5 114s-16 91.667 -16 143v37c0 50.667 6.5 95.834 19.5 135.501s32.5 73.334 58.5 101.001s58.667 48.834 98 63.501s85.333 22 138 22c40.667 0 80.5 -6.83301 119.5 -20.5
s72.833 -35.167 101.5 -64.5l-61 -61c-20.667 21.333 -45.167 37.166 -73.5 47.499s-57.166 15.5 -86.499 15.5c-44 0 -80.167 -7.16699 -108.5 -21.5s-50.833 -33 -67.5 -56s-28.167 -48.833 -34.5 -77.5s-9.5 -57.334 -9.5 -86.001v-33zM322.999 734.998l-116 112v11h76
l60 -60l60 60h76v-11l-116 -112h-40z" />
    <glyph glyph-name="ccaron" unicode="&#x10d;" horiz-adv-x="484" 
d="M290 516c30 0 59.667 -5.33691 89 -16.0039s54.666 -26.667 75.999 -48l-53 -52c-14.667 12.667 -30.834 22.834 -48.501 30.501s-40.167 11.5 -67.5 11.5c-22.667 0 -43.667 -3.83301 -63 -11.5s-36 -19.167 -50 -34.5c-14.667 -16 -25.667 -35.333 -33 -58
s-11 -45.667 -11 -69v-16c0 -29.333 4 -57.5 12 -84.5s21.333 -49.5 40 -67.5c12.667 -12 27.5 -21.5 44.5 -28.5s37.167 -10.5 60.5 -10.5c20 0 41.167 3.33301 63.5 10s40.166 18 53.499 34l53 -51c-22 -23.333 -47.833 -40.333 -77.5 -51s-60.5 -16 -92.5 -16
c-26.667 0 -54.5 4 -83.5 12s-54.167 20.667 -75.5 38c-18 14.667 -32.833 31.5 -44.5 50.5s-20.167 41.167 -25.5 66.5c-3.33301 16 -5.5 32 -6.5 48s-1.5 32 -1.5 48v19c0 16 0.5 31.333 1.5 46s3.33301 28.834 7 42.501s9 27.334 16 41.001s16.833 27.834 29.5 42.501
c10.667 12.667 23.334 23.667 38.001 33s30.334 17 47.001 23s33.834 10.5 51.501 13.5s34.5 4.5 50.5 4.5zM263 583.996l-116 112v11h76l60 -60l60 60h76v-11l-116 -112h-40z" />
    <glyph glyph-name="Dcaron" unicode="&#x10e;" horiz-adv-x="675" 
d="M367 0h-305.999v695h304c49.333 0 91 -9.33301 125 -28s61.667 -44 83 -76s36.833 -69 46.5 -111s14.5 -86.333 14.5 -133c0 -50 -4.33301 -96.167 -13 -138.5s-23.334 -79 -44.001 -110s-48.167 -55.167 -82.5 -72.5s-76.833 -26 -127.5 -26zM151.001 82h203.999
c36.667 0 66.834 6.66699 90.501 20s42.167 31.833 55.5 55.5s22.5 51.667 27.5 84s7.5 67.5 7.5 105.5c0 36.667 -3 71.167 -9 103.5s-16 60.5 -30 84.5s-32.667 43 -56 57s-52.333 21 -87 21h-203v-531zM278 735l-116 112v11h76l60 -60l60 60h76v-11l-116 -112h-40z" />
    <glyph glyph-name="dcaron" unicode="&#x10f;" horiz-adv-x="581" 
d="M388 419c-12.667 7.33301 -28.3311 12.999 -46.998 16.999s-37.667 6 -57 6c-50 0 -88.667 -15.5 -116 -46.5s-41 -73.5 -41 -127.5v-60c0 -19.333 2 -37.666 6 -54.999s10.667 -32.833 20 -46.5s21.166 -24.5 35.499 -32.5s32.166 -12 53.499 -12
c19.333 0 42 6.16699 68 18.5s52 32.833 78 61.5v277zM388.003 682.999l85.999 24v-592c0 -24.667 2.33301 -45.167 7 -61.5s12 -34.166 22 -53.499h-92c-4.66699 6.66699 -8.66699 15.834 -12 27.501s-5.33301 22.167 -6 31.5c-13.333 -13.333 -28 -25.333 -44 -36
c-13.333 -9.33301 -29.333 -17.5 -48 -24.5s-38.334 -10.5 -59.001 -10.5c-36 0 -66.667 6 -92 18s-46.166 28.167 -62.499 48.5s-28.166 44.166 -35.499 71.499s-11 56.333 -11 87v48c0 85.333 21 149.166 63 191.499s104.667 63.5 188 63.5
c31.333 0 63.333 -6.33301 96 -19v186zM553.002 659.999c11.333 0 21 -3.66406 29 -10.9971c12.667 -11.333 19 -26.333 19 -45c0 -24 -7.5 -45 -22.5 -63s-33.5 -31.333 -55.5 -40l-17 23c12.667 5.33301 22.5 12.666 29.5 21.999s12.167 19 15.5 29
c-11.333 0.666992 -21 5.16699 -29 13.5s-12 18.166 -12 29.499s4.16699 21.166 12.5 29.499s18.5 12.5 30.5 12.5z" />
    <glyph glyph-name="Dcroat" unicode="&#x110;" horiz-adv-x="675" 
d="M358 378v-62h-358v62h358zM366 0h-305.999v695h304c49.333 0 91 -9.33301 125 -28s61.667 -44 83 -76s36.833 -69 46.5 -111s14.5 -86.333 14.5 -133c0 -50 -4.33301 -96.167 -13 -138.5s-23.334 -79 -44.001 -110s-48.167 -55.167 -82.5 -72.5s-76.833 -26 -127.5 -26z
M150.001 82h203.999c36.667 0 66.834 6.66699 90.501 20s42.167 31.833 55.5 55.5s22.5 51.667 27.5 84s7.5 67.5 7.5 105.5c0 36.667 -3 71.167 -9 103.5s-16 60.5 -30 84.5s-32.667 43 -56 57s-52.333 21 -87 21h-203v-531z" />
    <glyph glyph-name="dcroat" unicode="&#x111;" horiz-adv-x="517" 
d="M568 621l-19 -61h-296v61h315zM359 419c-12.667 7.33301 -28.3311 12.999 -46.998 16.999s-37.667 6 -57 6c-50 0 -88.667 -15.5 -116 -46.5s-41 -73.5 -41 -127.5v-60c0 -19.333 2 -37.666 6 -54.999s10.667 -32.833 20 -46.5s21.166 -24.5 35.499 -32.5
s32.166 -12 53.499 -12c19.333 0 42 6.16699 68 18.5s52 32.833 78 61.5v277zM359.003 682.999l85.999 24v-592c0 -24.667 2.33301 -45.167 7 -61.5s12 -34.166 22 -53.499h-92c-4.66699 6.66699 -8.66699 15.834 -12 27.501s-5.33301 22.167 -6 31.5
c-13.333 -13.333 -28 -25.333 -44 -36c-13.333 -9.33301 -29.333 -17.5 -48 -24.5s-38.334 -10.5 -59.001 -10.5c-36 0 -66.667 6 -92 18s-46.166 28.167 -62.499 48.5s-28.166 44.166 -35.499 71.499s-11 56.333 -11 87v48c0 85.333 21 149.166 63 191.499
s104.667 63.5 188 63.5c31.333 0 63.333 -6.33301 96 -19v186z" />
    <glyph glyph-name="Emacron" unicode="&#x112;" horiz-adv-x="582" 
d="M557 0h-497v695h500l-26 -82h-384v-203h344v-83h-344v-245h407v-82zM160 824l296 0.000976562c4.66699 -10 7 -21.667 7 -35c0 -6 -0.5 -12 -1.5 -18s-2.83301 -11.667 -5.5 -17h-296c-4.66699 10 -7 22 -7 36c0 13.333 2.33301 24.666 7 33.999z" />
    <glyph glyph-name="emacron" unicode="&#x113;" 
d="M128 230c0 -58.667 13.501 -101.334 40.501 -128.001s67.833 -40 122.5 -40c26.667 0 49.334 5.5 68.001 16.5s35.334 26.167 50.001 45.5l76 -31c-19.333 -32.667 -46.333 -58.334 -81 -77.001s-74 -28 -118 -28c-44.667 0 -82.5 6.16699 -113.5 18.5
s-56.167 29.666 -75.5 51.999s-33.333 49.333 -42 81s-13 66.834 -13 105.501v11c0 16.667 0.333008 32.834 1 48.501s2.66699 31.167 6 46.5s8.66602 30.5 15.999 45.5s17.666 29.833 30.999 44.5c22.667 25.333 49.667 44.166 81 56.499s63.666 18.5 96.999 18.5
c37.333 0 70.5 -6 99.5 -18s53.333 -28.667 73 -50s34.5 -46.666 44.5 -75.999s15 -61.666 15 -96.999v-45h-378zM128.001 300l292.001 -0.000976562v9c0 16.667 -3.33301 33 -10 49s-16.334 30.167 -29.001 42.5s-28 22.333 -46 30s-38.333 11.5 -61 11.5
c-21.333 0 -41 -3.66699 -59 -11s-33.5 -17.166 -46.5 -29.499s-23 -26.5 -30 -42.5s-10.5 -32.667 -10.5 -50v-9zM123.002 694.999l296 0.000976562c4.66699 -10 7 -21.667 7 -35c0 -6 -0.5 -12 -1.5 -18s-2.83301 -11.667 -5.5 -17h-296c-4.66699 10 -7 22 -7 36
c0 13.333 2.33301 24.666 7 33.999z" />
    <glyph glyph-name="Edotaccent" unicode="&#x116;" horiz-adv-x="582" 
d="M557 0h-497v695h500l-26 -82h-384v-203h344v-83h-344v-245h407v-82zM328 860c13.333 0 24.666 -4.5 33.999 -13.5s14 -20.167 14 -33.5s-4.66699 -24.5 -14 -33.5s-20.666 -13.5 -33.999 -13.5s-24.666 4.5 -33.999 13.5s-14 20.167 -14 33.5s4.66699 24.5 14 33.5
s20.666 13.5 33.999 13.5z" />
    <glyph glyph-name="edotaccent" unicode="&#x117;" 
d="M128 230c0 -58.667 13.501 -101.334 40.501 -128.001s67.833 -40 122.5 -40c26.667 0 49.334 5.5 68.001 16.5s35.334 26.167 50.001 45.5l76 -31c-19.333 -32.667 -46.333 -58.334 -81 -77.001s-74 -28 -118 -28c-44.667 0 -82.5 6.16699 -113.5 18.5
s-56.167 29.666 -75.5 51.999s-33.333 49.333 -42 81s-13 66.834 -13 105.501v11c0 16.667 0.333008 32.834 1 48.501s2.66699 31.167 6 46.5s8.66602 30.5 15.999 45.5s17.666 29.833 30.999 44.5c22.667 25.333 49.667 44.166 81 56.499s63.666 18.5 96.999 18.5
c37.333 0 70.5 -6 99.5 -18s53.333 -28.667 73 -50s34.5 -46.666 44.5 -75.999s15 -61.666 15 -96.999v-45h-378zM128.001 300l292.001 -0.000976562v9c0 16.667 -3.33301 33 -10 49s-16.334 30.167 -29.001 42.5s-28 22.333 -46 30s-38.333 11.5 -61 11.5
c-21.333 0 -41 -3.66699 -59 -11s-33.5 -17.166 -46.5 -29.499s-23 -26.5 -30 -42.5s-10.5 -32.667 -10.5 -50v-9zM277.002 706.999c13.333 0 24.666 -4.5 33.999 -13.5s14 -20.167 14 -33.5s-4.66699 -24.5 -14 -33.5s-20.666 -13.5 -33.999 -13.5
s-24.666 4.5 -33.999 13.5s-14 20.167 -14 33.5s4.66699 24.5 14 33.5s20.666 13.5 33.999 13.5z" />
    <glyph glyph-name="Eogonek" unicode="&#x118;" horiz-adv-x="582" 
d="M557 0h-497v695h500l-26 -82h-384v-203h344v-83h-344v-245h407v-82zM549 11c-18 -13.333 -31.168 -29.6689 -39.501 -49.002s-12.5 -35.666 -12.5 -48.999s4.16699 -24.666 12.5 -33.999s20.166 -14 35.499 -14c12 0 26.667 3 44 9v-61c-27.333 -12.667 -52 -19 -74 -19
c-27.333 0 -48.666 8.5 -63.999 25.5s-23 38.167 -23 63.5c0 18 4.33301 39 13 63s22.334 45.667 41.001 65h67z" />
    <glyph glyph-name="eogonek" unicode="&#x119;" 
d="M128 230c0 -58.667 13.501 -101.334 40.501 -128.001s67.833 -40 122.5 -40c26.667 0 49.334 5.5 68.001 16.5s35.334 26.167 50.001 45.5l76 -31c-19.333 -32.667 -46.333 -58.334 -81 -77.001s-74 -28 -118 -28c-44.667 0 -82.5 6.16699 -113.5 18.5
s-56.167 29.666 -75.5 51.999s-33.333 49.333 -42 81s-13 66.834 -13 105.501v11c0 16.667 0.333008 32.834 1 48.501s2.66699 31.167 6 46.5s8.66602 30.5 15.999 45.5s17.666 29.833 30.999 44.5c22.667 25.333 49.667 44.166 81 56.499s63.666 18.5 96.999 18.5
c37.333 0 70.5 -6 99.5 -18s53.333 -28.667 73 -50s34.5 -46.666 44.5 -75.999s15 -61.666 15 -96.999v-45h-378zM128.001 300l292.001 -0.000976562v9c0 16.667 -3.33301 33 -10 49s-16.334 30.167 -29.001 42.5s-28 22.333 -46 30s-38.333 11.5 -61 11.5
c-21.333 0 -41 -3.66699 -59 -11s-33.5 -17.166 -46.5 -29.499s-23 -26.5 -30 -42.5s-10.5 -32.667 -10.5 -50v-9zM321.002 10.999c-18 -13.333 -31.168 -29.6689 -39.501 -49.002s-12.5 -35.666 -12.5 -48.999s4.16699 -24.666 12.5 -33.999s20.166 -14 35.499 -14
c12 0 26.667 3 44 9v-61c-27.333 -12.667 -52 -19 -74 -19c-27.333 0 -48.666 8.5 -63.999 25.5s-23 38.167 -23 63.5c0 18 4.33301 39 13 63s22.334 45.667 41.001 65h67z" />
    <glyph glyph-name="Ecaron" unicode="&#x11a;" horiz-adv-x="582" 
d="M557 0h-497v695h500l-26 -82h-384v-203h344v-83h-344v-245h407v-82zM295 735l-116 112v11h76l60 -60l60 60h76v-11l-116 -112h-40z" />
    <glyph glyph-name="ecaron" unicode="&#x11b;" 
d="M128 230c0 -58.667 13.501 -101.334 40.501 -128.001s67.833 -40 122.5 -40c26.667 0 49.334 5.5 68.001 16.5s35.334 26.167 50.001 45.5l76 -31c-19.333 -32.667 -46.333 -58.334 -81 -77.001s-74 -28 -118 -28c-44.667 0 -82.5 6.16699 -113.5 18.5
s-56.167 29.666 -75.5 51.999s-33.333 49.333 -42 81s-13 66.834 -13 105.501v11c0 16.667 0.333008 32.834 1 48.501s2.66699 31.167 6 46.5s8.66602 30.5 15.999 45.5s17.666 29.833 30.999 44.5c22.667 25.333 49.667 44.166 81 56.499s63.666 18.5 96.999 18.5
c37.333 0 70.5 -6 99.5 -18s53.333 -28.667 73 -50s34.5 -46.666 44.5 -75.999s15 -61.666 15 -96.999v-45h-378zM128.001 300l292.001 -0.000976562v9c0 16.667 -3.33301 33 -10 49s-16.334 30.167 -29.001 42.5s-28 22.333 -46 30s-38.333 11.5 -61 11.5
c-21.333 0 -41 -3.66699 -59 -11s-33.5 -17.166 -46.5 -29.499s-23 -26.5 -30 -42.5s-10.5 -32.667 -10.5 -50v-9zM257.002 583.999l-116 112v11h76l60 -60l60 60h76v-11l-116 -112h-40z" />
    <glyph glyph-name="Gcircumflex" unicode="&#x11c;" horiz-adv-x="647" 
d="M525 559c-8 11.333 -18.1689 21.1719 -30.502 29.5049s-25.666 15.166 -39.999 20.499s-29.333 9.16602 -45 11.499s-30.834 3.5 -45.501 3.5c-36 0 -69 -5.83301 -99 -17.5s-57 -30.834 -81 -57.501c-26 -28 -42 -57.833 -48 -89.5s-9 -65.834 -9 -102.501v-25
c0 -36.667 4 -70.167 12 -100.5s24.667 -59.833 50 -88.5c12 -13.333 26.167 -24.666 42.5 -33.999s33.5 -16.833 51.5 -22.5s36.333 -9.83398 55 -12.501s37 -4 55 -4s38.5 3.16699 61.5 9.5s42.833 13.166 59.5 20.499v177h-150v84h236v-312
c-32 -17.333 -66.167 -31.833 -102.5 -43.5s-73.166 -17.5 -110.499 -17.5c-24 0 -48.167 1.83301 -72.5 5.5s-48.166 9.66699 -71.499 18s-45.5 18.833 -66.5 31.5s-39.5 28 -55.5 46c-33.333 36.667 -55.666 74.834 -66.999 114.501s-17 83.5 -17 131.5v23
c0 23.333 0.666992 45.666 2 66.999s4.5 42.166 9.5 62.499s12.833 40.5 23.5 60.5s25.334 40 44.001 60c33.333 36 71.166 61.5 113.499 76.5s87.166 22.5 134.499 22.5c42 0 82.167 -7.16699 120.5 -21.5s72.5 -39.166 102.5 -74.499zM367.998 860.006l116 -112v-11h-76
l-60 60l-60 -60h-76v11l116 112h40z" />
    <glyph glyph-name="gcircumflex" unicode="&#x11d;" horiz-adv-x="522" 
d="M242 74c19.333 0 41.333 6.16602 66 18.499s50 32.833 76 61.5v273c-14 4.66699 -29.167 8.33398 -45.5 11.001s-32.833 4 -49.5 4c-58 0 -99.333 -13.667 -124 -41s-37 -68 -37 -122v-67c0 -50 10 -85.5 30 -106.5s48 -31.5 84 -31.5zM384 65.999
c-4 -4 -10.334 -9.6709 -19.001 -17.0039s-19.167 -14.666 -31.5 -21.999s-26.166 -13.666 -41.499 -18.999s-32 -8 -50 -8c-28.667 0 -55.167 4 -79.5 12s-45.5 20.667 -63.5 38s-32 39.833 -42 67.5s-15 61.167 -15 100.5v52c0 84.667 20.333 146.834 61 186.501
s102 59.5 184 59.5c33.333 0 65.5 -3.16699 96.5 -9.5s59.833 -15.166 86.5 -26.499v-462c0 -32 -5.33301 -61.667 -16 -89s-25.667 -51 -45 -71s-42.666 -35.667 -69.999 -47s-58 -17 -92 -17c-37.333 0 -70.333 4.33301 -99 13s-59 22.334 -91 41.001l41 71
c25.333 -15.333 49.333 -26.5 72 -33.5s49 -10.5 79 -10.5c43.333 0 76.666 13.167 99.999 39.5s35 60.166 35 101.499v50zM301.999 706.995l116 -112v-11h-76l-60 60l-60 -60h-76v11l116 112h40z" />
    <glyph glyph-name="Gbreve" unicode="&#x11e;" horiz-adv-x="647" 
d="M525 559c-8 11.333 -18.1689 21.1719 -30.502 29.5049s-25.666 15.166 -39.999 20.499s-29.333 9.16602 -45 11.499s-30.834 3.5 -45.501 3.5c-36 0 -69 -5.83301 -99 -17.5s-57 -30.834 -81 -57.501c-26 -28 -42 -57.833 -48 -89.5s-9 -65.834 -9 -102.501v-25
c0 -36.667 4 -70.167 12 -100.5s24.667 -59.833 50 -88.5c12 -13.333 26.167 -24.666 42.5 -33.999s33.5 -16.833 51.5 -22.5s36.333 -9.83398 55 -12.501s37 -4 55 -4s38.5 3.16699 61.5 9.5s42.833 13.166 59.5 20.499v177h-150v84h236v-312
c-32 -17.333 -66.167 -31.833 -102.5 -43.5s-73.166 -17.5 -110.499 -17.5c-24 0 -48.167 1.83301 -72.5 5.5s-48.166 9.66699 -71.499 18s-45.5 18.833 -66.5 31.5s-39.5 28 -55.5 46c-33.333 36.667 -55.666 74.834 -66.999 114.501s-17 83.5 -17 131.5v23
c0 23.333 0.666992 45.666 2 66.999s4.5 42.166 9.5 62.499s12.833 40.5 23.5 60.5s25.334 40 44.001 60c33.333 36 71.166 61.5 113.499 76.5s87.166 22.5 134.499 22.5c42 0 82.167 -7.16699 120.5 -21.5s72.5 -39.166 102.5 -74.499zM364.998 752.006
c-18.667 0 -36.3271 2.67188 -52.9941 8.00488s-31.334 13.166 -44.001 23.499s-22.667 23.166 -30 38.499s-11 32.666 -11 51.999h51c0 -11.333 2.5 -21 7.5 -29s11.667 -14.667 20 -20s17.666 -9.33301 27.999 -12s20.833 -4 31.5 -4c10 0 20.167 1.16699 30.5 3.5
s19.666 6.16602 27.999 11.499s15.166 12.166 20.499 20.499s8 18.166 8 29.499h51c0 -20 -3.83301 -37.5 -11.5 -52.5s-17.834 -27.667 -30.501 -38s-27.334 -18.166 -44.001 -23.499s-34 -8 -52 -8z" />
    <glyph glyph-name="gbreve" unicode="&#x11f;" horiz-adv-x="522" 
d="M242 74c19.333 0 41.333 6.16602 66 18.499s50 32.833 76 61.5v273c-14 4.66699 -29.167 8.33398 -45.5 11.001s-32.833 4 -49.5 4c-58 0 -99.333 -13.667 -124 -41s-37 -68 -37 -122v-67c0 -50 10 -85.5 30 -106.5s48 -31.5 84 -31.5zM384 65.999
c-4 -4 -10.334 -9.6709 -19.001 -17.0039s-19.167 -14.666 -31.5 -21.999s-26.166 -13.666 -41.499 -18.999s-32 -8 -50 -8c-28.667 0 -55.167 4 -79.5 12s-45.5 20.667 -63.5 38s-32 39.833 -42 67.5s-15 61.167 -15 100.5v52c0 84.667 20.333 146.834 61 186.501
s102 59.5 184 59.5c33.333 0 65.5 -3.16699 96.5 -9.5s59.833 -15.166 86.5 -26.499v-462c0 -32 -5.33301 -61.667 -16 -89s-25.667 -51 -45 -71s-42.666 -35.667 -69.999 -47s-58 -17 -92 -17c-37.333 0 -70.333 4.33301 -99 13s-59 22.334 -91 41.001l41 71
c25.333 -15.333 49.333 -26.5 72 -33.5s49 -10.5 79 -10.5c43.333 0 76.666 13.167 99.999 39.5s35 60.166 35 101.499v50zM275.999 584.995c-18.667 0 -36.3271 2.67188 -52.9941 8.00488s-31.334 13.166 -44.001 23.499s-22.667 23.166 -30 38.499s-11 32.666 -11 51.999
h51c0 -11.333 2.5 -21 7.5 -29s11.667 -14.667 20 -20s17.666 -9.33301 27.999 -12s20.833 -4 31.5 -4c10 0 20.167 1.16699 30.5 3.5s19.666 6.16602 27.999 11.499s15.166 12.166 20.499 20.499s8 18.166 8 29.499h51c0 -20 -3.83301 -37.5 -11.5 -52.5
s-17.834 -27.667 -30.501 -38s-27.334 -18.166 -44.001 -23.499s-34 -8 -52 -8z" />
    <glyph glyph-name="Gdotaccent" unicode="&#x120;" horiz-adv-x="647" 
d="M525 559c-8 11.333 -18.1689 21.1719 -30.502 29.5049s-25.666 15.166 -39.999 20.499s-29.333 9.16602 -45 11.499s-30.834 3.5 -45.501 3.5c-36 0 -69 -5.83301 -99 -17.5s-57 -30.834 -81 -57.501c-26 -28 -42 -57.833 -48 -89.5s-9 -65.834 -9 -102.501v-25
c0 -36.667 4 -70.167 12 -100.5s24.667 -59.833 50 -88.5c12 -13.333 26.167 -24.666 42.5 -33.999s33.5 -16.833 51.5 -22.5s36.333 -9.83398 55 -12.501s37 -4 55 -4s38.5 3.16699 61.5 9.5s42.833 13.166 59.5 20.499v177h-150v84h236v-312
c-32 -17.333 -66.167 -31.833 -102.5 -43.5s-73.166 -17.5 -110.499 -17.5c-24 0 -48.167 1.83301 -72.5 5.5s-48.166 9.66699 -71.499 18s-45.5 18.833 -66.5 31.5s-39.5 28 -55.5 46c-33.333 36.667 -55.666 74.834 -66.999 114.501s-17 83.5 -17 131.5v23
c0 23.333 0.666992 45.666 2 66.999s4.5 42.166 9.5 62.499s12.833 40.5 23.5 60.5s25.334 40 44.001 60c33.333 36 71.166 61.5 113.499 76.5s87.166 22.5 134.499 22.5c42 0 82.167 -7.16699 120.5 -21.5s72.5 -39.166 102.5 -74.499zM356.998 860.006
c13.333 0 24.666 -4.5 33.999 -13.5s14 -20.167 14 -33.5s-4.66699 -24.5 -14 -33.5s-20.666 -13.5 -33.999 -13.5s-24.666 4.5 -33.999 13.5s-14 20.167 -14 33.5s4.66699 24.5 14 33.5s20.666 13.5 33.999 13.5z" />
    <glyph glyph-name="gdotaccent" unicode="&#x121;" horiz-adv-x="522" 
d="M242 74c19.333 0 41.333 6.16602 66 18.499s50 32.833 76 61.5v273c-14 4.66699 -29.167 8.33398 -45.5 11.001s-32.833 4 -49.5 4c-58 0 -99.333 -13.667 -124 -41s-37 -68 -37 -122v-67c0 -50 10 -85.5 30 -106.5s48 -31.5 84 -31.5zM384 65.999
c-4 -4 -10.334 -9.6709 -19.001 -17.0039s-19.167 -14.666 -31.5 -21.999s-26.166 -13.666 -41.499 -18.999s-32 -8 -50 -8c-28.667 0 -55.167 4 -79.5 12s-45.5 20.667 -63.5 38s-32 39.833 -42 67.5s-15 61.167 -15 100.5v52c0 84.667 20.333 146.834 61 186.501
s102 59.5 184 59.5c33.333 0 65.5 -3.16699 96.5 -9.5s59.833 -15.166 86.5 -26.499v-462c0 -32 -5.33301 -61.667 -16 -89s-25.667 -51 -45 -71s-42.666 -35.667 -69.999 -47s-58 -17 -92 -17c-37.333 0 -70.333 4.33301 -99 13s-59 22.334 -91 41.001l41 71
c25.333 -15.333 49.333 -26.5 72 -33.5s49 -10.5 79 -10.5c43.333 0 76.666 13.167 99.999 39.5s35 60.166 35 101.499v50zM275.999 706.995c13.333 0 24.666 -4.5 33.999 -13.5s14 -20.167 14 -33.5s-4.66699 -24.5 -14 -33.5s-20.666 -13.5 -33.999 -13.5
s-24.666 4.5 -33.999 13.5s-14 20.167 -14 33.5s4.66699 24.5 14 33.5s20.666 13.5 33.999 13.5z" />
    <glyph glyph-name="Gcommaaccent" unicode="&#x122;" horiz-adv-x="647" 
d="M525 559c-8 11.333 -18.1689 21.1719 -30.502 29.5049s-25.666 15.166 -39.999 20.499s-29.333 9.16602 -45 11.499s-30.834 3.5 -45.501 3.5c-36 0 -69 -5.83301 -99 -17.5s-57 -30.834 -81 -57.501c-26 -28 -42 -57.833 -48 -89.5s-9 -65.834 -9 -102.501v-25
c0 -36.667 4 -70.167 12 -100.5s24.667 -59.833 50 -88.5c12 -13.333 26.167 -24.666 42.5 -33.999s33.5 -16.833 51.5 -22.5s36.333 -9.83398 55 -12.501s37 -4 55 -4s38.5 3.16699 61.5 9.5s42.833 13.166 59.5 20.499v177h-150v84h236v-312
c-32 -17.333 -66.167 -31.833 -102.5 -43.5s-73.166 -17.5 -110.499 -17.5c-24 0 -48.167 1.83301 -72.5 5.5s-48.166 9.66699 -71.499 18s-45.5 18.833 -66.5 31.5s-39.5 28 -55.5 46c-33.333 36.667 -55.666 74.834 -66.999 114.501s-17 83.5 -17 131.5v23
c0 23.333 0.666992 45.666 2 66.999s4.5 42.166 9.5 62.499s12.833 40.5 23.5 60.5s25.334 40 44.001 60c33.333 36 71.166 61.5 113.499 76.5s87.166 22.5 134.499 22.5c42 0 82.167 -7.16699 120.5 -21.5s72.5 -39.166 102.5 -74.499zM349.998 -46.9941
c11.333 0 21 -3.66406 29 -10.9971c12.667 -11.333 19 -26.333 19 -45c0 -24 -7.5 -45 -22.5 -63s-33.5 -31.333 -55.5 -40l-17 23c12.667 5.33301 22.5 12.666 29.5 21.999s12.167 19 15.5 29c-11.333 0.666992 -21 5.16699 -29 13.5s-12 18.166 -12 29.499
s4.16699 21.166 12.5 29.499s18.5 12.5 30.5 12.5z" />
    <glyph glyph-name="gcommaaccent" unicode="&#x123;" horiz-adv-x="522" 
d="M242 74c19.333 0 41.333 6.16602 66 18.499s50 32.833 76 61.5v273c-14 4.66699 -29.167 8.33398 -45.5 11.001s-32.833 4 -49.5 4c-58 0 -99.333 -13.667 -124 -41s-37 -68 -37 -122v-67c0 -50 10 -85.5 30 -106.5s48 -31.5 84 -31.5zM384 65.999
c-4 -4 -10.334 -9.6709 -19.001 -17.0039s-19.167 -14.666 -31.5 -21.999s-26.166 -13.666 -41.499 -18.999s-32 -8 -50 -8c-28.667 0 -55.167 4 -79.5 12s-45.5 20.667 -63.5 38s-32 39.833 -42 67.5s-15 61.167 -15 100.5v52c0 84.667 20.333 146.834 61 186.501
s102 59.5 184 59.5c33.333 0 65.5 -3.16699 96.5 -9.5s59.833 -15.166 86.5 -26.499v-462c0 -32 -5.33301 -61.667 -16 -89s-25.667 -51 -45 -71s-42.666 -35.667 -69.999 -47s-58 -17 -92 -17c-37.333 0 -70.333 4.33301 -99 13s-59 22.334 -91 41.001l41 71
c25.333 -15.333 49.333 -26.5 72 -33.5s49 -10.5 79 -10.5c43.333 0 76.666 13.167 99.999 39.5s35 60.166 35 101.499v50zM287.009 547.989c-11.332 0 -20.9961 3.66797 -28.9951 11.001c-12.665 11.332 -18.998 26.3301 -18.998 44.9941
c0 23.9971 7.49902 44.9941 22.498 62.9912c14.998 17.998 33.4961 31.3301 55.4932 39.9951l16.9971 -22.9971c-12.665 -5.33301 -22.4971 -12.665 -29.4961 -21.9971s-12.165 -18.9971 -15.498 -28.9961c11.332 -0.666992 20.9971 -5.16699 28.9961 -13.5
c7.99902 -8.33203 11.999 -18.1641 11.999 -29.4961s-4.16602 -21.1641 -12.498 -29.4961c-8.33301 -8.33301 -18.499 -12.499 -30.498 -12.499z" />
    <glyph glyph-name="Hcircumflex" unicode="&#x124;" horiz-adv-x="667" 
d="M150 327v-327h-90v695h90v-285h366v285h90v-695h-90v327h-366zM364 860l116 -112v-11h-76l-60 60l-60 -60h-76v11l116 112h40z" />
    <glyph glyph-name="hcircumflex" unicode="&#x125;" horiz-adv-x="514" 
d="M289 504c28 0 53.333 -4.66602 76 -13.999s42.167 -22.666 58.5 -39.999s28.5 -37.5 36.5 -60.5s12 -47.833 12 -74.5v-315h-86v312c0 36 -8.66699 64.667 -26 86s-42 32 -74 32c-40.667 0 -72.167 -10.167 -94.5 -30.5s-37.5 -45.833 -45.5 -76.5v-323h-86v683l86 24
v-265c20.667 23.333 44.167 39.666 70.5 48.999s50.5 13.666 72.5 12.999zM184 860.001l116 -112v-11h-76l-60 60l-60 -60h-76v11l116 112h40z" />
    <glyph glyph-name="Hbar" unicode="&#x126;" horiz-adv-x="667" 
d="M693 566v-62h-717v62h717zM150 327v-327h-90v695h90v-285h366v285h90v-695h-90v327h-366z" />
    <glyph glyph-name="hbar" unicode="&#x127;" horiz-adv-x="514" 
d="M315 619l-19 -61h-296v61h315zM289 504c28 0 53.3311 -4.83301 75.998 -14.5s41.834 -23 57.501 -40s27.834 -37 36.501 -60s13 -47.833 13 -74.5v-315h-86v326c0 31.333 -8.66699 56.5 -26 75.5s-42 28.5 -74 28.5c-40.667 0 -72.167 -10.167 -94.5 -30.5
s-37.5 -45.833 -45.5 -76.5v-323h-86v683l86 24v-265c20.667 25.333 43.5 42 68.5 50s49.833 12 74.5 12z" />
    <glyph glyph-name="uni012A" unicode="&#x12a;" horiz-adv-x="217" 
d="M151 695v-695h-90v695h90zM-39 824l296 0.000976562c4.66699 -10 7 -21.667 7 -35c0 -6 -0.5 -12 -1.5 -18s-2.83301 -11.667 -5.5 -17h-296c-4.66699 10 -7 22 -7 36c0 13.333 2.33301 24.666 7 33.999z" />
    <glyph glyph-name="imacron" unicode="&#x12b;" horiz-adv-x="315" 
d="M116 0v504h86v-504h-86zM11 695l296 0.000976562c4.66699 -10 7 -21.667 7 -35c0 -6 -0.5 -12 -1.5 -18s-2.83301 -11.667 -5.5 -17h-296c-4.66699 10 -7 22 -7 36c0 13.333 2.33301 24.666 7 33.999z" />
    <glyph glyph-name="Iogonek" unicode="&#x12e;" horiz-adv-x="217" 
d="M151 695v-695h-90v695h90zM132 11c-18 -13.333 -31.168 -29.6689 -39.501 -49.002s-12.5 -35.666 -12.5 -48.999s4.16699 -24.666 12.5 -33.999s20.166 -14 35.499 -14c12 0 26.667 3 44 9v-61c-27.333 -12.667 -52 -19 -74 -19c-27.333 0 -48.666 8.5 -63.999 25.5
s-23 38.167 -23 63.5c0 18 4.33301 39 13 63s22.334 45.667 41.001 65h67z" />
    <glyph glyph-name="iogonek" unicode="&#x12f;" horiz-adv-x="221" 
d="M158 11c-18 -13.333 -31.168 -29.6689 -39.501 -49.002s-12.5 -35.666 -12.5 -48.999s4.16699 -24.666 12.5 -33.999s20.166 -14 35.499 -14c12 0 26.667 3 44 9v-61c-27.333 -12.667 -52 -19 -74 -19c-27.333 0 -48.666 8.5 -63.999 25.5s-23 38.167 -23 63.5
c0 18 4.33301 39 13 63s22.334 45.667 41.001 65h67z" />
    <glyph glyph-name="Idotaccent" unicode="&#x130;" horiz-adv-x="217" 
d="M151 695v-695h-90v695h90zM108 860c13.333 0 24.666 -4.5 33.999 -13.5s14 -20.167 14 -33.5s-4.66699 -24.5 -14 -33.5s-20.666 -13.5 -33.999 -13.5s-24.666 4.5 -33.999 13.5s-14 20.167 -14 33.5s4.66699 24.5 14 33.5s20.666 13.5 33.999 13.5z" />
    <glyph glyph-name="dotlessi" unicode="&#x131;" horiz-adv-x="213" 
d="M60 0v504h86v-504h-86z" />
    <glyph glyph-name="IJ" unicode="&#x132;" horiz-adv-x="437" 
d="M90 695v-457h-90v457h90zM179 -12c-32 0 -59.334 5.16699 -82.001 15.5s-41.167 24.333 -55.5 42s-24.833 38.167 -31.5 61.5s-10 48.333 -10 75h88c0 -16 1.33301 -30.833 4 -44.5s7.33398 -25.5 14.001 -35.5s16 -17.833 28 -23.5s27.333 -8.5 46 -8.5
c41.333 0 70 10.667 86 32s24 51 24 89v504h92v-504c0 -65.333 -17.167 -115.5 -51.5 -150.5s-84.833 -52.5 -151.5 -52.5z" />
    <glyph glyph-name="ij" unicode="&#x133;" horiz-adv-x="354" 
d="M40 0v504h86v-504h-86zM221 504l86 -0.000976562v-575c0 -19.333 -3.33301 -37.166 -10 -53.499s-16 -30.5 -28 -42.5s-25.833 -21.5 -41.5 -28.5s-32.5 -10.5 -50.5 -10.5c-9.33301 0 -21 1 -35 3s-26.667 5 -38 9v63h55c41.333 0 62 20 62 60v575zM82 706.999
c13.333 0 24.666 -4.5 33.999 -13.5s14 -20.167 14 -33.5s-4.66699 -24.5 -14 -33.5s-20.666 -13.5 -33.999 -13.5s-24.666 4.5 -33.999 13.5s-14 20.167 -14 33.5s4.66699 24.5 14 33.5s20.666 13.5 33.999 13.5zM262 706.999c13.333 0 24.666 -4.5 33.999 -13.5
s14 -20.167 14 -33.5s-4.66699 -24.5 -14 -33.5s-20.666 -13.5 -33.999 -13.5s-24.666 4.5 -33.999 13.5s-14 20.167 -14 33.5s4.66699 24.5 14 33.5s20.666 13.5 33.999 13.5z" />
    <glyph glyph-name="Jcircumflex" unicode="&#x134;" horiz-adv-x="533" 
d="M219 -12c-32 0 -59.334 5.16699 -82.001 15.5s-41.167 24.333 -55.5 42s-24.833 38.167 -31.5 61.5s-10 48.333 -10 75h88c0 -16 1.33301 -30.833 4 -44.5s7.33398 -25.5 14.001 -35.5s16 -17.833 28 -23.5s27.333 -8.5 46 -8.5c41.333 0 70 10.667 86 32s24 51 24 89
v504h92v-504c0 -65.333 -17.167 -115.5 -51.5 -150.5s-84.833 -52.5 -151.5 -52.5zM367.999 860l116 -112v-11h-76l-60 60l-60 -60h-76v11l116 112h40z" />
    <glyph glyph-name="jcircumflex" unicode="&#x135;" horiz-adv-x="297" 
d="M109 504h86.002v-575c0 -19.333 -3.33301 -37.166 -10 -53.499s-15.834 -30.5 -27.501 -42.5s-25.5 -21.5 -41.5 -28.5s-33 -10.5 -51 -10.5c-10 0 -19.333 1 -28 3l-45 9v63h45c19.333 0 36.166 5.16699 50.499 15.5s21.5 25.166 21.5 44.499v575zM173.002 707l91 -112
v-10h-67l-47 63l-47 -63h-67v10l91 112h46z" />
    <glyph glyph-name="Kcommaaccent" unicode="&#x136;" horiz-adv-x="596" 
d="M150 695v-304h70l199 304h103l-216 -337l258 -358h-108l-234 325h-72v-325h-90v695h90zM271 -47c11.333 0 21 -3.66406 29 -10.9971c12.667 -11.333 19 -26.333 19 -45c0 -24 -7.5 -45 -22.5 -63s-33.5 -31.333 -55.5 -40l-17 23c12.667 5.33301 22.5 12.666 29.5 21.999
s12.167 19 15.5 29c-11.333 0.666992 -21 5.16699 -29 13.5s-12 18.166 -12 29.499s4.16699 21.166 12.5 29.499s18.5 12.5 30.5 12.5z" />
    <glyph glyph-name="kcommaaccent" unicode="&#x137;" horiz-adv-x="458" 
d="M146 707v-419.001h52l154 216h88l-170 -245l124 -171c6.66699 -9.33301 15.667 -16 27 -20s23.333 -6 36 -6v-62c-16 -8 -30 -12 -42 -12c-16.667 0 -32 6.33301 -46 19s-27 27.334 -39 44.001l-133 180h-51v-231h-86v683zM225 -47.001c11.333 0 21 -3.66406 29 -10.9971
c12.667 -11.333 19 -26.333 19 -45c0 -24 -7.5 -45 -22.5 -63s-33.5 -31.333 -55.5 -40l-17 23c12.667 5.33301 22.5 12.666 29.5 21.999s12.167 19 15.5 29c-11.333 0.666992 -21 5.16699 -29 13.5s-12 18.166 -12 29.499s4.16699 21.166 12.5 29.499s18.5 12.5 30.5 12.5z
" />
    <glyph glyph-name="Lacute" unicode="&#x139;" horiz-adv-x="493" 
d="M150 695v-613h343l-25 -82h-408v695h90zM73 743l76 123h77l1 -11l-85 -112h-69z" />
    <glyph glyph-name="lacute" unicode="&#x13a;" horiz-adv-x="255" 
d="M55 683l86.002 24.001v-585c0 -40 20.667 -60 62 -60h51v-62c-11.333 -4 -23.5 -7 -36.5 -9s-24.167 -3 -33.5 -3c-18 0 -34.833 3.5 -50.5 10.5s-29.334 16.5 -41.001 28.5s-20.834 26.167 -27.501 42.5s-10 34.166 -10 53.499v560zM67.002 737.001l76 123h77l1 -11
l-85 -112h-69z" />
    <glyph glyph-name="Lcommaaccent" unicode="&#x13b;" horiz-adv-x="493" 
d="M150 695v-613h343l-25 -82h-408v695h90zM263 -47c11.333 0 21 -3.66406 29 -10.9971c12.667 -11.333 19 -26.333 19 -45c0 -24 -7.5 -45 -22.5 -63s-33.5 -31.333 -55.5 -40l-17 23c12.667 5.33301 22.5 12.666 29.5 21.999s12.167 19 15.5 29
c-11.333 0.666992 -21 5.16699 -29 13.5s-12 18.166 -12 29.499s4.16699 21.166 12.5 29.499s18.5 12.5 30.5 12.5z" />
    <glyph glyph-name="lcommaaccent" unicode="&#x13c;" horiz-adv-x="255" 
d="M55 683l86.002 24.001v-585c0 -40 20.667 -60 62 -60h51v-62c-11.333 -4 -23.5 -7 -36.5 -9s-24.167 -3 -33.5 -3c-18 0 -34.833 3.5 -50.5 10.5s-29.334 16.5 -41.001 28.5s-20.834 26.167 -27.501 42.5s-10 34.166 -10 53.499v560zM139.002 -46.999
c11.333 0 21 -3.66406 29 -10.9971c12.667 -11.333 19 -26.333 19 -45c0 -24 -7.5 -45 -22.5 -63s-33.5 -31.333 -55.5 -40l-17 23c12.667 5.33301 22.5 12.666 29.5 21.999s12.167 19 15.5 29c-11.333 0.666992 -21 5.16699 -29 13.5s-12 18.166 -12 29.499
s4.16699 21.166 12.5 29.499s18.5 12.5 30.5 12.5z" />
    <glyph glyph-name="Lcaron" unicode="&#x13d;" horiz-adv-x="493" 
d="M150 695v-613h343l-25 -82h-408v695h90zM358 707c11.333 0 21 -3.66406 29 -10.9971c12.667 -11.333 19 -26.333 19 -45c0 -24 -7.5 -45 -22.5 -63s-33.5 -31.333 -55.5 -40l-17 23c12.667 5.33301 22.5 12.666 29.5 21.999s12.167 19 15.5 29
c-11.333 0.666992 -21 5.16699 -29 13.5s-12 18.166 -12 29.499s4.16699 21.166 12.5 29.499s18.5 12.5 30.5 12.5z" />
    <glyph glyph-name="lcaron" unicode="&#x13e;" horiz-adv-x="324" 
d="M55 683l86.002 24.001v-585c0 -40 20.667 -60 62 -60h51v-62c-11.333 -4 -23.5 -7 -36.5 -9s-24.167 -3 -33.5 -3c-18 0 -34.833 3.5 -50.5 10.5s-29.334 16.5 -41.001 28.5s-20.834 26.167 -27.501 42.5s-10 34.166 -10 53.499v560zM254.002 707.001
c11.333 0 21 -3.66406 29 -10.9971c12.667 -11.333 19 -26.333 19 -45c0 -24 -7.5 -45 -22.5 -63s-33.5 -31.333 -55.5 -40l-17 23c12.667 5.33301 22.5 12.666 29.5 21.999s12.167 19 15.5 29c-11.333 0.666992 -21 5.16699 -29 13.5s-12 18.166 -12 29.499
s4.16699 21.166 12.5 29.499s18.5 12.5 30.5 12.5z" />
    <glyph glyph-name="Ldot" unicode="&#x13f;" horiz-adv-x="493" 
d="M150 695v-613h343l-25 -82h-408v695h90zM337 384c13.333 0 24.666 -4.5 33.999 -13.5s14 -20.167 14 -33.5s-4.66699 -24.5 -14 -33.5s-20.666 -13.5 -33.999 -13.5s-24.666 4.5 -33.999 13.5s-14 20.167 -14 33.5s4.66699 24.5 14 33.5s20.666 13.5 33.999 13.5z" />
    <glyph glyph-name="ldot" unicode="&#x140;" horiz-adv-x="295" 
d="M55 683l86.002 24.001v-585c0 -40 20.667 -60 62 -60h51v-62c-11.333 -4 -23.5 -7 -36.5 -9s-24.167 -3 -33.5 -3c-18 0 -34.833 3.5 -50.5 10.5s-29.334 16.5 -41.001 28.5s-20.834 26.167 -27.501 42.5s-10 34.166 -10 53.499v560zM244.002 386.001
c13.333 0 24.666 -4.5 33.999 -13.5s14 -20.167 14 -33.5s-4.66699 -24.5 -14 -33.5s-20.666 -13.5 -33.999 -13.5s-24.666 4.5 -33.999 13.5s-14 20.167 -14 33.5s4.66699 24.5 14 33.5s20.666 13.5 33.999 13.5z" />
    <glyph glyph-name="Lslash" unicode="&#x141;" horiz-adv-x="493" 
d="M150 695v-287l107 82v-73l-107 -82v-253h343l-25 -82h-408v266l-63 -48v73l63 48v356h90z" />
    <glyph glyph-name="lslash" unicode="&#x142;" horiz-adv-x="255" 
d="M55 683l86.002 24.001v-307l79 59v-72l-79 -59v-206c0 -40 20.667 -60 62 -60h51v-62c-11.333 -4 -23.5 -7 -36.5 -9s-24.167 -3 -33.5 -3c-18 0 -34.833 3.5 -50.5 10.5s-29.334 16.5 -41.001 28.5s-20.834 26.167 -27.501 42.5s-10 34.166 -10 53.499v141l-63 -46v72
l63 46v347z" />
    <glyph glyph-name="Nacute" unicode="&#x143;" horiz-adv-x="673" 
d="M60 0v695h115l347 -558v558h90v-695h-110l-352 569v-569h-90zM275.948 737l85.8711 123h87.001l1.12988 -11l-96.04 -112h-77.9619z" />
    <glyph glyph-name="nacute" unicode="&#x144;" horiz-adv-x="535" 
d="M284 442c-30 0 -56.501 -5.83594 -79.501 -17.5029s-39.167 -22.5 -48.5 -32.5v-392h-86v380c0 35.333 -7.66699 68.333 -23 99l79 37c5.33301 -9.33301 10 -18.666 14 -27.999s7.33301 -19.666 10 -30.999h6c14 17.333 33.5 31.5 58.5 42.5s48.833 16.5 71.5 16.5
c30.667 0 58.167 -4.83301 82.5 -14.5s44.833 -23 61.5 -40s29.334 -37 38.001 -60s13 -47.833 13 -74.5v-327h-86v328c0 34.667 -10.5 62.334 -31.5 83.001s-47.5 31 -79.5 31zM225.999 584.997l52 122h72v-25l-67 -97h-57z" />
    <glyph glyph-name="Ncommaaccent" unicode="&#x145;" horiz-adv-x="673" 
d="M60 0v695h115l347 -558v558h90v-695h-110l-352 569v-569h-90zM313 -47c11.333 0 21 -3.66406 29 -10.9971c12.667 -11.333 19 -26.333 19 -45c0 -24 -7.5 -45 -22.5 -63s-33.5 -31.333 -55.5 -40l-17 23c12.667 5.33301 22.5 12.666 29.5 21.999s12.167 19 15.5 29
c-11.333 0.666992 -21 5.16699 -29 13.5s-12 18.166 -12 29.499s4.16699 21.166 12.5 29.499s18.5 12.5 30.5 12.5z" />
    <glyph glyph-name="ncommaaccent" unicode="&#x146;" horiz-adv-x="535" 
d="M284 442c-30 0 -56.501 -5.83594 -79.501 -17.5029s-39.167 -22.5 -48.5 -32.5v-392h-86v380c0 35.333 -7.66699 68.333 -23 99l79 37c5.33301 -9.33301 10 -18.666 14 -27.999s7.33301 -19.666 10 -30.999h6c14 17.333 33.5 31.5 58.5 42.5s48.833 16.5 71.5 16.5
c30.667 0 58.167 -4.83301 82.5 -14.5s44.833 -23 61.5 -40s29.334 -37 38.001 -60s13 -47.833 13 -74.5v-327h-86v328c0 34.667 -10.5 62.334 -31.5 83.001s-47.5 31 -79.5 31zM272.999 -47.0029c11.333 0 21 -3.66406 29 -10.9971c12.667 -11.333 19 -26.333 19 -45
c0 -24 -7.5 -45 -22.5 -63s-33.5 -31.333 -55.5 -40l-17 23c12.667 5.33301 22.5 12.666 29.5 21.999s12.167 19 15.5 29c-11.333 0.666992 -21 5.16699 -29 13.5s-12 18.166 -12 29.499s4.16699 21.166 12.5 29.499s18.5 12.5 30.5 12.5z" />
    <glyph glyph-name="Ncaron" unicode="&#x147;" horiz-adv-x="673" 
d="M60 0v695h115l347 -558v558h90v-695h-110l-352 569v-569h-90zM318 728l-116 112v11h76l60 -60l60 60h76v-11l-116 -112h-40z" />
    <glyph glyph-name="ncaron" unicode="&#x148;" horiz-adv-x="535" 
d="M284 442c-30 0 -56.501 -5.83594 -79.501 -17.5029s-39.167 -22.5 -48.5 -32.5v-392h-86v380c0 35.333 -7.66699 68.333 -23 99l79 37c5.33301 -9.33301 10 -18.666 14 -27.999s7.33301 -19.666 10 -30.999h6c14 17.333 33.5 31.5 58.5 42.5s48.833 16.5 71.5 16.5
c30.667 0 58.167 -4.83301 82.5 -14.5s44.833 -23 61.5 -40s29.334 -37 38.001 -60s13 -47.833 13 -74.5v-327h-86v328c0 34.667 -10.5 62.334 -31.5 83.001s-47.5 31 -79.5 31zM262.999 583.997l-116 112v11h76l60 -60l60 60h76v-11l-116 -112h-40z" />
    <glyph glyph-name="Omacron" unicode="&#x14c;" horiz-adv-x="732" 
d="M366 -12c-58 0 -107.667 9.33301 -149 28s-75 44.167 -101 76.5s-45.167 70.5 -57.5 114.5s-18.5 91 -18.5 141v27c0 47.333 7.5 91.333 22.5 132s36.5 75.834 64.5 105.501s62.167 52.834 102.5 69.501s85.833 25 136.5 25s96.167 -8.33301 136.5 -25
s74.5 -39.834 102.5 -69.501s49.5 -64.834 64.5 -105.501s22.5 -84.667 22.5 -132v-27c0 -50 -6.16699 -97 -18.5 -141s-31.5 -82.167 -57.5 -114.5s-59.667 -57.833 -101 -76.5s-91 -28 -149 -28zM366 624c-37.333 0 -70.332 -6.66602 -98.999 -19.999
s-52.834 -31.333 -72.501 -54s-34.667 -49.334 -45 -80.001s-15.5 -63 -15.5 -97v-23c0 -38 4.5 -73.833 13.5 -107.5s22.833 -63.334 41.5 -89.001s42.5 -46 71.5 -61s63.5 -22.5 103.5 -22.5c41.333 0 76.833 7.16699 106.5 21.5s54 34 73 59s32.833 54.5 41.5 88.5
s13 71 13 111v23c0 34 -5.16699 66.333 -15.5 97s-25.333 57.334 -45 80.001s-44 40.667 -73 54s-61.833 20 -98.5 20zM217.001 836.001l296 0.000976562c4.66699 -10 7 -21.667 7 -35c0 -6 -0.5 -12 -1.5 -18s-2.83301 -11.667 -5.5 -17h-296c-4.66699 10 -7 22 -7 36
c0 13.333 2.33301 24.666 7 33.999z" />
    <glyph glyph-name="omacron" unicode="&#x14d;" horiz-adv-x="552" 
d="M437 252l-0.00195312 19.999c0 48.667 -12.667 88.334 -38 119.001c-13.333 16 -30 28.5 -50 37.5s-43 13.5 -69 13.5c-25.333 0 -47.666 -4.16699 -66.999 -12.5s-35.666 -20.166 -48.999 -35.499c-26.667 -30.667 -40 -71.667 -40 -123v-23c0 -28 3 -54 9 -78
s16.333 -44.667 31 -62c12 -14.667 27.5 -26 46.5 -34s42.167 -12 69.5 -12c25.333 0 47 3.66699 65 11s33.333 17.666 46 30.999c17.333 17.333 29.333 39 36 65s10 53.667 10 83zM452.998 59.999c-23.333 -24.667 -49.665 -42.8291 -78.998 -54.4961s-61 -17.5 -95 -17.5
c-32.667 0 -64 6 -94 18s-56.667 30 -80 54c-25.333 25.333 -41.833 54.666 -49.5 87.999s-11.5 68 -11.5 104v19c0.666992 34.667 5 65.667 13 93s25 54.666 51 81.999c23.333 24 49.333 41.667 78 53s59.667 17 93 17s64.166 -5.5 92.499 -16.5
s54.166 -28.167 77.499 -51.5c24 -24.667 41.333 -51.334 52 -80.001s16 -60.334 16 -95.001v-21c0 -36 -4 -70 -12 -102s-25.333 -62 -52 -90zM135.999 672.004l296 0.000976562c4.66699 -10 7 -21.667 7 -35c0 -6 -0.5 -12 -1.5 -18s-2.83301 -11.667 -5.5 -17h-296
c-4.66699 10 -7 22 -7 36c0 13.333 2.33301 24.666 7 33.999z" />
    <glyph glyph-name="Ohungarumlaut" unicode="&#x150;" horiz-adv-x="732" 
d="M366 -12c-58 0 -107.667 9.33301 -149 28s-75 44.167 -101 76.5s-45.167 70.5 -57.5 114.5s-18.5 91 -18.5 141v27c0 47.333 7.5 91.333 22.5 132s36.5 75.834 64.5 105.501s62.167 52.834 102.5 69.501s85.833 25 136.5 25s96.167 -8.33301 136.5 -25
s74.5 -39.834 102.5 -69.501s49.5 -64.834 64.5 -105.501s22.5 -84.667 22.5 -132v-27c0 -50 -6.16699 -97 -18.5 -141s-31.5 -82.167 -57.5 -114.5s-59.667 -57.833 -101 -76.5s-91 -28 -149 -28zM366 624c-37.333 0 -70.332 -6.66602 -98.999 -19.999
s-52.834 -31.333 -72.501 -54s-34.667 -49.334 -45 -80.001s-15.5 -63 -15.5 -97v-23c0 -38 4.5 -73.833 13.5 -107.5s22.833 -63.334 41.5 -89.001s42.5 -46 71.5 -61s63.5 -22.5 103.5 -22.5c41.333 0 76.833 7.16699 106.5 21.5s54 34 73 59s32.833 54.5 41.5 88.5
s13 71 13 111v23c0 34 -5.16699 66.333 -15.5 97s-25.333 57.334 -45 80.001s-44 40.667 -73 54s-61.833 20 -98.5 20zM255.768 743.189l87.7666 125.999h70.2139v-25.8193l-98.2988 -100.18h-59.6816zM371.62 743.189l88.9365 125.999h70.2139v-25.8193l-98.2988 -100.18
h-60.8516z" />
    <glyph glyph-name="ohungarumlaut" unicode="&#x151;" horiz-adv-x="552" 
d="M437 252l-0.00195312 19.999c0 48.667 -12.667 88.334 -38 119.001c-13.333 16 -30 28.5 -50 37.5s-43 13.5 -69 13.5c-25.333 0 -47.666 -4.16699 -66.999 -12.5s-35.666 -20.166 -48.999 -35.499c-26.667 -30.667 -40 -71.667 -40 -123v-23c0 -28 3 -54 9 -78
s16.333 -44.667 31 -62c12 -14.667 27.5 -26 46.5 -34s42.167 -12 69.5 -12c25.333 0 47 3.66699 65 11s33.333 17.666 46 30.999c17.333 17.333 29.333 39 36 65s10 53.667 10 83zM452.998 59.999c-23.333 -24.667 -49.665 -42.8291 -78.998 -54.4961s-61 -17.5 -95 -17.5
c-32.667 0 -64 6 -94 18s-56.667 30 -80 54c-25.333 25.333 -41.833 54.666 -49.5 87.999s-11.5 68 -11.5 104v19c0.666992 34.667 5 65.667 13 93s25 54.666 51 81.999c23.333 24 49.333 41.667 78 53s59.667 17 93 17s64.166 -5.5 92.499 -16.5
s54.166 -28.167 77.499 -51.5c24 -24.667 41.333 -51.334 52 -80.001s16 -60.334 16 -95.001v-21c0 -36 -4 -70 -12 -102s-25.333 -62 -52 -90zM188.903 583.786l66.9355 108h70.7979v-22.8291l-86.2441 -85.1709h-51.4893zM293.169 583.786l66.9355 108h70.7979v-22.8291
l-86.2441 -85.1709h-51.4893z" />
    <glyph glyph-name="OE" unicode="&#x152;" horiz-adv-x="1123" 
d="M367 -12c-60.667 0 -111.833 9.33301 -153.5 28s-75.334 44.167 -101.001 76.5s-44.167 70.5 -55.5 114.5s-17 91 -17 141v37c0 47.333 7 90.833 21 130.5s34.833 73.667 62.5 102s61.834 50.333 102.501 66s87.667 23.5 141 23.5c52 0 97.667 -7.33301 137 -22
s73 -35.667 101 -63v73h496l-26 -82h-380v-203h340v-83h-340v-245h403v-82h-493v74c-26 -27.333 -58.5 -48.5 -97.5 -63.5s-85.833 -22.5 -140.5 -22.5zM367.001 624c-39.333 0 -73.6709 -6.16602 -103.004 -18.499s-53.666 -29.166 -72.999 -50.499
s-33.666 -46.833 -42.999 -76.5s-14 -61.5 -14 -95.5v-33c0 -38 4 -73.833 12 -107.5s21.167 -63.334 39.5 -89.001s42.166 -46 71.499 -61s65.333 -22.5 108 -22.5c44 0 81 7.16699 111 21.5s54.167 34 72.5 59s31.5 54.5 39.5 88.5s12 71 12 111v33
c0 34 -4.66699 65.833 -14 95.5s-23.666 55.167 -42.999 76.5s-43.666 38.166 -72.999 50.499s-63.666 18.5 -102.999 18.5z" />
    <glyph glyph-name="oe" unicode="&#x153;" horiz-adv-x="932" 
d="M521 230c0 -58.667 13.5 -101.33 40.5 -127.997s67.833 -40 122.5 -40c26.667 0 49.334 5.5 68.001 16.5s35.334 26.167 50.001 45.5l76 -31c-19.333 -32.667 -46.333 -58.334 -81 -77.001s-74 -28 -118 -28c-53.333 0 -96.833 8.5 -130.5 25.5s-59.5 40.833 -77.5 71.5
l-10 -12.5c-3.33301 -4.33301 -7 -8.5 -11 -12.5c-23.333 -24.667 -49.666 -42.834 -78.999 -54.501s-61 -17.5 -95 -17.5c-32.667 0 -64 6 -94 18s-56.667 30 -80 54c-25.333 25.333 -41.833 54.666 -49.5 87.999s-11.5 68 -11.5 104v19c0.666992 34.667 5 65.667 13 93
s25 54.666 51 81.999c23.333 24 49.333 41.667 78 53s59.667 17 93 17s64.166 -5.5 92.499 -16.5s54.166 -28.167 77.499 -51.5c8.66699 -10 16.667 -20 24 -30l9.5 11.5l9.5 11.5c22.667 25.333 49.667 44.166 81 56.499s63.666 18.5 96.999 18.5
c37.333 0 70.5 -6 99.5 -18s53.333 -28.667 73 -50s34.5 -46.666 44.5 -75.999s15 -61.666 15 -96.999v-45h-378zM434 252.004l-0.00195312 19.999c0 48.667 -12.667 88.334 -38 119.001c-13.333 16 -30 28.5 -50 37.5s-43 13.5 -69 13.5
c-25.333 0 -47.666 -4.16699 -66.999 -12.5s-35.666 -20.166 -48.999 -35.499c-26.667 -30.667 -40 -71.667 -40 -123v-23c0 -28 3 -54 9 -78s16.333 -44.667 31 -62c12 -14.667 27.5 -26 46.5 -34s42.167 -12 69.5 -12c25.333 0 47 3.66699 65 11s33.333 17.666 46 30.999
c17.333 17.333 29.333 39 36 65s10 53.667 10 83zM520.998 300.003l292.001 -0.000976562v9c0 16.667 -3.33301 33 -10 49s-16.334 30.167 -29.001 42.5s-28 22.333 -46 30s-38.333 11.5 -61 11.5c-21.333 0 -41 -3.66699 -59 -11s-33.5 -17.166 -46.5 -29.499
s-23 -26.5 -30 -42.5s-10.5 -32.667 -10.5 -50v-9z" />
    <glyph glyph-name="Racute" unicode="&#x154;" horiz-adv-x="652" 
d="M292 270c-7.33301 9.33301 -16.666 15.999 -27.999 19.999s-22.666 6 -33.999 6h-80v-296h-90v695h316c29.333 0 56.333 -4.5 81 -13.5s45.834 -22 63.501 -39s31.5 -37.5 41.5 -61.5s15 -51 15 -81c0 -59.333 -16.833 -107.166 -50.5 -143.499
s-80.834 -56.166 -141.501 -59.499l161 -202c12 -15.333 22.667 -24.5 32 -27.5s21 -4.5 35 -4.5v-63c-7.33301 -4 -15.833 -7 -25.5 -9s-17.834 -3 -24.501 -3c-19.333 0 -36.833 6.66699 -52.5 20s-29.834 27.666 -42.501 42.999zM150 376.999h210
c43.333 0 75.333 10 96 30s31 51 31 93c0 38.667 -9.83301 67.167 -29.5 85.5s-48.167 27.5 -85.5 27.5h-222v-236zM241 744.999l76 123h77l1 -11l-85 -112h-69z" />
    <glyph glyph-name="racute" unicode="&#x155;" horiz-adv-x="341" 
d="M151 453c12.667 20 27.501 35.499 44.501 46.499s37.5 16.5 61.5 16.5c26 0 53.667 -7.33301 83 -22l-30 -80c-20.667 10.667 -39.667 16 -57 16s-32.5 -4.5 -45.5 -13.5s-23.667 -21.167 -32 -36.5s-14.5 -33.5 -18.5 -54.5s-6 -43.5 -6 -67.5v-258h-86v380
c0 35.333 -7.66699 68.333 -23 99l79 37c5.33301 -9.33301 10.166 -19.166 14.499 -29.499s7.5 -21.5 9.5 -33.5h6zM119.001 584.999l52 122h72v-25l-67 -97h-57z" />
    <glyph glyph-name="Rcommaaccent" unicode="&#x156;" horiz-adv-x="652" 
d="M292 270c-7.33301 9.33301 -16.666 15.999 -27.999 19.999s-22.666 6 -33.999 6h-80v-296h-90v695h316c29.333 0 56.333 -4.5 81 -13.5s45.834 -22 63.501 -39s31.5 -37.5 41.5 -61.5s15 -51 15 -81c0 -59.333 -16.833 -107.166 -50.5 -143.499
s-80.834 -56.166 -141.501 -59.499l161 -202c12 -15.333 22.667 -24.5 32 -27.5s21 -4.5 35 -4.5v-63c-7.33301 -4 -15.833 -7 -25.5 -9s-17.834 -3 -24.501 -3c-19.333 0 -36.833 6.66699 -52.5 20s-29.834 27.666 -42.501 42.999zM150 376.999h210
c43.333 0 75.333 10 96 30s31 51 31 93c0 38.667 -9.83301 67.167 -29.5 85.5s-48.167 27.5 -85.5 27.5h-222v-236zM309 -47.001c11.333 0 21 -3.66406 29 -10.9971c12.667 -11.333 19 -26.333 19 -45c0 -24 -7.5 -45 -22.5 -63s-33.5 -31.333 -55.5 -40l-17 23
c12.667 5.33301 22.5 12.666 29.5 21.999s12.167 19 15.5 29c-11.333 0.666992 -21 5.16699 -29 13.5s-12 18.166 -12 29.499s4.16699 21.166 12.5 29.499s18.5 12.5 30.5 12.5z" />
    <glyph glyph-name="rcommaaccent" unicode="&#x157;" horiz-adv-x="341" 
d="M151 453c12.667 20 27.501 35.499 44.501 46.499s37.5 16.5 61.5 16.5c26 0 53.667 -7.33301 83 -22l-30 -80c-20.667 10.667 -39.667 16 -57 16s-32.5 -4.5 -45.5 -13.5s-23.667 -21.167 -32 -36.5s-14.5 -33.5 -18.5 -54.5s-6 -43.5 -6 -67.5v-258h-86v380
c0 35.333 -7.66699 68.333 -23 99l79 37c5.33301 -9.33301 10.166 -19.166 14.499 -29.499s7.5 -21.5 9.5 -33.5h6zM136.001 -47.001c11.333 0 21 -3.66406 29 -10.9971c12.667 -11.333 19 -26.333 19 -45c0 -24 -7.5 -45 -22.5 -63s-33.5 -31.333 -55.5 -40l-17 23
c12.667 5.33301 22.5 12.666 29.5 21.999s12.167 19 15.5 29c-11.333 0.666992 -21 5.16699 -29 13.5s-12 18.166 -12 29.499s4.16699 21.166 12.5 29.499s18.5 12.5 30.5 12.5z" />
    <glyph glyph-name="Rcaron" unicode="&#x158;" horiz-adv-x="652" 
d="M292 270c-7.33301 9.33301 -16.666 15.999 -27.999 19.999s-22.666 6 -33.999 6h-80v-296h-90v695h316c29.333 0 56.333 -4.5 81 -13.5s45.834 -22 63.501 -39s31.5 -37.5 41.5 -61.5s15 -51 15 -81c0 -59.333 -16.833 -107.166 -50.5 -143.499
s-80.834 -56.166 -141.501 -59.499l161 -202c12 -15.333 22.667 -24.5 32 -27.5s21 -4.5 35 -4.5v-63c-7.33301 -4 -15.833 -7 -25.5 -9s-17.834 -3 -24.501 -3c-19.333 0 -36.833 6.66699 -52.5 20s-29.834 27.666 -42.501 42.999zM150 376.999h210
c43.333 0 75.333 10 96 30s31 51 31 93c0 38.667 -9.83301 67.167 -29.5 85.5s-48.167 27.5 -85.5 27.5h-222v-236zM247 734.999l-116 112v11h76l60 -60l60 60h76v-11l-116 -112h-40z" />
    <glyph glyph-name="rcaron" unicode="&#x159;" horiz-adv-x="341" 
d="M151 453c12.667 20 27.501 35.499 44.501 46.499s37.5 16.5 61.5 16.5c26 0 53.667 -7.33301 83 -22l-30 -80c-20.667 10.667 -39.667 16 -57 16s-32.5 -4.5 -45.5 -13.5s-23.667 -21.167 -32 -36.5s-14.5 -33.5 -18.5 -54.5s-6 -43.5 -6 -67.5v-258h-86v380
c0 35.333 -7.66699 68.333 -23 99l79 37c5.33301 -9.33301 10.166 -19.166 14.499 -29.499s7.5 -21.5 9.5 -33.5h6zM153.001 583.999l-116 112v11h76l60 -60l60 60h76v-11l-116 -112h-40z" />
    <glyph glyph-name="Sacute" unicode="&#x15a;" horiz-adv-x="586" 
d="M57 519c0 34 7.33203 63.001 21.999 87.001s33.834 43.5 57.501 58.5s50.5 25.833 80.5 32.5s60 10 90 10c42.667 0 83.5 -8.5 122.5 -25.5s72.5 -41.5 100.5 -73.5l-65 -58c-21.333 25.333 -46.333 44 -75 56s-60 18 -94 18c-16.667 0 -33.667 -2 -51 -6
s-33 -10.333 -47 -19s-25.5 -19.334 -34.5 -32.001s-13.5 -27.334 -13.5 -44.001c0 -31.333 9.83301 -55.166 29.5 -71.499s44.5 -29.333 74.5 -39s62.167 -18.5 96.5 -26.5s66.5 -19.167 96.5 -33.5s54.833 -34.166 74.5 -59.499s29.5 -60.333 29.5 -105
c0 -36 -8.33301 -66.667 -25 -92s-38 -46 -64 -62s-54.833 -27.667 -86.5 -35s-62.167 -11 -91.5 -11c-56.667 0 -106.667 12.833 -150 38.5s-78 63.167 -104 112.5l78 41c20.667 -38 45.334 -65.833 74.001 -83.5s63 -26.5 103 -26.5c17.333 0 36.166 1.66699 56.499 5
s39.333 9.33301 57 18s32.5 20.667 44.5 36s18 35 18 59c0 29.333 -10 51.833 -30 67.5s-45 28.5 -75 38.5s-62.333 19.167 -97 27.5s-67 19.833 -97 34.5s-55 34.667 -75 60s-30 59.666 -30 102.999zM228.999 737.001l76 123h77l1 -11l-85 -112h-69z" />
    <glyph glyph-name="sacute" unicode="&#x15b;" horiz-adv-x="474" 
d="M247 516c32 0 63 -6.33398 93 -19.001s55.667 -30.667 77 -54l-52 -51c-11.333 12 -26.333 23.333 -45 34s-43.667 16 -75 16c-10.667 0 -22.167 -0.833008 -34.5 -2.5s-24 -5 -35 -10s-20.167 -12.167 -27.5 -21.5s-11 -21.333 -11 -36c0 -16.667 7.5 -29.5 22.5 -38.5
s33.833 -17 56.5 -24s47 -13.667 73 -20s50.333 -14.666 73 -24.999s41.5 -24 56.5 -41s22.5 -39.5 22.5 -67.5c0 -52 -17 -93 -51 -123s-84 -45 -150 -45c-50 0 -92 8.5 -126 25.5s-61.333 43.833 -82 80.5l62 39c8.66699 -10 17.667 -19.333 27 -28
s19.666 -16.167 30.999 -22.5s24.5 -11.333 39.5 -15s32.833 -5.5 53.5 -5.5c10.667 0 22.5 1 35.5 3s25 6 36 12s20.167 14.333 27.5 25s11 24.334 11 41.001c0 20 -7.5 35 -22.5 45s-33.667 18.167 -56 24.5s-46.5 12.166 -72.5 17.499s-50.167 13.333 -72.5 24
s-41 25.5 -56 44.5s-22.5 45.167 -22.5 78.5c0 26 6.33301 47.833 19 65.5s28.5 32 47.5 43s39.833 18.833 62.5 23.5s44.334 7 65.001 7zM182 584.999l52 122h72v-25l-67 -97h-57z" />
    <glyph glyph-name="Scircumflex" unicode="&#x15c;" horiz-adv-x="586" 
d="M57 519c0 34 7.33203 63.001 21.999 87.001s33.834 43.5 57.501 58.5s50.5 25.833 80.5 32.5s60 10 90 10c42.667 0 83.5 -8.5 122.5 -25.5s72.5 -41.5 100.5 -73.5l-65 -58c-21.333 25.333 -46.333 44 -75 56s-60 18 -94 18c-16.667 0 -33.667 -2 -51 -6
s-33 -10.333 -47 -19s-25.5 -19.334 -34.5 -32.001s-13.5 -27.334 -13.5 -44.001c0 -31.333 9.83301 -55.166 29.5 -71.499s44.5 -29.333 74.5 -39s62.167 -18.5 96.5 -26.5s66.5 -19.167 96.5 -33.5s54.833 -34.166 74.5 -59.499s29.5 -60.333 29.5 -105
c0 -36 -8.33301 -66.667 -25 -92s-38 -46 -64 -62s-54.833 -27.667 -86.5 -35s-62.167 -11 -91.5 -11c-56.667 0 -106.667 12.833 -150 38.5s-78 63.167 -104 112.5l78 41c20.667 -38 45.334 -65.833 74.001 -83.5s63 -26.5 103 -26.5c17.333 0 36.166 1.66699 56.499 5
s39.333 9.33301 57 18s32.5 20.667 44.5 36s18 35 18 59c0 29.333 -10 51.833 -30 67.5s-45 28.5 -75 38.5s-62.333 19.167 -97 27.5s-67 19.833 -97 34.5s-55 34.667 -75 60s-30 59.666 -30 102.999zM301.999 860.001l116 -112v-11h-76l-60 60l-60 -60h-76v11l116 112h40z
" />
    <glyph glyph-name="scircumflex" unicode="&#x15d;" horiz-adv-x="474" 
d="M247 516c32 0 63 -6.33398 93 -19.001s55.667 -30.667 77 -54l-52 -51c-11.333 12 -26.333 23.333 -45 34s-43.667 16 -75 16c-10.667 0 -22.167 -0.833008 -34.5 -2.5s-24 -5 -35 -10s-20.167 -12.167 -27.5 -21.5s-11 -21.333 -11 -36c0 -16.667 7.5 -29.5 22.5 -38.5
s33.833 -17 56.5 -24s47 -13.667 73 -20s50.333 -14.666 73 -24.999s41.5 -24 56.5 -41s22.5 -39.5 22.5 -67.5c0 -52 -17 -93 -51 -123s-84 -45 -150 -45c-50 0 -92 8.5 -126 25.5s-61.333 43.833 -82 80.5l62 39c8.66699 -10 17.667 -19.333 27 -28
s19.666 -16.167 30.999 -22.5s24.5 -11.333 39.5 -15s32.833 -5.5 53.5 -5.5c10.667 0 22.5 1 35.5 3s25 6 36 12s20.167 14.333 27.5 25s11 24.334 11 41.001c0 20 -7.5 35 -22.5 45s-33.667 18.167 -56 24.5s-46.5 12.166 -72.5 17.499s-50.167 13.333 -72.5 24
s-41 25.5 -56 44.5s-22.5 45.167 -22.5 78.5c0 26 6.33301 47.833 19 65.5s28.5 32 47.5 43s39.833 18.833 62.5 23.5s44.334 7 65.001 7zM256 706.999l116 -112v-11h-76l-60 60l-60 -60h-76v11l116 112h40z" />
    <glyph glyph-name="Scedilla" unicode="&#x15e;" horiz-adv-x="586" 
d="M57 519c0 34 7.33203 63.001 21.999 87.001s33.834 43.5 57.501 58.5s50.5 25.833 80.5 32.5s60 10 90 10c42.667 0 83.5 -8.5 122.5 -25.5s72.5 -41.5 100.5 -73.5l-65 -58c-21.333 25.333 -46.333 44 -75 56s-60 18 -94 18c-16.667 0 -33.667 -2 -51 -6
s-33 -10.333 -47 -19s-25.5 -19.334 -34.5 -32.001s-13.5 -27.334 -13.5 -44.001c0 -31.333 9.83301 -55.166 29.5 -71.499s44.5 -29.333 74.5 -39s62.167 -18.5 96.5 -26.5s66.5 -19.167 96.5 -33.5s54.833 -34.166 74.5 -59.499s29.5 -60.333 29.5 -105
c0 -36 -8.33301 -66.667 -25 -92s-38 -46 -64 -62s-54.833 -27.667 -86.5 -35s-62.167 -11 -91.5 -11c-56.667 0 -106.667 12.833 -150 38.5s-78 63.167 -104 112.5l78 41c20.667 -38 45.334 -65.833 74.001 -83.5s63 -26.5 103 -26.5c17.333 0 36.166 1.66699 56.499 5
s39.333 9.33301 57 18s32.5 20.667 44.5 36s18 35 18 59c0 29.333 -10 51.833 -30 67.5s-45 28.5 -75 38.5s-62.333 19.167 -97 27.5s-67 19.833 -97 34.5s-55 34.667 -75 60s-30 59.666 -30 102.999zM328.999 6.00098l-21.001 -70.0029
c15.333 -3.33301 28.666 -10.666 39.999 -21.999s17 -25.333 17 -42c0 -13.333 -2.83301 -24.833 -8.5 -34.5s-13.167 -17.667 -22.5 -24s-19.666 -11.166 -30.999 -14.499s-22.333 -5 -33 -5c-12.667 0 -26.167 1 -40.5 3s-27.5 5.33301 -39.5 10l8 42
c9.33301 -3.33301 19.333 -5.66602 30 -6.99902s20.667 -2 30 -2c12 0 23.167 3 33.5 9s15.5 14.667 15.5 26c0 9.33301 -4.66699 18.333 -14 27s-21.666 13.667 -36.999 15l26 92z" />
    <glyph glyph-name="scedilla" unicode="&#x15f;" horiz-adv-x="474" 
d="M247 516c32 0 63 -6.33398 93 -19.001s55.667 -30.667 77 -54l-52 -51c-11.333 12 -26.333 23.333 -45 34s-43.667 16 -75 16c-10.667 0 -22.167 -0.833008 -34.5 -2.5s-24 -5 -35 -10s-20.167 -12.167 -27.5 -21.5s-11 -21.333 -11 -36c0 -16.667 7.5 -29.5 22.5 -38.5
s33.833 -17 56.5 -24s47 -13.667 73 -20s50.333 -14.666 73 -24.999s41.5 -24 56.5 -41s22.5 -39.5 22.5 -67.5c0 -52 -17 -93 -51 -123s-84 -45 -150 -45c-50 0 -92 8.5 -126 25.5s-61.333 43.833 -82 80.5l62 39c8.66699 -10 17.667 -19.333 27 -28
s19.666 -16.167 30.999 -22.5s24.5 -11.333 39.5 -15s32.833 -5.5 53.5 -5.5c10.667 0 22.5 1 35.5 3s25 6 36 12s20.167 14.333 27.5 25s11 24.334 11 41.001c0 20 -7.5 35 -22.5 45s-33.667 18.167 -56 24.5s-46.5 12.166 -72.5 17.499s-50.167 13.333 -72.5 24
s-41 25.5 -56 44.5s-22.5 45.167 -22.5 78.5c0 26 6.33301 47.833 19 65.5s28.5 32 47.5 43s39.833 18.833 62.5 23.5s44.334 7 65.001 7zM274 5.99902l-21.001 -70.0029c15.333 -3.33301 28.666 -10.666 39.999 -21.999s17 -25.333 17 -42
c0 -13.333 -2.83301 -24.833 -8.5 -34.5s-13.167 -17.667 -22.5 -24s-19.666 -11.166 -30.999 -14.499s-22.333 -5 -33 -5c-12.667 0 -26.167 1 -40.5 3s-27.5 5.33301 -39.5 10l8 42c9.33301 -3.33301 19.333 -5.66602 30 -6.99902s20.667 -2 30 -2c12 0 23.167 3 33.5 9
s15.5 14.667 15.5 26c0 9.33301 -4.66699 18.333 -14 27s-21.666 13.667 -36.999 15l26 92z" />
    <glyph glyph-name="Scaron" unicode="&#x160;" horiz-adv-x="586" 
d="M57 519c0 34 7.33203 63.001 21.999 87.001s33.834 43.5 57.501 58.5s50.5 25.833 80.5 32.5s60 10 90 10c42.667 0 83.5 -8.5 122.5 -25.5s72.5 -41.5 100.5 -73.5l-65 -58c-21.333 25.333 -46.333 44 -75 56s-60 18 -94 18c-16.667 0 -33.667 -2 -51 -6
s-33 -10.333 -47 -19s-25.5 -19.334 -34.5 -32.001s-13.5 -27.334 -13.5 -44.001c0 -31.333 9.83301 -55.166 29.5 -71.499s44.5 -29.333 74.5 -39s62.167 -18.5 96.5 -26.5s66.5 -19.167 96.5 -33.5s54.833 -34.166 74.5 -59.499s29.5 -60.333 29.5 -105
c0 -36 -8.33301 -66.667 -25 -92s-38 -46 -64 -62s-54.833 -27.667 -86.5 -35s-62.167 -11 -91.5 -11c-56.667 0 -106.667 12.833 -150 38.5s-78 63.167 -104 112.5l78 41c20.667 -38 45.334 -65.833 74.001 -83.5s63 -26.5 103 -26.5c17.333 0 36.166 1.66699 56.499 5
s39.333 9.33301 57 18s32.5 20.667 44.5 36s18 35 18 59c0 29.333 -10 51.833 -30 67.5s-45 28.5 -75 38.5s-62.333 19.167 -97 27.5s-67 19.833 -97 34.5s-55 34.667 -75 60s-30 59.666 -30 102.999zM271.999 735.001l-116 112v11h76l60 -60l60 60h76v-11l-116 -112h-40z
" />
    <glyph glyph-name="scaron" unicode="&#x161;" horiz-adv-x="474" 
d="M247 516c32 0 63 -6.33398 93 -19.001s55.667 -30.667 77 -54l-52 -51c-11.333 12 -26.333 23.333 -45 34s-43.667 16 -75 16c-10.667 0 -22.167 -0.833008 -34.5 -2.5s-24 -5 -35 -10s-20.167 -12.167 -27.5 -21.5s-11 -21.333 -11 -36c0 -16.667 7.5 -29.5 22.5 -38.5
s33.833 -17 56.5 -24s47 -13.667 73 -20s50.333 -14.666 73 -24.999s41.5 -24 56.5 -41s22.5 -39.5 22.5 -67.5c0 -52 -17 -93 -51 -123s-84 -45 -150 -45c-50 0 -92 8.5 -126 25.5s-61.333 43.833 -82 80.5l62 39c8.66699 -10 17.667 -19.333 27 -28
s19.666 -16.167 30.999 -22.5s24.5 -11.333 39.5 -15s32.833 -5.5 53.5 -5.5c10.667 0 22.5 1 35.5 3s25 6 36 12s20.167 14.333 27.5 25s11 24.334 11 41.001c0 20 -7.5 35 -22.5 45s-33.667 18.167 -56 24.5s-46.5 12.166 -72.5 17.499s-50.167 13.333 -72.5 24
s-41 25.5 -56 44.5s-22.5 45.167 -22.5 78.5c0 26 6.33301 47.833 19 65.5s28.5 32 47.5 43s39.833 18.833 62.5 23.5s44.334 7 65.001 7zM217 583.999l-116 112v11h76l60 -60l60 60h76v-11l-116 -112h-40z" />
    <glyph glyph-name="Tcommaaccent" unicode="&#x162;" horiz-adv-x="570" 
d="M331 613v-613h-90v613h-232v82h553l-26 -82h-205zM280 -47c11.333 0 21 -3.66406 29 -10.9971c12.667 -11.333 19 -26.333 19 -45c0 -24 -7.5 -45 -22.5 -63s-33.5 -31.333 -55.5 -40l-17 23c12.667 5.33301 22.5 12.666 29.5 21.999s12.167 19 15.5 29
c-11.333 0.666992 -21 5.16699 -29 13.5s-12 18.166 -12 29.499s4.16699 21.166 12.5 29.499s18.5 12.5 30.5 12.5z" />
    <glyph glyph-name="tcommaaccent" unicode="&#x163;" horiz-adv-x="273" 
d="M71 437h-57.002v67h57v108l86 24v-132h92l-21 -67h-71v-315c0 -40 20.667 -60 62 -60h37v-63c-11.333 -4 -21.166 -6.83301 -29.499 -8.5s-17.166 -2.5 -26.499 -2.5c-18 0 -35.167 2.83301 -51.5 8.5s-30.5 14.167 -42.5 25.5s-20.833 25.5 -26.5 42.5
s-8.5 36.167 -8.5 57.5v315zM150.998 -47c11.333 0 21 -3.66406 29 -10.9971c12.667 -11.333 19 -26.333 19 -45c0 -24 -7.5 -45 -22.5 -63s-33.5 -31.333 -55.5 -40l-17 23c12.667 5.33301 22.5 12.666 29.5 21.999s12.167 19 15.5 29
c-11.333 0.666992 -21 5.16699 -29 13.5s-12 18.166 -12 29.499s4.16699 21.166 12.5 29.499s18.5 12.5 30.5 12.5z" />
    <glyph glyph-name="Tcaron" unicode="&#x164;" horiz-adv-x="570" 
d="M331 613v-613h-90v613h-232v82h553l-26 -82h-205zM268 735l-116 112v11h76l60 -60l60 60h76v-11l-116 -112h-40z" />
    <glyph glyph-name="tcaron" unicode="&#x165;" horiz-adv-x="314" 
d="M71 437h-57.002v67h57v108l86 24v-132h92l-21 -67h-71v-315c0 -40 20.667 -60 62 -60h37v-63c-11.333 -4 -21.166 -6.83301 -29.499 -8.5s-17.166 -2.5 -26.499 -2.5c-18 0 -35.167 2.83301 -51.5 8.5s-30.5 14.167 -42.5 25.5s-20.833 25.5 -26.5 42.5
s-8.5 36.167 -8.5 57.5v315zM288.998 707c11.333 0 21 -3.66406 29 -10.9971c12.667 -11.333 19 -26.333 19 -45c0 -24 -7.5 -45 -22.5 -63s-33.5 -31.333 -55.5 -40l-17 23c12.667 5.33301 22.5 12.666 29.5 21.999s12.167 19 15.5 29
c-11.333 0.666992 -21 5.16699 -29 13.5s-12 18.166 -12 29.499s4.16699 21.166 12.5 29.499s18.5 12.5 30.5 12.5z" />
    <glyph glyph-name="Umacron" unicode="&#x16a;" horiz-adv-x="651" 
d="M143 695v-400.002c0 -36 2 -67.833 6 -95.5s12.5 -51.167 25.5 -70.5s31.5 -34 55.5 -44s56 -15 96 -15c38.667 0 70 5.16699 94 15.5s42.667 25.333 56 45s22.166 43.334 26.499 71.001s6.5 58.834 6.5 93.501v400h90v-396c0 -48 -4.33301 -91.167 -13 -129.5
s-23.5 -71 -44.5 -98s-49 -47.667 -84 -62s-78.833 -21.5 -131.5 -21.5c-53.333 0 -97.666 7 -132.999 21s-63.333 34.167 -84 60.5s-35.167 58.833 -43.5 97.5s-12.5 82.667 -12.5 132v396h90zM177 823.998l296 0.000976562c4.66699 -10 7 -21.667 7 -35
c0 -6 -0.5 -12 -1.5 -18s-2.83301 -11.667 -5.5 -17h-296c-4.66699 10 -7 22 -7 36c0 13.333 2.33301 24.666 7 33.999z" />
    <glyph glyph-name="umacron" unicode="&#x16b;" 
d="M237 -12c-64 0 -110.167 15.3311 -138.5 45.998s-42.5 76.667 -42.5 138v328l86 16v-344c0 -39.333 7.66699 -67.5 23 -84.5s39.333 -25.5 72 -25.5c19.333 0 41.5 6.16699 66.5 18.5s50.5 32.833 76.5 61.5v358l86 16v-401c0 -24.667 2.33301 -45.167 7 -61.5
s12 -34.166 22 -53.499h-92c-4.66699 6.66699 -8.66699 15.834 -12 27.501s-5.33301 22.167 -6 31.5c-12.667 -13.333 -27 -25.333 -43 -36c-13.333 -9.33301 -29 -17.5 -47 -24.5s-37.333 -10.5 -58 -10.5zM119 694.998l296 0.000976562c4.66699 -10 7 -21.667 7 -35
c0 -6 -0.5 -12 -1.5 -18s-2.83301 -11.667 -5.5 -17h-296c-4.66699 10 -7 22 -7 36c0 13.333 2.33301 24.666 7 33.999z" />
    <glyph glyph-name="Uring" unicode="&#x16e;" horiz-adv-x="651" 
d="M143 695v-400.002c0 -36 2 -67.833 6 -95.5s12.5 -51.167 25.5 -70.5s31.5 -34 55.5 -44s56 -15 96 -15c38.667 0 70 5.16699 94 15.5s42.667 25.333 56 45s22.166 43.334 26.499 71.001s6.5 58.834 6.5 93.501v400h90v-396c0 -48 -4.33301 -91.167 -13 -129.5
s-23.5 -71 -44.5 -98s-49 -47.667 -84 -62s-78.833 -21.5 -131.5 -21.5c-53.333 0 -97.666 7 -132.999 21s-63.333 34.167 -84 60.5s-35.167 58.833 -43.5 97.5s-12.5 82.667 -12.5 132v396h90zM328 808.998c-14 0 -26 -4.83301 -36 -14.5s-15 -21.834 -15 -36.501
c0 -14 5 -26 15 -36s22 -15 36 -15c14.667 0 26.834 5 36.501 15s14.5 22 14.5 36c0 14.667 -4.83301 26.834 -14.5 36.501s-21.834 14.5 -36.501 14.5zM328 843.998c12 0 23.167 -2.33301 33.5 -7s19.333 -10.834 27 -18.501s13.834 -16.667 18.501 -27s7 -21.5 7 -33.5
s-2.33301 -23.167 -7 -33.5s-10.834 -19.333 -18.501 -27s-16.667 -13.667 -27 -18s-21.5 -6.5 -33.5 -6.5c-23.333 0 -43.333 8.33301 -60 25s-25 36.667 -25 60c0 12 2.16699 23.167 6.5 33.5s10.333 19.333 18 27s16.667 13.834 27 18.501s21.5 7 33.5 7z" />
    <glyph glyph-name="uring" unicode="&#x16f;" 
d="M237 -12c-64 0 -110.167 15.3311 -138.5 45.998s-42.5 76.667 -42.5 138v328l86 16v-344c0 -39.333 7.66699 -67.5 23 -84.5s39.333 -25.5 72 -25.5c19.333 0 41.5 6.16699 66.5 18.5s50.5 32.833 76.5 61.5v358l86 16v-401c0 -24.667 2.33301 -45.167 7 -61.5
s12 -34.166 22 -53.499h-92c-4.66699 6.66699 -8.66699 15.834 -12 27.501s-5.33301 22.167 -6 31.5c-12.667 -13.333 -27 -25.333 -43 -36c-13.333 -9.33301 -29 -17.5 -47 -24.5s-37.333 -10.5 -58 -10.5zM270 671.998c-14 0 -26 -4.83301 -36 -14.5
s-15 -21.834 -15 -36.501c0 -14 5 -26 15 -36s22 -15 36 -15c14.667 0 26.834 5 36.501 15s14.5 22 14.5 36c0 14.667 -4.83301 26.834 -14.5 36.501s-21.834 14.5 -36.501 14.5zM270 706.998c12 0 23.167 -2.33301 33.5 -7s19.333 -10.834 27 -18.501
s13.834 -16.667 18.501 -27s7 -21.5 7 -33.5s-2.33301 -23.167 -7 -33.5s-10.834 -19.333 -18.501 -27s-16.667 -13.667 -27 -18s-21.5 -6.5 -33.5 -6.5c-23.333 0 -43.333 8.33301 -60 25s-25 36.667 -25 60c0 12 2.16699 23.167 6.5 33.5s10.333 19.333 18 27
s16.667 13.834 27 18.501s21.5 7 33.5 7z" />
    <glyph glyph-name="Uhungarumlaut" unicode="&#x170;" horiz-adv-x="651" 
d="M143 695v-400.002c0 -36 2 -67.833 6 -95.5s12.5 -51.167 25.5 -70.5s31.5 -34 55.5 -44s56 -15 96 -15c38.667 0 70 5.16699 94 15.5s42.667 25.333 56 45s22.166 43.334 26.499 71.001s6.5 58.834 6.5 93.501v400h90v-396c0 -48 -4.33301 -91.167 -13 -129.5
s-23.5 -71 -44.5 -98s-49 -47.667 -84 -62s-78.833 -21.5 -131.5 -21.5c-53.333 0 -97.666 7 -132.999 21s-63.333 34.167 -84 60.5s-35.167 58.833 -43.5 97.5s-12.5 82.667 -12.5 132v396h90zM240 737.998l75 122h60v-25l-84 -97h-51zM339 737.998l76 122h60v-25l-84 -97
h-52z" />
    <glyph glyph-name="uhungarumlaut" unicode="&#x171;" 
d="M237 -12c-64 0 -110.167 15.3311 -138.5 45.998s-42.5 76.667 -42.5 138v328l86 16v-344c0 -39.333 7.66699 -67.5 23 -84.5s39.333 -25.5 72 -25.5c19.333 0 41.5 6.16699 66.5 18.5s50.5 32.833 76.5 61.5v358l86 16v-401c0 -24.667 2.33301 -45.167 7 -61.5
s12 -34.166 22 -53.499h-92c-4.66699 6.66699 -8.66699 15.834 -12 27.501s-5.33301 22.167 -6 31.5c-12.667 -13.333 -27 -25.333 -43 -36c-13.333 -9.33301 -29 -17.5 -47 -24.5s-37.333 -10.5 -58 -10.5zM200 583.998l52 123h55v-26l-67 -97h-40zM281 583.998l52 123h55
v-26l-67 -97h-40z" />
    <glyph glyph-name="Uogonek" unicode="&#x172;" horiz-adv-x="651" 
d="M143 695v-400.002c0 -36 2 -67.833 6 -95.5s12.5 -51.167 25.5 -70.5s31.5 -34 55.5 -44s56 -15 96 -15c38.667 0 70 5.16699 94 15.5s42.667 25.333 56 45s22.166 43.334 26.499 71.001s6.5 58.834 6.5 93.501v400h90v-396c0 -48 -4.33301 -91.167 -13 -129.5
s-23.5 -71 -44.5 -98s-49 -47.667 -84 -62s-78.833 -21.5 -131.5 -21.5c-53.333 0 -97.666 7 -132.999 21s-63.333 34.167 -84 60.5s-35.167 58.833 -43.5 97.5s-12.5 82.667 -12.5 132v396h90zM371 10.998c-18 -13.333 -31.168 -29.6689 -39.501 -49.002
s-12.5 -35.666 -12.5 -48.999s4.16699 -24.666 12.5 -33.999s20.166 -14 35.499 -14c12 0 26.667 3 44 9v-61c-27.333 -12.667 -52 -19 -74 -19c-27.333 0 -48.666 8.5 -63.999 25.5s-23 38.167 -23 63.5c0 18 4.33301 39 13 63s22.334 45.667 41.001 65h67z" />
    <glyph glyph-name="uogonek" unicode="&#x173;" 
d="M237 -12c-64 0 -110.167 15.3311 -138.5 45.998s-42.5 76.667 -42.5 138v328l86 16v-344c0 -39.333 7.66699 -67.5 23 -84.5s39.333 -25.5 72 -25.5c19.333 0 41.5 6.16699 66.5 18.5s50.5 32.833 76.5 61.5v358l86 16v-401c0 -24.667 2.33301 -45.167 7 -61.5
s12 -34.166 22 -53.499h-92c-4.66699 6.66699 -8.66699 15.834 -12 27.501s-5.33301 22.167 -6 31.5c-12.667 -13.333 -27 -25.333 -43 -36c-13.333 -9.33301 -29 -17.5 -47 -24.5s-37.333 -10.5 -58 -10.5zM471 10.998c-18 -13.333 -31.168 -29.6689 -39.501 -49.002
s-12.5 -35.666 -12.5 -48.999s4.16699 -24.666 12.5 -33.999s20.166 -14 35.499 -14c12 0 26.667 3 44 9v-61c-27.333 -12.667 -52 -19 -74 -19c-27.333 0 -48.666 8.5 -63.999 25.5s-23 38.167 -23 63.5c0 18 4.33301 39 13 63s22.334 45.667 41.001 65h67z" />
    <glyph glyph-name="Ydieresis" unicode="&#x178;" horiz-adv-x="617" 
d="M605 683l-229.999 -359c-4.66699 -6.66699 -11.334 -10 -20.001 -10v-314h-93v314c-8 0 -14.667 3.33301 -20 10l-230 359l89 24l198 -313h20l197 313zM398.001 860c13.333 0 24.666 -4.5 33.999 -13.5s14 -20.167 14 -33.5s-4.66699 -24.5 -14 -33.5
s-20.666 -13.5 -33.999 -13.5s-24.666 4.5 -33.999 13.5s-14 20.167 -14 33.5s4.66699 24.5 14 33.5s20.666 13.5 33.999 13.5zM220.001 860c13.333 0 24.666 -4.5 33.999 -13.5s14 -20.167 14 -33.5s-4.66699 -24.5 -14 -33.5s-20.666 -13.5 -33.999 -13.5
s-24.666 4.5 -33.999 13.5s-14 20.167 -14 33.5s4.66699 24.5 14 33.5s20.666 13.5 33.999 13.5z" />
    <glyph glyph-name="Zacute" unicode="&#x179;" horiz-adv-x="622" 
d="M83 695h491v-43c0 -14 -2.5 -27 -7.5 -39s-11.833 -23.333 -20.5 -34l-362 -447l-46 -50h447v-82h-551v46c0 28 9.33301 52.333 28 73l329 412l73 82h-406zM248 737l76 123h77l1 -11l-85 -112h-69z" />
    <glyph glyph-name="zacute" unicode="&#x17a;" horiz-adv-x="534" 
d="M81 515l394 -0.000976562v-16c0 -30.667 -10.667 -56.667 -32 -78l-294 -353l108 5h224l-17 -73h-419v29c0 14.667 2.83301 28.334 8.5 41.001s13.167 24.667 22.5 36l291 345l-99 -6h-187v70zM228 584.999l52 122h72v-25l-67 -97h-57z" />
    <glyph glyph-name="Zdotaccent" unicode="&#x17b;" horiz-adv-x="622" 
d="M83 695h491v-43c0 -14 -2.5 -27 -7.5 -39s-11.833 -23.333 -20.5 -34l-362 -447l-46 -50h447v-82h-551v46c0 28 9.33301 52.333 28 73l329 412l73 82h-406zM311 860c13.333 0 24.666 -4.5 33.999 -13.5s14 -20.167 14 -33.5s-4.66699 -24.5 -14 -33.5
s-20.666 -13.5 -33.999 -13.5s-24.666 4.5 -33.999 13.5s-14 20.167 -14 33.5s4.66699 24.5 14 33.5s20.666 13.5 33.999 13.5z" />
    <glyph glyph-name="zdotaccent" unicode="&#x17c;" horiz-adv-x="534" 
d="M81 515l394 -0.000976562v-16c0 -30.667 -10.667 -56.667 -32 -78l-294 -353l108 5h224l-17 -73h-419v29c0 14.667 2.83301 28.334 8.5 41.001s13.167 24.667 22.5 36l291 345l-99 -6h-187v70zM262 706.999c13.333 0 24.666 -4.5 33.999 -13.5s14 -20.167 14 -33.5
s-4.66699 -24.5 -14 -33.5s-20.666 -13.5 -33.999 -13.5s-24.666 4.5 -33.999 13.5s-14 20.167 -14 33.5s4.66699 24.5 14 33.5s20.666 13.5 33.999 13.5z" />
    <glyph glyph-name="Zcaron" unicode="&#x17d;" horiz-adv-x="622" 
d="M83 695h491v-43c0 -14 -2.5 -27 -7.5 -39s-11.833 -23.333 -20.5 -34l-362 -447l-46 -50h447v-82h-551v46c0 28 9.33301 52.333 28 73l329 412l73 82h-406zM298 735l-116 112v11h76l60 -60l60 60h76v-11l-116 -112h-40z" />
    <glyph glyph-name="zcaron" unicode="&#x17e;" horiz-adv-x="534" 
d="M81 515l394 -0.000976562v-16c0 -30.667 -10.667 -56.667 -32 -78l-294 -353l108 5h224l-17 -73h-419v29c0 14.667 2.83301 28.334 8.5 41.001s13.167 24.667 22.5 36l291 345l-99 -6h-187v70zM259 583.999l-116 112v11h76l60 -60l60 60h76v-11l-116 -112h-40z" />
    <glyph glyph-name="uni018F" unicode="&#x18f;" horiz-adv-x="681" 
d="M550 294l-426 -0.00292969c0 -31.333 4.33301 -60.666 13 -87.999s21.5 -51.166 38.5 -71.499s38 -36.666 63 -48.999s53.833 -18.833 86.5 -19.5h8c32.667 0 62.5 5.83301 89.5 17.5s49.833 27.667 68.5 48s33.167 44.5 43.5 72.5s15.5 58 15.5 90zM552 375.997
c0 14.667 -0.832031 30.1699 -2.49902 46.5029s-4.33398 32.166 -8.00098 47.499s-8.5 30 -14.5 44s-13.333 26.333 -22 37c-21.333 26.667 -48 46.167 -80 58.5s-65.333 18.5 -100 18.5c-19.333 0 -38.333 -1.5 -57 -4.5s-36.334 -8.16699 -53.001 -15.5
s-31.667 -16.833 -45 -28.5s-24 -26.5 -32 -44.5l-80 31c11.333 24.667 26.333 45.834 45 63.501s39.834 32.334 63.501 44.001s49.167 20.167 76.5 25.5s55 8 83 8c49.333 0 94.833 -7.33301 136.5 -22s77.167 -40 106.5 -76c29.333 -36.667 48.5 -77.834 57.5 -123.501
s13.5 -92.5 13.5 -140.5v-26c0 -50.667 -6.66699 -96.334 -20 -137.001s-33 -75.334 -59 -104.001s-58.167 -50.834 -96.5 -66.501s-82.5 -23.5 -132.5 -23.5h-7c-49.333 0.666992 -92.333 9.5 -129 26.5s-67 40.167 -91 69.5s-41.833 63.833 -53.5 103.5
s-17.5 82.5 -17.5 128.5v60h518z" />
    <glyph glyph-name="florin" unicode="&#x192;" horiz-adv-x="360" 
d="M139 553c0 18.667 3.49707 36.668 10.4971 54.001s17 32.5 30 45.5s28.667 23.333 47 31s38.5 11.5 60.5 11.5c7.33301 0 17.333 -0.833008 30 -2.5s25 -4.83398 37 -9.50098l-10 -59h-52c-19.333 0 -35.666 -6.5 -48.999 -19.5s-20 -30.167 -20 -51.5v-71h97v-66h-97
v-395c0 -24 -4.5 -45 -13.5 -63s-20.667 -33 -35 -45s-30.333 -21.167 -48 -27.5s-35.5 -9.5 -53.5 -9.5c-4.66699 0 -12.5 0.5 -23.5 1.5s-25.167 4.5 -42.5 10.5l10 62h41c10 0 19.833 1.33301 29.5 4s18.334 6.66699 26.001 12s13.834 12.5 18.501 21.5s7 20.167 7 33.5
v395h-75v66h75v71z" />
    <glyph glyph-name="uni01CF" unicode="&#x1cf;" horiz-adv-x="217" 
d="M151 695v-695h-90v695h90zM99 735l-116 112v11h76l60 -60l60 60h76v-11l-116 -112h-40z" />
    <glyph glyph-name="uni01D0" unicode="&#x1d0;" horiz-adv-x="243" 
d="M76 0v504h86v-504h-86zM96 585l-84 97v25h60l47 -76l47 76h60v-25l-84 -97h-46z" />
    <glyph glyph-name="Gcaron" unicode="&#x1e6;" horiz-adv-x="647" 
d="M525 559c-8 11.333 -18.1689 21.1719 -30.502 29.5049s-25.666 15.166 -39.999 20.499s-29.333 9.16602 -45 11.499s-30.834 3.5 -45.501 3.5c-36 0 -69 -5.83301 -99 -17.5s-57 -30.834 -81 -57.501c-26 -28 -42 -57.833 -48 -89.5s-9 -65.834 -9 -102.501v-25
c0 -36.667 4 -70.167 12 -100.5s24.667 -59.833 50 -88.5c12 -13.333 26.167 -24.666 42.5 -33.999s33.5 -16.833 51.5 -22.5s36.333 -9.83398 55 -12.501s37 -4 55 -4s38.5 3.16699 61.5 9.5s42.833 13.166 59.5 20.499v177h-150v84h236v-312
c-32 -17.333 -66.167 -31.833 -102.5 -43.5s-73.166 -17.5 -110.499 -17.5c-24 0 -48.167 1.83301 -72.5 5.5s-48.166 9.66699 -71.499 18s-45.5 18.833 -66.5 31.5s-39.5 28 -55.5 46c-33.333 36.667 -55.666 74.834 -66.999 114.501s-17 83.5 -17 131.5v23
c0 23.333 0.666992 45.666 2 66.999s4.5 42.166 9.5 62.499s12.833 40.5 23.5 60.5s25.334 40 44.001 60c33.333 36 71.166 61.5 113.499 76.5s87.166 22.5 134.499 22.5c42 0 82.167 -7.16699 120.5 -21.5s72.5 -39.166 102.5 -74.499zM339.998 763.006l-116 112v11h76
l60 -60l60 60h76v-11l-116 -112h-40z" />
    <glyph glyph-name="gcaron" unicode="&#x1e7;" horiz-adv-x="522" 
d="M242 74c19.333 0 41.333 6.16602 66 18.499s50 32.833 76 61.5v273c-14 4.66699 -29.167 8.33398 -45.5 11.001s-32.833 4 -49.5 4c-58 0 -99.333 -13.667 -124 -41s-37 -68 -37 -122v-67c0 -50 10 -85.5 30 -106.5s48 -31.5 84 -31.5zM384 65.999
c-4 -4 -10.334 -9.6709 -19.001 -17.0039s-19.167 -14.666 -31.5 -21.999s-26.166 -13.666 -41.499 -18.999s-32 -8 -50 -8c-28.667 0 -55.167 4 -79.5 12s-45.5 20.667 -63.5 38s-32 39.833 -42 67.5s-15 61.167 -15 100.5v52c0 84.667 20.333 146.834 61 186.501
s102 59.5 184 59.5c33.333 0 65.5 -3.16699 96.5 -9.5s59.833 -15.166 86.5 -26.499v-462c0 -32 -5.33301 -61.667 -16 -89s-25.667 -51 -45 -71s-42.666 -35.667 -69.999 -47s-58 -17 -92 -17c-37.333 0 -70.333 4.33301 -99 13s-59 22.334 -91 41.001l41 71
c25.333 -15.333 49.333 -26.5 72 -33.5s49 -10.5 79 -10.5c43.333 0 76.666 13.167 99.999 39.5s35 60.166 35 101.499v50zM263.999 583.995l-116 112v11h76l60 -60l60 60h76v-11l-116 -112h-40z" />
    <glyph glyph-name="Scommaaccent" unicode="&#x218;" horiz-adv-x="586" 
d="M57 519c0 34 7.33203 63.001 21.999 87.001s33.834 43.5 57.501 58.5s50.5 25.833 80.5 32.5s60 10 90 10c42.667 0 83.5 -8.5 122.5 -25.5s72.5 -41.5 100.5 -73.5l-65 -58c-21.333 25.333 -46.333 44 -75 56s-60 18 -94 18c-16.667 0 -33.667 -2 -51 -6
s-33 -10.333 -47 -19s-25.5 -19.334 -34.5 -32.001s-13.5 -27.334 -13.5 -44.001c0 -31.333 9.83301 -55.166 29.5 -71.499s44.5 -29.333 74.5 -39s62.167 -18.5 96.5 -26.5s66.5 -19.167 96.5 -33.5s54.833 -34.166 74.5 -59.499s29.5 -60.333 29.5 -105
c0 -36 -8.33301 -66.667 -25 -92s-38 -46 -64 -62s-54.833 -27.667 -86.5 -35s-62.167 -11 -91.5 -11c-56.667 0 -106.667 12.833 -150 38.5s-78 63.167 -104 112.5l78 41c20.667 -38 45.334 -65.833 74.001 -83.5s63 -26.5 103 -26.5c17.333 0 36.166 1.66699 56.499 5
s39.333 9.33301 57 18s32.5 20.667 44.5 36s18 35 18 59c0 29.333 -10 51.833 -30 67.5s-45 28.5 -75 38.5s-62.333 19.167 -97 27.5s-67 19.833 -97 34.5s-55 34.667 -75 60s-30 59.666 -30 102.999zM283.999 -46.999c11.333 0 21 -3.66406 29 -10.9971
c12.667 -11.333 19 -26.333 19 -45c0 -24 -7.5 -45 -22.5 -63s-33.5 -31.333 -55.5 -40l-17 23c12.667 5.33301 22.5 12.666 29.5 21.999s12.167 19 15.5 29c-11.333 0.666992 -21 5.16699 -29 13.5s-12 18.166 -12 29.499s4.16699 21.166 12.5 29.499s18.5 12.5 30.5 12.5z
" />
    <glyph glyph-name="scommaaccent" unicode="&#x219;" horiz-adv-x="474" 
d="M247 516c32 0 63 -6.33398 93 -19.001s55.667 -30.667 77 -54l-52 -51c-11.333 12 -26.333 23.333 -45 34s-43.667 16 -75 16c-10.667 0 -22.167 -0.833008 -34.5 -2.5s-24 -5 -35 -10s-20.167 -12.167 -27.5 -21.5s-11 -21.333 -11 -36c0 -16.667 7.5 -29.5 22.5 -38.5
s33.833 -17 56.5 -24s47 -13.667 73 -20s50.333 -14.666 73 -24.999s41.5 -24 56.5 -41s22.5 -39.5 22.5 -67.5c0 -52 -17 -93 -51 -123s-84 -45 -150 -45c-50 0 -92 8.5 -126 25.5s-61.333 43.833 -82 80.5l62 39c8.66699 -10 17.667 -19.333 27 -28
s19.666 -16.167 30.999 -22.5s24.5 -11.333 39.5 -15s32.833 -5.5 53.5 -5.5c10.667 0 22.5 1 35.5 3s25 6 36 12s20.167 14.333 27.5 25s11 24.334 11 41.001c0 20 -7.5 35 -22.5 45s-33.667 18.167 -56 24.5s-46.5 12.166 -72.5 17.499s-50.167 13.333 -72.5 24
s-41 25.5 -56 44.5s-22.5 45.167 -22.5 78.5c0 26 6.33301 47.833 19 65.5s28.5 32 47.5 43s39.833 18.833 62.5 23.5s44.334 7 65.001 7zM228 -47.001c11.333 0 21 -3.66406 29 -10.9971c12.667 -11.333 19 -26.333 19 -45c0 -24 -7.5 -45 -22.5 -63
s-33.5 -31.333 -55.5 -40l-17 23c12.667 5.33301 22.5 12.666 29.5 21.999s12.167 19 15.5 29c-11.333 0.666992 -21 5.16699 -29 13.5s-12 18.166 -12 29.499s4.16699 21.166 12.5 29.499s18.5 12.5 30.5 12.5z" />
    </font>
</defs>
</svg>
